<?xml version="1.0" encoding="utf-8"?>
<svg version="1.1" xmlns:xlink="http://www.w3.org/1999/xlink" width="24px" height="24px" xmlns="http://www.w3.org/2000/svg">
  <g transform="matrix(1 0 0 1 -16 -322 )">
    <path d="M 28 323  C 34.16 323  39 327.84  39 334  C 39 340.16  34.16 345  28 345  C 21.84 345  17 340.16  17 334  C 17 327.84  21.84 323  28 323  Z " fill-rule="nonzero" fill="#ffffff" stroke="none" />
    <path d="M 28 323  C 34.16 323  39 327.84  39 334  C 39 340.16  34.16 345  28 345  C 21.84 345  17 340.16  17 334  C 17 327.84  21.84 323  28 323  Z " stroke-width="2" stroke="#333333" fill="none" />
  </g>
</svg>