<?xml version="1.0" encoding="utf-8"?>
<svg version="1.1" xmlns:xlink="http://www.w3.org/1999/xlink" width="16px" height="16px" xmlns="http://www.w3.org/2000/svg">
  <g transform="matrix(1 0 0 1 -199 -100 )">
    <path d="M 207 101  C 210.92 101  214 104.08  214 108  C 214 111.92  210.92 115  207 115  C 203.08 115  200 111.92  200 108  C 200 104.08  203.08 101  207 101  Z " fill-rule="nonzero" fill="#ffffff" stroke="none" />
    <path d="M 207 101  C 210.92 101  214 104.08  214 108  C 214 111.92  210.92 115  207 115  C 203.08 115  200 111.92  200 108  C 200 104.08  203.08 101  207 101  Z " stroke-width="2" stroke="#d7d8d6" fill="none" />
  </g>
</svg>