<?xml version="1.0" encoding="UTF-8" standalone="no"?>
<svg width="144px" height="100px" viewBox="0 0 144 100" version="1.1" xmlns="http://www.w3.org/2000/svg" xmlns:xlink="http://www.w3.org/1999/xlink">
    <!-- Generator: Sketch 40.1 (33804) - http://www.bohemiancoding.com/sketch -->
    <title>icon-salesforce</title>
    <desc>Created with Sketch.</desc>
    <defs>
        <polygon id="path-1" points="71.8126265 0.0568965517 0.0260240964 0.0568965517 0.0260240964 99.9431034 143.599229 99.9431034 143.599229 0.0568965517 71.8126265 0.0568965517"></polygon>
    </defs>
    <g id="B-Business-&amp;-Solutions" stroke="none" stroke-width="1" fill="none" fill-rule="evenodd">
        <g id="B05-Integration-Normal-[M]" transform="translate(-116.000000, -895.000000)">
            <g id="SalesForce" transform="translate(20.000000, 895.000000)">
                <g id="icon-salesforce" transform="translate(96.000000, 0.000000)">
                    <g id="Group-3">
                        <mask id="mask-2" fill="white">
                            <use xlink:href="#path-1"></use>
                        </mask>
                        <g id="Clip-2"></g>
                        <path d="M59.7560964,10.950431 C64.3866506,6.15603448 70.8341205,3.18189655 77.9655904,3.18189655 C87.4457349,3.18189655 95.7144578,8.43362069 100.11947,16.2314655 C103.947614,14.5327586 108.18347,13.587069 112.640964,13.587069 C129.737928,13.587069 143.599229,27.4818966 143.599229,44.6211207 C143.599229,61.762931 129.737928,75.6577586 112.640964,75.6577586 C110.553398,75.6577586 108.514843,75.4478448 106.541349,75.0538793 C102.664627,81.9267241 95.2737831,86.5724138 86.789494,86.5724138 C83.2398072,86.5724138 79.8818313,85.7586207 76.8890602,84.3073276 C72.9594217,93.4978448 63.7976386,99.9431034 53.122988,99.9431034 C42.0050602,99.9431034 32.5288193,92.9525862 28.8923855,83.1474138 C27.3031807,83.4810345 25.654988,83.6568966 23.9668916,83.6568966 C10.7297349,83.6568966 0,72.8831897 0,59.5922414 C0,50.6827586 4.81836145,42.9056034 11.9832289,38.7443966 C10.5080964,35.3698276 9.68920482,31.6491379 9.68920482,27.7357759 C9.68920482,12.45 22.1768675,0.0568965517 37.5792289,0.0568965517 C46.6226024,0.0568965517 54.6592771,4.32931034 59.7560964,10.950431" id="Fill-1" fill="#248FC3" mask="url(#mask-2)"></path>
                    </g>
                    <path d="M20.7975904,51.8547414 C20.7069398,52.0896552 20.829253,52.137931 20.858747,52.1780172 C21.1289639,52.3728448 21.4013494,52.5133621 21.6776386,52.6706897 C23.1423614,53.4426724 24.5268434,53.6668103 25.9724819,53.6668103 C28.9188434,53.6668103 30.7487711,52.1107759 30.7487711,49.6043103 L30.7487711,49.5560345 C30.7487711,47.2383621 28.6824578,46.3956897 26.7471325,45.7875 L26.4938313,45.7077586 C25.0334458,45.2357759 23.7734458,44.8288793 23.7734458,43.8724138 L23.7734458,43.8241379 C23.7734458,43.0060345 24.5099277,42.4043103 25.6519518,42.4043103 C26.9201928,42.4043103 28.425253,42.8237069 29.3937831,43.3564655 C29.3937831,43.3564655 29.6809157,43.5387931 29.7841446,43.2642241 C29.8409639,43.1150862 30.3306506,41.8043103 30.3835663,41.6616379 C30.4386506,41.5086207 30.341494,41.3931034 30.24,41.3323276 C29.132241,40.6633621 27.6020241,40.2064655 26.0193253,40.2064655 L25.7256867,40.2081897 C23.0287229,40.2081897 21.1458795,41.8275862 21.1458795,44.1469828 L21.1458795,44.1952586 C21.1458795,46.6387931 23.2226024,47.4336207 25.1687711,47.9853448 L25.4810602,48.0818966 C26.8993735,48.5137931 28.1212048,48.887069 28.1212048,49.8771552 L28.1212048,49.9275862 C28.1212048,50.8331897 27.3253012,51.5086207 26.0466506,51.5086207 C25.5482892,51.5086207 23.9634217,51.500431 22.2519036,50.424569 C22.045012,50.3025862 21.9270361,50.2168103 21.7665542,50.1202586 C21.6819759,50.0676724 21.4711807,49.9775862 21.3779277,50.2525862 L20.7975904,51.8547414" id="Fill-4" fill="#FFFFFF"></path>
                    <path d="M63.9203855,51.8547414 C63.8297349,52.0896552 63.9520482,52.137931 63.9815422,52.1780172 C64.251759,52.3728448 64.5241446,52.5133621 64.8004337,52.6706897 C66.2651566,53.4426724 67.6496386,53.6668103 69.0952771,53.6668103 C72.0416386,53.6668103 73.8715663,52.1107759 73.8715663,49.6043103 L73.8715663,49.5560345 C73.8715663,47.2383621 71.805253,46.3956897 69.8699277,45.7875 L69.6166265,45.7077586 C68.156241,45.2357759 66.896241,44.8288793 66.896241,43.8724138 L66.896241,43.8241379 C66.896241,43.0060345 67.6327229,42.4043103 68.774747,42.4043103 C70.042988,42.4043103 71.5476145,42.8237069 72.5165783,43.3564655 C72.5165783,43.3564655 72.8032771,43.5387931 72.9069398,43.2642241 C72.963759,43.1150862 73.4534458,41.8043103 73.5063614,41.6616379 C73.561012,41.5086207 73.4638554,41.3931034 73.3627952,41.3323276 C72.2546024,40.6633621 70.7265542,40.2064655 69.1416867,40.2064655 L68.8484819,40.2081897 C66.1510843,40.2081897 64.2686747,41.8275862 64.2686747,44.1469828 L64.2686747,44.1952586 C64.2686747,46.6387931 66.3475663,47.4336207 68.2911325,47.9853448 L68.6034217,48.0818966 C70.0217349,48.5137931 71.2457349,48.887069 71.2457349,49.8771552 L71.2457349,49.9275862 C71.2457349,50.8331897 70.4502651,51.5086207 69.169012,51.5086207 C68.6710843,51.5086207 67.0883855,51.500431 65.3746988,50.424569 C65.1678072,50.3025862 65.045494,50.2211207 64.8893494,50.1202586 C64.8364337,50.0866379 64.5874699,49.9905172 64.5028916,50.2525862 L63.9203855,51.8547414" id="Fill-5" fill="#FFFFFF"></path>
                    <path d="M93.3592771,46.9448276 C93.3592771,48.3603448 93.0933976,49.4784483 92.5698795,50.2668103 C92.0506988,51.0469828 91.2678072,51.4288793 90.1765301,51.4288793 C89.0835181,51.4288793 88.3045301,51.0469828 87.7940241,50.2668103 C87.2765783,49.4784483 87.0150361,48.3603448 87.0150361,46.9448276 C87.0150361,45.5310345 87.2765783,44.4150862 87.7918554,43.6353448 C88.3045301,42.8633621 89.0835181,42.487931 90.1765301,42.487931 C91.2678072,42.487931 92.0506988,42.8633621 92.5698795,43.6353448 C93.0933976,44.4150862 93.3592771,45.5310345 93.3592771,46.9448276 M95.8176867,44.3189655 C95.5773976,43.5073276 95.1996145,42.7918103 94.6995181,42.1961207 C94.198988,41.5987069 93.564,41.1185345 92.8106024,40.7702586 C92.0589398,40.4219828 91.1728193,40.2439655 90.1765301,40.2439655 C89.178506,40.2439655 88.2897831,40.4219828 87.5385542,40.7702586 C86.7868916,41.1185345 86.1519036,41.5987069 85.6518072,42.1987069 C85.1495422,42.7939655 84.7739277,43.5094828 84.5332048,44.3189655 C84.2924819,45.1262931 84.1701687,46.0090517 84.1701687,46.9448276 C84.1701687,47.8801724 84.2924819,48.7650862 84.5332048,49.5706897 C84.7739277,50.3801724 85.1495422,51.0952586 85.6518072,51.6931034 C86.1519036,52.2909483 86.7890602,52.7689655 87.5407229,53.1086207 C88.2919518,53.4487069 89.178506,53.6206897 90.1765301,53.6206897 C91.1728193,53.6206897 92.0572048,53.4487069 92.8106024,53.1086207 C93.5618313,52.7689655 94.1968193,52.2909483 94.6995181,51.6931034 C95.1996145,51.0974138 95.5773976,50.3823276 95.8176867,49.5706897 C96.0584096,48.762931 96.1807229,47.8801724 96.1807229,46.9448276 C96.1807229,46.0090517 96.0584096,45.1262931 95.8176867,44.3189655" id="Fill-6" fill="#FFFFFF"></path>
                    <path d="M116.009349,51.0487069 C115.929108,50.812069 115.694892,50.9021552 115.694892,50.9021552 C115.338361,51.0383621 114.95841,51.162069 114.551133,51.225 C114.141687,51.2900862 113.689735,51.3215517 113.204386,51.3215517 C112.016386,51.3215517 111.068675,50.9693966 110.391181,50.275 C109.713687,49.5784483 109.331566,48.4543103 109.335904,46.9340517 C109.340241,45.5517241 109.675518,44.5116379 110.279277,43.7163793 C110.878699,42.9280172 111.792578,42.5232759 113.008337,42.5232759 C114.021108,42.5232759 114.795759,42.6405172 115.60641,42.8922414 C115.60641,42.8922414 115.800289,42.9762931 115.89094,42.724569 C116.108675,42.1288793 116.266988,41.7073276 116.496867,41.0551724 C116.562361,40.8685345 116.40188,40.7909483 116.342892,40.7676724 C116.024096,40.6439655 115.272867,40.4405172 114.70294,40.3543103 C114.173349,40.275 113.550506,40.2327586 112.858265,40.2327586 C111.82641,40.2327586 110.906024,40.4090517 110.118795,40.7573276 C109.331566,41.1034483 108.667084,41.5836207 108.13706,42.1814655 C107.609639,42.7788793 107.208434,43.4943966 106.942554,44.3038793 C106.674506,45.1112069 106.541783,45.9965517 106.541783,46.9357759 C106.541783,48.962069 107.090458,50.6 108.177398,51.7978448 C109.266506,53.0034483 110.899952,53.6137931 113.031325,53.6137931 C114.291325,53.6137931 115.582988,53.3603448 116.513783,52.9974138 C116.513783,52.9974138 116.691181,52.9112069 116.613108,52.7056034 L116.009349,51.0487069" id="Fill-7" fill="#FFFFFF"></path>
                    <path d="M120.311566,45.5875 C120.429542,44.8008621 120.647277,44.1465517 120.984723,43.6366379 C121.493494,42.862931 122.26988,42.4349138 123.363325,42.4349138 C124.456337,42.4349138 125.176337,42.862931 125.695518,43.6366379 C126.03947,44.1487069 126.189108,44.8280172 126.248096,45.5896552 L120.311566,45.5875 L120.311566,45.5875 Z M128.588964,43.8590517 C128.379904,43.074569 127.862892,42.2840517 127.525012,41.9232759 C126.988916,41.3487069 126.463663,40.9482759 125.944482,40.7258621 C125.266988,40.4362069 124.452434,40.2452586 123.559373,40.2452586 C122.521012,40.2452586 121.577639,40.4193966 120.811663,40.7762931 C120.045687,41.1327586 119.402024,41.6211207 118.895422,42.2297414 C118.390988,42.8357759 118.011036,43.5573276 117.768578,44.3771552 C117.525687,45.1909483 117.403373,46.0780172 117.403373,47.0155172 C117.403373,47.9698276 117.530024,48.8594828 117.781157,49.6560345 C118.034458,50.4637931 118.439566,51.1706897 118.986072,51.7599138 C119.534747,52.3512931 120.237831,52.8125 121.079711,53.137931 C121.917687,53.4586207 122.934795,53.6262931 124.101976,53.6224138 C126.505735,53.6159483 127.772241,53.0831897 128.29359,52.7961207 C128.38641,52.7435345 128.472723,52.6556034 128.365157,52.399569 L127.818651,50.8853448 C127.736241,50.6607759 127.506361,50.7426724 127.506361,50.7426724 C126.908675,50.962931 126.064627,51.3573276 124.089398,51.3530172 C122.797735,51.3508621 121.841783,50.9732759 121.242361,50.3797414 C120.628193,49.7758621 120.324145,48.8866379 120.273398,47.6301724 L128.595036,47.6366379 C128.595036,47.6366379 128.814506,47.6344828 128.837928,47.4202586 C128.846169,47.3323276 129.122892,45.7215517 128.588964,43.8590517 L128.588964,43.8590517 Z" id="Fill-8" fill="#FFFFFF"></path>
                    <path d="M53.6525783,45.5875 C53.7705542,44.8008621 53.9882892,44.1465517 54.3235663,43.6366379 C54.8366747,42.862931 55.6108916,42.4349138 56.7043373,42.4349138 C57.7973494,42.4349138 58.5195181,42.862931 59.0382651,43.6366379 C59.3804819,44.1487069 59.5301205,44.8280172 59.5891084,45.5896552 L53.6525783,45.5875 L53.6525783,45.5875 Z M61.9299759,43.8590517 C61.7209157,43.074569 61.2039036,42.2840517 60.8660241,41.9232759 C60.3299277,41.3487069 59.8068434,40.9482759 59.285494,40.7258621 C58.6058313,40.4362069 57.7934458,40.2452586 56.9025542,40.2452586 C55.8620241,40.2452586 54.9186506,40.4193966 54.1526747,40.7762931 C53.3866988,41.1327586 52.7430361,41.6211207 52.2364337,42.2297414 C51.732,42.8357759 51.3520482,43.5573276 51.1095904,44.3771552 C50.8666988,45.1909483 50.7443855,46.0780172 50.7443855,47.0155172 C50.7443855,47.9698276 50.8710361,48.8594828 51.1221687,49.6560345 C51.3754699,50.4637931 51.7805783,51.1706897 52.3270843,51.7599138 C52.875759,52.3512931 53.5788434,52.8125 54.4207229,53.137931 C55.2586988,53.4586207 56.2758072,53.6262931 57.442988,53.6224138 C59.846747,53.6159483 61.113253,53.0831897 61.6341687,52.7961207 C61.7274217,52.7435345 61.8137349,52.6556034 61.7061687,52.399569 L61.1596627,50.8853448 C61.077253,50.6607759 60.8473735,50.7426724 60.8473735,50.7426724 C60.2501205,50.962931 59.4056386,51.3573276 57.4304096,51.3530172 C56.1409157,51.3508621 55.1827952,50.9732759 54.5833735,50.3797414 C53.9692048,49.7758621 53.6651566,48.8866379 53.6144096,47.6301724 L61.9360482,47.6366379 C61.9360482,47.6366379 62.1555181,47.6344828 62.1789398,47.4202586 C62.1871807,47.3323276 62.4639036,45.7215517 61.9299759,43.8590517 L61.9299759,43.8590517 Z" id="Fill-9" fill="#FFFFFF"></path>
                    <path d="M35.6616867,51.0034483 C35.3346506,50.7456897 35.2904096,50.6806034 35.1828434,50.512931 C35.0162892,50.2590517 34.9317108,49.8982759 34.9317108,49.437069 C34.9317108,48.7112069 35.1741687,48.187069 35.6746988,47.8366379 C35.6703614,47.8366379 36.3920964,47.2159483 38.0888675,47.2387931 C39.2812048,47.2538793 40.3490602,47.4297414 40.3490602,47.4297414 L40.3490602,51.1905172 C40.3490602,51.1905172 39.2920482,51.4146552 38.1014458,51.4862069 C36.409012,51.5887931 35.6556145,51.0017241 35.6616867,51.0034483 M38.973253,45.1918103 C38.6353735,45.1668103 38.1986024,45.1543103 37.6755181,45.1543103 C36.9620241,45.1543103 36.2719518,45.2422414 35.6239518,45.4163793 C34.9737831,45.5905172 34.3891084,45.8590517 33.8868434,46.2155172 C33.3806747,46.5762931 32.9751325,47.0353448 32.679759,47.5810345 C32.3843855,48.1262931 32.2343133,48.7681034 32.2343133,49.4853448 C32.2343133,50.2193966 32.3609639,50.8547414 32.6164337,51.375 C32.8697349,51.8969828 33.2349398,52.3336207 33.7012048,52.6689655 C34.1635663,53.0047414 34.7352289,53.25 35.3958072,53.3987069 C36.0503133,53.5478448 36.7911325,53.6232759 37.6013494,53.6232759 C38.456241,53.6232759 39.3046265,53.5521552 40.1295904,53.4137931 C40.946747,53.275 41.9469398,53.0737069 42.2253976,53.0086207 C42.5021205,52.9456897 42.8079036,52.862069 42.8079036,52.862069 C43.0147952,52.8094828 42.9978795,52.5913793 42.9978795,52.5913793 L42.9935422,45.0284483 C42.9935422,43.3672414 42.5485301,42.1383621 41.6723855,41.375 C40.7988434,40.6155172 39.5115181,40.2318966 37.8481446,40.2318966 C37.2235663,40.2318966 36.2212048,40.3155172 35.6174458,40.4353448 C35.6174458,40.4353448 33.8005301,40.7853448 33.0532048,41.3685345 C33.0532048,41.3685345 32.8888193,41.4693966 32.9773012,41.6978448 L33.5663133,43.2706897 C33.6400482,43.4741379 33.8404337,43.4051724 33.8404337,43.4051724 C33.8404337,43.4051724 33.903759,43.3797414 33.9779277,43.3357759 C35.5775422,42.4715517 37.6035181,42.4969828 37.6035181,42.4969828 C38.5026506,42.4969828 39.1948916,42.6793103 39.6611566,43.0318966 C40.1148434,43.3797414 40.3451566,43.9 40.3451566,45.0030172 L40.3451566,45.3534483 C39.6316627,45.2508621 38.973253,45.1918103 38.973253,45.1918103" id="Fill-10" fill="#FFFFFF"></path>
                    <path d="M106.105446,40.9297414 C106.168771,40.7431034 106.035614,40.6530172 105.980964,40.6318966 C105.839566,40.5797414 105.13041,40.4306034 104.586072,40.3952586 C103.539036,40.3318966 102.958699,40.5060345 102.439518,40.7392241 C101.922506,40.9698276 101.35041,41.3452586 101.033783,41.7706897 L101.031614,40.762069 C101.031614,40.6237069 100.932723,40.5125 100.793494,40.5125 L98.6595181,40.5125 C98.5202892,40.5125 98.4209639,40.6237069 98.4209639,40.762069 L98.4209639,53.1008621 C98.4209639,53.2392241 98.5328675,53.350431 98.6742651,53.350431 L100.860723,53.350431 C101.000386,53.350431 101.111855,53.2392241 101.111855,53.1008621 L101.111855,46.9366379 C101.111855,46.1081897 101.204675,45.2840517 101.388578,44.7659483 C101.567711,44.2521552 101.812771,43.8431034 102.116819,43.549569 C102.420434,43.2556034 102.766554,43.050431 103.146506,42.9349138 C103.532964,42.8172414 103.96106,42.7775862 104.260771,42.7775862 C104.697542,42.7775862 105.174651,42.8909483 105.174651,42.8909483 C105.337301,42.9077586 105.425783,42.8090517 105.480867,42.6663793 C105.622265,42.2887931 106.029542,41.1543103 106.105446,40.9297414" id="Fill-11" fill="#FFFFFF"></path>
                    <path d="M85.5798072,35.2116379 C85.3139277,35.1301724 85.0732048,35.075431 84.757012,35.0189655 C84.4360482,34.9599138 84.0560964,34.9306034 83.6253976,34.9306034 C82.1207711,34.9306034 80.9349398,35.3543103 80.1013012,36.1892241 C79.2737349,37.0176724 78.7103133,38.2801724 78.4275181,39.9392241 L78.3260241,40.4991379 L76.4371084,40.4991379 C76.4371084,40.4991379 76.2050602,40.4909483 76.1586506,40.7405172 L75.8485301,42.4603448 C75.8251084,42.6237069 75.8971084,42.7267241 76.118747,42.7267241 L77.9590843,42.7267241 L76.090988,53.0793103 C75.9456867,53.9116379 75.7786988,54.5974138 75.5930602,55.1176724 C75.411759,55.6314655 75.2321928,56.0155172 75.0127229,56.2943966 C74.799759,56.562931 74.5989398,56.7642241 74.2506506,56.8793103 C73.9639518,56.9737069 73.6325783,57.0181034 73.2717108,57.0181034 C73.0708916,57.0181034 72.8028434,56.9844828 72.6046265,56.9443966 C72.4064096,56.9068966 72.302747,56.862931 72.1552771,56.8017241 C72.1552771,56.8017241 71.9397108,56.7198276 71.8533976,56.9340517 C71.7857349,57.1103448 71.2960482,58.450431 71.2370602,58.6159483 C71.1780723,58.7797414 71.2604819,58.9077586 71.3658795,58.9452586 C71.610506,59.0314655 71.792241,59.087931 72.1257831,59.1655172 C72.5898795,59.274569 72.980241,59.2810345 73.3454458,59.2810345 C74.1114217,59.2810345 74.8101687,59.1741379 75.3883373,58.9663793 C75.9708434,58.7564655 76.4774458,58.3913793 76.9267952,57.9008621 C77.4104096,57.3681034 77.7161928,56.8103448 78.0076627,56.0491379 C78.2965301,55.2961207 78.5415904,54.3603448 78.7398072,53.2698276 L80.6139759,42.7267241 L83.3556145,42.7267241 C83.3556145,42.7267241 83.5876627,42.7349138 83.6340723,42.4853448 L83.9441928,40.7655172 C83.9654458,40.6021552 83.8956145,40.4991379 83.6739759,40.4991379 L81.013012,40.4991379 C81.0255904,40.4405172 81.1457349,39.5090517 81.4519518,38.6344828 C81.582506,38.2590517 81.8275663,37.9594828 82.0366265,37.7517241 C82.2391807,37.5482759 82.4755663,37.4034483 82.7327711,37.3193966 C82.9964819,37.2357759 83.2961928,37.1939655 83.6253976,37.1939655 C83.8769639,37.1939655 84.1215904,37.2232759 84.3093976,37.2607759 C84.5670361,37.3155172 84.6680964,37.3448276 84.735759,37.3637931 C85.0059759,37.4474138 85.0415422,37.3676724 85.0966265,37.237931 L85.7320482,35.5012931 C85.7971084,35.3146552 85.6392289,35.2349138 85.5798072,35.2116379" id="Fill-12" fill="#FFFFFF"></path>
                    <path d="M48.3961446,53.100431 C48.3961446,53.2392241 48.2968193,53.3525862 48.1575904,53.3525862 L45.9498795,53.3525862 C45.8106506,53.3525862 45.7113253,53.2392241 45.7113253,53.100431 L45.7113253,35.4474138 C45.7113253,35.3090517 45.8106506,35.1978448 45.9498795,35.1978448 L48.1575904,35.1978448 C48.2968193,35.1978448 48.3961446,35.3090517 48.3961446,35.4474138 L48.3961446,53.100431" id="Fill-13" fill="#FFFFFF"></path>
                </g>
            </g>
        </g>
    </g>
</svg>