<?xml version="1.0" encoding="utf-8"?>
<!-- Generator: Adobe Illustrator 21.0.0, SVG Export Plug-In . SVG Version: 6.00 Build 0)  -->
<svg version="1.1" id="Layer_1" xmlns="http://www.w3.org/2000/svg" xmlns:xlink="http://www.w3.org/1999/xlink" x="0px" y="0px"
	 viewBox="0 0 60 60" style="enable-background:new 0 0 60 60;" xml:space="preserve">
<style type="text/css">
	.st0{fill:none;stroke:#37215A;stroke-width:2;}
</style>
<path class="st0" d="M5.2,31.6C0,24,0.8,13.6,7.6,6.8c6-6,15.3-7.1,22.5-3.7"/>
<path class="st0" d="M52.4,34.6C60,27,60.2,14.4,52.6,6.8s-20-7.6-27.7,0L11.1,20.6c0,0,6.7,4.3,13.8-2.8c0,0,12.4,6.9,19.2,0.1"/>
<path class="st0" d="M47.6,41.2c1.6,1.6,4,1.6,5.6,0l0.1-0.1c1.5-1.4,1.6-3.9,0.1-5.4L39,20.6"/>
<path class="st0" d="M27.2,53.9l3.9,3.9c1.6,1.6,4,1.6,5.6,0l0,0c1.6-1.6,1.6-4,0-5.6L31,46.6"/>
<path class="st0" d="M36.7,52.2c1.6,1.6,4,1.6,5.6,0l0,0c1.6-1.6,1.6-4,0-5.6"/>
<path class="st0" d="M37.4,41.8l4.8,4.8c1.6,1.6,4,1.7,5.6,0.1l0,0c1.6-1.6,1.5-3.9-0.1-5.4l-4.9-4.9"/>
<path class="st0" d="M30.2,45.4L30.2,45.4c1.6,1.6,1.6,4,0,5.6l-4.1,4.1c-1.6,1.6-4,1.6-5.6,0l0,0c-1.6-1.6-1.6-4,0-5.6l4.1-4.1
	C26.3,44,28.8,44,30.2,45.4L30.2,45.4z"/>
<path class="st0" d="M19.1,34.3L19.1,34.3c1.6,1.6,1.6,4,0,5.6L14.9,44c-1.6,1.6-4,1.6-5.6,0l0,0c-1.6-1.6-1.6-4,0-5.6l4.1-4.1
	C15.1,32.8,17.6,32.8,19.1,34.3L19.1,34.3z"/>
<path class="st0" d="M13.5,28.8L13.5,28.8c1.6,1.6,1.6,4,0,5.6l-4.1,4.1c-1.6,1.6-4,1.6-5.6,0l0,0c-1.6-1.6-1.6-4,0-5.6l4.1-4.1
	C9.5,27.2,11.9,27.2,13.5,28.8L13.5,28.8z"/>
<path class="st0" d="M24.6,39.9L24.6,39.9c1.6,1.6,1.6,4,0,5.6l-4.1,4.1c-1.6,1.6-4,1.6-5.6,0l0,0c-1.6-1.6-1.6-4,0-5.6l4.1-4.1
	C20.6,38.3,23.1,38.3,24.6,39.9L24.6,39.9z"/>
</svg>
