<?xml version="1.0" encoding="UTF-8" standalone="no"?>
<svg width="32px" height="32px" viewBox="0 0 32 32" version="1.1" xmlns="http://www.w3.org/2000/svg" xmlns:xlink="http://www.w3.org/1999/xlink">
    <!-- Generator: Sketch 40.1 (33804) - http://www.bohemiancoding.com/sketch -->
    <title>icon-connect</title>
    <desc>Created with Sketch.</desc>
    <defs></defs>
    <g id="B-Business-&amp;-Solutions" stroke="none" stroke-width="1" fill="none" fill-rule="evenodd" stroke-linecap="round" stroke-linejoin="round">
        <g id="B05-Integration-Popup" transform="translate(-129.000000, -269.000000)" stroke="#156E96" stroke-width="2">
            <g id="Apps-Overlay" transform="translate(100.000000, 240.000000)">
                <g id="icon-connect" transform="translate(30.000000, 30.000000)">
                    <path d="M25.295,25.9095 C28.192,23.1745 30,19.2985 30,15 C30,6.7155 23.2845,0 15,0 C6.7155,0 0,6.7155 0,15 C0,23.2845 6.7155,30 15,30 L15,25.5" id="Shape"></path>
                    <path d="M15,22 L15,22 C11.6865,22 9,19.3135 9,16 L9,11 L21,11 L21,16 C21,19.3135 18.3135,22 15,22 L15,22 Z" id="Shape"></path>
                    <path d="M11.5,11 L11.5,7" id="Shape"></path>
                    <path d="M18.5,11 L18.5,7" id="Shape"></path>
                </g>
            </g>
        </g>
    </g>
</svg>