<?xml version="1.0" encoding="utf-8"?>
<!-- Generator: Adobe Illustrator 21.0.0, SVG Export Plug-In . SVG Version: 6.00 Build 0)  -->
<svg version="1.1" id="Layer_1" xmlns="http://www.w3.org/2000/svg" xmlns:xlink="http://www.w3.org/1999/xlink" x="0px" y="0px"
	 viewBox="0 0 62 62" style="enable-background:new 0 0 62 62;" xml:space="preserve">
<style type="text/css">
	.st0{fill:none;stroke:#231F20;stroke-width:2;}
</style>
<polyline class="st0" points="23,39 27,47 35,47 39,39 "/>
<path class="st0" d="M23,61l4-14"/>
<path class="st0" d="M35,47l4,14"/>
<path class="st0" d="M38.7,39H39c12.2,0,22,9.8,22,22l0,0H1l0,0c0-12.2,9.8-22,22-22h0.3"/>
<path class="st0" d="M31,41L31,41c-8.8,0-16-7.2-16-16v-8c0-8.8,7.2-16,16-16l0,0c8.8,0,16,7.2,16,16v8C47,33.8,39.8,41,31,41L31,41
	z"/>
<path class="st0" d="M15,19c2.6,2.1,4.4,4,8,4c6.1,0,11.6-2.8,14-8c1.8,4,5.8,6,10,6"/>
</svg>
