<?xml version="1.0" encoding="utf-8"?>
<!-- Generator: Adobe Illustrator 21.0.0, SVG Export Plug-In . SVG Version: 6.00 Build 0)  -->
<svg version="1.1" id="Layer_1" xmlns="http://www.w3.org/2000/svg" xmlns:xlink="http://www.w3.org/1999/xlink" x="0px" y="0px"
	 viewBox="0 0 62 62" style="enable-background:new 0 0 62 62;" xml:space="preserve">
<style type="text/css">
	.st0{fill:none;stroke:#004089;stroke-width:2;}
</style>
<title>icon-manufacturing</title>
<desc>Created with Sketch.</desc>
<g id="Symbols">
	<g id="icon-manufacturing">
		<path id="Shape" class="st0" d="M60,12.3l-8.2,8.1L42,10.8l8.2-8.1c-2.3-0.7-4.9-1-7.6-0.5c-6,1.1-10.9,5.9-12,11.8
			c-0.5,2.6-0.3,5.1,0.4,7.4l-26.8,23C0.1,48-0.1,54.2,3.8,58l0,0c3.9,3.8,10.2,3.6,13.7-0.5l23.4-26.4c2.3,0.7,4.8,0.9,7.4,0.5
			c6-1.1,10.9-5.9,12-11.8C60.9,17.2,60.7,14.6,60,12.3L60,12.3z"/>
		<ellipse id="Oval" class="st0" cx="11" cy="51" rx="2" ry="2"/>
	</g>
</g>
</svg>
