<?xml version="1.0" encoding="utf-8"?>
<!-- Generator: Adobe Illustrator 20.1.0, SVG Export Plug-In . SVG Version: 6.00 Build 0)  -->
<svg version="1.1" id="Layer_1" xmlns="http://www.w3.org/2000/svg" xmlns:xlink="http://www.w3.org/1999/xlink" x="0px" y="0px"
	 viewBox="0 0 15 46.7" style="enable-background:new 0 0 15 46.7;" xml:space="preserve">
<style type="text/css">
	.st0{fill:none;stroke:#1B2931;stroke-width:0.5;}
	.st1{fill:#1B2931;}
	.st2{fill:none;stroke:#C8006E;stroke-width:0.5;}
	.st3{fill:#C8006E;}
</style>
<title>icon-phone</title>
<desc>Created with Sketch.</desc>
<g id="P-Products_1_">
	<g id="P02-Product-Features_1_" transform="translate(-989.000000, -862.000000)">
		<g id="Preview_1_" transform="translate(500.000000, 360.000000)">
			<g id="Preview-Selector_1_" transform="translate(357.000000, 503.000000)">
				<g id="icon-phone_1_" transform="translate(133.000000, 0.000000)">
					<path id="Shape_5_" class="st0" d="M-0.2,27h13"/>
					<path id="Shape_4_" class="st0" d="M-0.2,38h13"/>
					<path id="Shape_3_" class="st0" d="M11.1,45H1.6c-1,0-1.7-0.9-1.7-2V25c0-1.1,0.8-2,1.7-2h9.5c1,0,1.7,0.9,1.7,2v18
						C12.8,44.1,12.1,45,11.1,45L11.1,45z"/>
					<circle id="Oval_1_" class="st1" cx="6.3" cy="41.5" r="1"/>
				</g>
			</g>
		</g>
	</g>
</g>
<g id="P-Products_2_">
	<g id="P02-Product-Features_2_" transform="translate(-989.000000, -862.000000)">
		<g id="Preview_2_" transform="translate(500.000000, 360.000000)">
			<g id="Preview-Selector_2_" transform="translate(357.000000, 503.000000)">
				<g id="icon-phone_2_" transform="translate(133.000000, 0.000000)">
					<path id="Shape_6_" class="st2" d="M-0.2,3.9h13"/>
					<path id="Shape_2_" class="st2" d="M-0.2,14.9h13"/>
					<path id="Shape_1_" class="st2" d="M11.1,21.9H1.6c-1,0-1.7-0.9-1.7-2v-18c0-1.1,0.8-2,1.7-2h9.5c1,0,1.7,0.9,1.7,2v18
						C12.8,21,12.1,21.9,11.1,21.9L11.1,21.9z"/>
					<circle id="Oval_2_" class="st3" cx="6.3" cy="18.4" r="1"/>
				</g>
			</g>
		</g>
	</g>
</g>
</svg>
