<?xml version="1.0" encoding="UTF-8" standalone="no"?>
<svg width="52px" height="52px" viewBox="0 0 52 52" version="1.1" xmlns="http://www.w3.org/2000/svg" xmlns:xlink="http://www.w3.org/1999/xlink">
    <!-- Generator: Sketch 40.1 (33804) - http://www.bohemiancoding.com/sketch -->
    <title>icon-payments</title>
    <desc>Created with Sketch.</desc>
    <defs></defs>
    <g id="Symbols" stroke="none" stroke-width="1" fill="none" fill-rule="evenodd">
        <g id="icon-payments" stroke="#41A940" stroke-width="1.5">
            <polyline id="Shape" points="29.6964286 34.3333333 3 34.3333333 3 12.6666667 49 12.6666667 49 34.3333333 44.0714286 34.3333333"></polyline>
            <path d="M12.8571429,12.6666667 L12.8571429,7.66666667 C12.8571429,5.83333333 14.3357143,4.33333333 16.1428571,4.33333333 L16.1428571,4.33333333 C17.95,4.33333333 19.4285714,5.83333333 19.4285714,7.66666667 L19.4285714,12.6666667" id="Shape"></path>
            <path d="M19.4285714,12.6666667 L19.4285714,6 C19.4285714,4.16666667 20.9071429,2.66666667 22.7142857,2.66666667 L22.7142857,2.66666667 C24.5214286,2.66666667 26,4.16666667 26,6 L26,12.6666667" id="Shape"></path>
            <path d="M26,12.6666667 L26,4.33333333 C26,2.5 27.4785714,1 29.2857143,1 L29.2857143,1 C31.0928571,1 32.5714286,2.5 32.5714286,4.33333333 L32.5714286,12.6666667" id="Shape"></path>
            <path d="M32.5714286,12.6666667 L32.5714286,6 C32.5714286,4.16666667 34.05,2.66666667 35.8571429,2.66666667 L35.8571429,2.66666667 C37.6642857,2.66666667 39.1428571,4.16666667 39.1428571,6 L39.1428571,12.6666667" id="Shape"></path>
            <ellipse id="Shape" cx="26" cy="23.5" rx="4.10714286" ry="4.16666667"></ellipse>
            <path d="M16.1428571,19 L9.57142857,19" id="Shape"></path>
            <path d="M12.8571429,34.3333333 L12.8571429,35.1666667 C12.8571429,43.9166667 19.8392857,51 28.4642857,51 L28.4642857,51 C37.0892857,51 44.0714286,43.9166667 44.0714286,35.1666667 L44.0714286,34.3333333 L44.0714286,19.3333333 C40.375,19.3333333 37.5,22.25 37.5,26 L37.5,31 C32.4071429,31 27.6428571,34.5833333 27.6428571,39.3333333" id="Shape"></path>
        </g>
    </g>
</svg>