<?xml version="1.0" encoding="UTF-8" standalone="no"?>
<svg width="62px" height="62px" viewBox="0 0 62 62" version="1.1" xmlns="http://www.w3.org/2000/svg" xmlns:xlink="http://www.w3.org/1999/xlink">
    <!-- Generator: Sketch 40.1 (33804) - http://www.bohemiancoding.com/sketch -->
    <title>icon-manufacturing-inactive</title>
    <desc>Created with Sketch.</desc>
    <defs></defs>
    <g id="B-Business-&amp;-Solutions" stroke="none" stroke-width="1" fill="none" fill-rule="evenodd" opacity="0.329999983">
        <g id="B08-Sage-X3---States" transform="translate(-499.000000, -751.000000)" stroke="#243741" stroke-width="2">
            <g id="Manufacturing-2-inactive" transform="translate(400.000000, 720.000000)">
                <g id="icon-manufacturing-inactive" transform="translate(99.000000, 31.000000)">
                    <path d="M60.0128734,12.3 L51.7755853,20.4 L42.0128734,10.8 L50.2501615,2.7 C47.9111785,2 45.3688056,1.7 42.6230429,2.2 C36.6230429,3.3 31.741687,8.1 30.6230429,14 C30.1145683,16.6 30.3179581,19.1 31.0298225,21.4 L4.18236492,44.4 C0.114568307,48 -0.0888215237,54.2 3.77558526,58 L3.77558526,58 C7.63999204,61.8 13.9450768,61.6 17.5043988,57.5 L40.8942293,31.1 C43.2332124,31.8 45.6738903,32 48.3179581,31.6 C54.3179581,30.5 59.1993141,25.7 60.3179581,19.8 C60.9281276,17.2 60.7247378,14.6 60.0128734,12.3 L60.0128734,12.3 Z" id="Shape"></path>
                    <ellipse id="Oval" cx="11.0338983" cy="51" rx="2.03389831" ry="2"></ellipse>
                </g>
            </g>
        </g>
    </g>
</svg>