<?xml version="1.0" encoding="utf-8"?>
<!-- Generator: Adobe Illustrator 20.1.0, SVG Export Plug-In . SVG Version: 6.00 Build 0)  -->
<svg version="1.1" id="Layer_1" xmlns="http://www.w3.org/2000/svg" xmlns:xlink="http://www.w3.org/1999/xlink" x="0px" y="0px"
	 viewBox="0 0 32 40.1" style="enable-background:new 0 0 32 40.1;" xml:space="preserve">
<style type="text/css">
	.st0{fill:none;stroke:#C8006E;stroke-width:0.5;}
	.st1{fill:none;stroke:#243741;stroke-width:0.5;}
</style>
<title>icon-desktop</title>
<desc>Created with Sketch.</desc>
<g id="P-Products">
	<g id="P02-Product-Features" transform="translate(-856.000000, -865.000000)">
		<g id="Preview" transform="translate(500.000000, 360.000000)">
			<g id="Preview-Selector" transform="translate(357.000000, 503.000000)">
				<g id="icon-desktop" transform="translate(0.000000, 3.000000)">
					<path id="Shape" class="st0" d="M2.5,16.5V2.8C2.5,1.2,3.8,0,5.3,0h19.4c1.5,0,2.8,1.2,2.8,2.8v13.8"/>
					<path id="Shape_1_" class="st0" d="M30,16.7L30,16.7c0,1.1-1.2,2-2.7,2H2.7c-1.5,0-2.7-0.9-2.7-2l0,0H30L30,16.7z"/>
					<rect id="Rectangle-path" x="4.5" y="2" class="st0" width="21" height="13"/>
				</g>
			</g>
		</g>
	</g>
</g>
<g id="P-Products_1_">
	<g id="P02-Product-Features_1_" transform="translate(-856.000000, -865.000000)">
		<g id="Preview_1_" transform="translate(500.000000, 360.000000)">
			<g id="Preview-Selector_1_" transform="translate(357.000000, 503.000000)">
				<g id="icon-desktop_1_" transform="translate(0.000000, 3.000000)">
					<path id="Shape_3_" class="st1" d="M2.8,36.2V22.4c0-1.5,1.2-2.8,2.8-2.8H25c1.5,0,2.8,1.2,2.8,2.8v13.8"/>
					<path id="Shape_2_" class="st1" d="M30.2,36.4L30.2,36.4c0,1.1-1.2,2-2.7,2H3c-1.5,0-2.7-0.9-2.7-2l0,0H30.2L30.2,36.4z"/>
					<rect id="Rectangle-path_1_" x="4.8" y="21.7" class="st1" width="21" height="13"/>
				</g>
			</g>
		</g>
	</g>
</g>
</svg>
