<?xml version="1.0" encoding="UTF-8" standalone="no"?>
<svg width="62px" height="62px" viewBox="0 0 62 62" version="1.1" xmlns="http://www.w3.org/2000/svg" xmlns:xlink="http://www.w3.org/1999/xlink">
    <!-- Generator: Sketch 40.1 (33804) - http://www.bohemiancoding.com/sketch -->
    <title>icon-simplicity</title>
    <desc>Created with Sketch.</desc>
    <defs></defs>
    <g id="Symbols" stroke="none" stroke-width="1" fill="none" fill-rule="evenodd" stroke-linecap="round" stroke-linejoin="round">
        <g id="icon-simplicity" stroke="#004089" stroke-width="2">
            <path d="M17.1860465,28.4576271 L17.1860465,36.5932203" id="Shape"></path>
            <path d="M26.3953488,29.4745763 L26.3953488,25.9152542 C26.3953488,23.3878508 28.4569228,21.3389831 31,21.3389831 L31,21.3389831 C33.5430772,21.3389831 35.6046512,23.3878508 35.6046512,25.9152542 L35.6046512,29.4745763" id="Shape"></path>
            <path d="M35.6046512,27.9491525 C35.6046512,25.4217492 37.6662251,23.3728814 40.2093023,23.3728814 L40.2093023,23.3728814 C42.7523795,23.3728814 44.8139535,25.4217492 44.8139535,27.9491525 L44.8139535,30.4915254" id="Shape"></path>
            <path d="M44.8139535,30.4915254 C44.8139535,30.4915254 44.9418605,26.4237288 48.9069767,26.4237288 C51.2732353,26.4237288 53,27.8220237 53,30.4915254 C53,46.5084746 46.8604651,61 46.8604651,61 L16.1627907,61 C16.1627907,55.7881356 9,51.1694881 9,44.7288136 L9,32.5254237 C9,30.2788407 10.8325079,28.4576271 13.0930233,28.4576271 L17.1860465,28.4576271 L17.1860465,5.57627119 C17.1860465,3.0488678 19.2476205,1 21.7906977,1 L21.7906977,1 C24.3337749,1 26.3953488,3.0488678 26.3953488,5.57627119 L26.3953488,28.4576271" id="Shape"></path>
        </g>
    </g>
</svg>