<?xml version="1.0" encoding="UTF-8" standalone="no"?>
<svg width="52px" height="52px" viewBox="0 0 52 52" version="1.1" xmlns="http://www.w3.org/2000/svg" xmlns:xlink="http://www.w3.org/1999/xlink">
    <!-- Generator: Sketch 40.1 (33804) - http://www.bohemiancoding.com/sketch -->
    <title>icon-value</title>
    <desc>Created with Sketch.</desc>
    <defs></defs>
    <g id="Symbols" stroke="none" stroke-width="1" fill="none" fill-rule="evenodd">
        <g id="icon-value" stroke="#243741" stroke-width="1.5">
            <ellipse id="Oval" transform="translate(22.666667, 6.172414) scale(-1, 1) translate(-22.666667, -6.172414) " cx="22.6666667" cy="6.17241379" rx="5" ry="5.17241379"></ellipse>
            <path d="M17.6666667,21.6896552 L27.6666667,21.6896552" id="Shape" transform="translate(22.666667, 22.120690) scale(-1, 1) translate(-22.666667, -22.120690) "></path>
            <path d="M1,31.6896552 C3.16666667,31.3448276 4.58333333,29.7068966 4.58333333,27.0344828 C4.58333333,24.0172414 2.33333333,23.5 2.33333333,23.5" id="Shape" transform="translate(2.791667, 27.594828) scale(-1, 1) translate(-2.791667, -27.594828) "></path>
            <ellipse id="Oval" transform="translate(36.833333, 27.724138) scale(-1, 1) translate(-36.833333, -27.724138) " cx="36.8333333" cy="27.7241379" rx="2.5" ry="2.5862069"></ellipse>
            <path d="M34.3333333,45.8275862 L34.3333333,51 L42.6666667,51 L42.6666667,44.5344828 C47.5833333,42.2068966 51,37.1206897 51,31.1724138 C51,23.0689655 44.6666667,16.5172414 36.8333333,16.5172414 L23.5,16.5172414 C19.5,9.18965517 12.6666667,11.3448276 12.6666667,11.3448276 L15.25,19.2758621 C12.75,21.0862069 10.9166667,23.7586207 10,26.862069 L4.33333333,26.862069 L4.33333333,38.9310345 L11.5,38.9310345 C13,41.3448276 15.0833333,43.3275862 17.6666667,44.5344828 L17.6666667,51 L26,51 L26,45.8275862" id="Shape" transform="translate(27.666667, 31.024597) scale(-1, 1) translate(-27.666667, -31.024597) "></path>
            <path d="M19.3333333,45.8275862 L31,45.8275862" id="Shape" transform="translate(25.166667, 46.258621) scale(-1, 1) translate(-25.166667, -46.258621) "></path>
        </g>
    </g>
</svg>