<?xml version="1.0" encoding="UTF-8" standalone="no"?>
<svg width="102px" height="102px" viewBox="0 0 102 102" version="1.1" xmlns="http://www.w3.org/2000/svg" xmlns:xlink="http://www.w3.org/1999/xlink">
    <!-- Generator: Sketch 40.1 (33804) - http://www.bohemiancoding.com/sketch -->
    <title>icon-connect</title>
    <desc>Created with Sketch.</desc>
    <defs></defs>
    <g id="Symbols" stroke="none" stroke-width="1" fill="none" fill-rule="evenodd" stroke-linecap="round" stroke-linejoin="round">
        <g id="icon-connect" stroke="#156E96" stroke-width="2">
            <path d="M77.0806667,78.6374 C84.4197333,71.7087333 89,61.8895333 89,51 C89,30.0126 71.9874,13 51,13 C30.0126,13 13,30.0126 13,51 C13,71.9874 30.0126,89 51,89 L51,77.6" id="Shape"></path>
            <path d="M51,68.7333333 L51,68.7333333 C42.6058,68.7333333 35.8,61.9275333 35.8,53.5333333 L35.8,40.8666667 L66.2,40.8666667 L66.2,53.5333333 C66.2,61.9275333 59.3942,68.7333333 51,68.7333333 L51,68.7333333 Z" id="Shape"></path>
            <path d="M42.1333333,40.8666667 L42.1333333,30.7333333" id="Shape"></path>
            <path d="M59.8666667,40.8666667 L59.8666667,30.7333333" id="Shape"></path>
        </g>
    </g>
</svg>