<?xml version="1.0" encoding="UTF-8" standalone="no"?>
<svg width="62px" height="62px" viewBox="0 0 62 62" version="1.1" xmlns="http://www.w3.org/2000/svg" xmlns:xlink="http://www.w3.org/1999/xlink">
    <!-- Generator: Sketch 40.1 (33804) - http://www.bohemiancoding.com/sketch -->
    <title>icon-speed</title>
    <desc>Created with Sketch.</desc>
    <defs></defs>
    <g id="Symbols" stroke="none" stroke-width="1" fill="none" fill-rule="evenodd" stroke-linecap="round" stroke-linejoin="round">
        <g id="icon-speed" stroke="#004089">
            <path d="M31,21 L31,25" id="Shape" stroke-width="2"></path>
            <path d="M47.971,28.029 L45.142,30.858" id="Shape" stroke-width="2"></path>
            <path d="M55,45 L51,45" id="Shape" stroke-width="2"></path>
            <path d="M14.029,28.029 L16.858,30.858" id="Shape" stroke-width="2"></path>
            <path d="M7,45 L11,45" id="Shape" stroke-width="2"></path>
            <path d="M28.879,40.473 L23.2,28.352" id="Shape" stroke-width="2"></path>
            <circle id="Oval" stroke-width="1.99996818" transform="translate(30.999100, 44.999900) rotate(-70.104517) translate(-30.999100, -44.999900) " cx="30.9991" cy="44.9999" r="4.99992045"></circle>
            <path d="M56.372,61 C59.299,56.368 61,50.884 61,45 C61,28.431 47.569,15 31,15 C14.431,15 1,28.431 1,45 C1,50.884 2.701,56.368 5.628,61 L56.372,61 L56.372,61 Z" id="Shape" stroke-width="2"></path>
        </g>
    </g>
</svg>