<?xml version="1.0" encoding="utf-8"?>
<!-- Generator: Adobe Illustrator 21.0.0, SVG Export Plug-In . SVG Version: 6.00 Build 0)  -->
<svg version="1.1" id="Layer_1" xmlns="http://www.w3.org/2000/svg" xmlns:xlink="http://www.w3.org/1999/xlink" x="0px" y="0px"
	 viewBox="0 0 62 60" style="enable-background:new 0 0 62 60;" xml:space="preserve">
<style type="text/css">
	.st0{fill:none;stroke:#37215A;stroke-width:2;}
</style>
<path class="st0" d="M53,11H9"/>
<rect id="stroke-width_x3D__x22_2_x22_" x="16" y="36" class="st0" width="10" height="10"/>
<polyline class="st0" points="7,34 7,59 35,59 35,41 47,41 47,59 55,59 55,34 "/>
<path class="st0" d="M53,11V1H9v10L1,21c0,3.9,3.1,7,7,7c2.2,0,4.2-1,5.5-2.7C14.8,27,16.8,28,19,28c2.6,0,4.8-1.4,6-3.4
	c1.2,2,3.4,3.4,6,3.4s4.8-1.4,6-3.4c1.2,2,3.4,3.4,6,3.4c2.2,0,4.2-1,5.5-2.7C49.8,27,51.8,28,54,28c3.9,0,7-3.1,7-7L53,11L53,11z"
	/>
</svg>
