<?xml version="1.0" encoding="utf-8"?>
<!-- Generator: Adobe Illustrator 20.1.0, SVG Export Plug-In . SVG Version: 6.00 Build 0)  -->
<svg version="1.1" id="Layer_1" xmlns="http://www.w3.org/2000/svg" xmlns:xlink="http://www.w3.org/1999/xlink" x="0px" y="0px"
	 viewBox="0 0 52 52" style="enable-background:new 0 0 52 52;" xml:space="preserve">
<style type="text/css">
	.st0{fill:none;stroke:#FFFFFF;stroke-width:1.5;}
</style>
<title>icon-payments</title>
<desc>Created with Sketch.</desc>
<g id="Symbols">
	<g id="icon-payments">
		<polyline id="Shape" class="st0" points="29.7,34.3 3,34.3 3,12.7 49,12.7 49,34.3 44.1,34.3 		"/>
		<path id="Shape_1_" class="st0" d="M12.9,12.7v-5c0-1.8,1.5-3.3,3.3-3.3l0,0c1.8,0,3.3,1.5,3.3,3.3v5"/>
		<path id="Shape_2_" class="st0" d="M19.4,12.7V6c0-1.8,1.5-3.3,3.3-3.3l0,0C24.5,2.7,26,4.2,26,6v6.7"/>
		<path id="Shape_3_" class="st0" d="M26,12.7V4.3C26,2.5,27.5,1,29.3,1l0,0c1.8,0,3.3,1.5,3.3,3.3v8.3"/>
		<path id="Shape_4_" class="st0" d="M32.6,12.7V6c0-1.8,1.5-3.3,3.3-3.3l0,0c1.8,0,3.3,1.5,3.3,3.3v6.7"/>
		<ellipse id="Shape_5_" class="st0" cx="26" cy="23.5" rx="4.1" ry="4.2"/>
		<path id="Shape_6_" class="st0" d="M16.1,19H9.6"/>
		<path id="Shape_7_" class="st0" d="M12.9,34.3v0.8c0,8.8,7,15.8,15.6,15.8l0,0c8.6,0,15.6-7.1,15.6-15.8v-0.8v-15
			c-3.7,0-6.6,2.9-6.6,6.7v5c-5.1,0-9.9,3.6-9.9,8.3"/>
	</g>
</g>
</svg>
