<?xml version="1.0" encoding="UTF-8"?>
<svg width="32px" height="32px" viewBox="0 0 32 32" version="1.1" xmlns="http://www.w3.org/2000/svg" xmlns:xlink="http://www.w3.org/1999/xlink">
    <!-- Generator: Sketch 40.2 (33826) - http://www.bohemiancoding.com/sketch -->
    <title>icons-social-twitter</title>
    <desc>Created with Sketch.</desc>
    <defs></defs>
    <g id="Symbols" stroke="none" stroke-width="1" fill="none" fill-rule="evenodd">
        <g id="icons-social-twitter" fill="#243741">
            <path d="M15.9981119,1 C7.72909901,1 1,7.72985424 1,15.9988672 C1,24.270901 7.72909901,31 15.9981119,31 C24.2701458,31 31,24.270901 31,15.9988672 C31,7.72985424 24.2701458,1 15.9981119,1 L15.9981119,1 Z M22.6924704,12.5678574 C22.697757,12.7151273 22.7007779,12.865418 22.7007779,13.016464 C22.7007779,17.5772978 19.2289857,22.8367193 12.8775017,22.8367193 C10.9274979,22.8367193 9.11268031,22.2680311 7.58485009,21.2854769 C7.85597765,21.3179518 8.13012612,21.3353221 8.40805075,21.3353221 C10.0272638,21.3353221 11.5143116,20.7840042 12.6970017,19.8573371 C11.1865418,19.8278831 9.91246885,18.8309795 9.47292501,17.4587267 C9.68212371,17.5002643 9.89736425,17.5206555 10.1216675,17.5206555 C10.4343328,17.5206555 10.7409561,17.4798731 11.0302092,17.3998187 C9.45177857,17.0841326 8.26002568,15.6892229 8.26002568,14.0163885 C8.26002568,14.0012839 8.26002568,13.9869345 8.2630466,13.9718299 C8.72600257,14.231629 9.26070538,14.3849407 9.82712786,14.402311 C8.90046069,13.7860434 8.28947965,12.7272109 8.28947965,11.5294162 C8.28947965,10.898044 8.46091685,10.3051884 8.75621177,9.79465297 C10.4577449,11.8836191 13.0043803,13.2581376 15.8712333,13.4023865 C15.8123254,13.1486293 15.7828714,12.8865645 15.7828714,12.6146817 C15.7828714,10.7092365 17.3288271,9.16328072 19.2350276,9.16328072 C20.2289102,9.16328072 21.1253682,9.58243335 21.7537195,10.2515671 C22.5414244,10.0982554 23.282305,9.81202326 23.949173,9.41401707 C23.6893739,10.2221131 23.1433426,10.898044 22.4296503,11.3255041 C23.1289933,11.243184 23.7958613,11.0573975 24.412129,10.783249 C23.9521939,11.4735292 23.364625,12.0807341 22.6924704,12.5678574 L22.6924704,12.5678574 Z" id="icon-twiter"></path>
        </g>
    </g>
</svg>