<?xml version="1.0" encoding="UTF-8"?>
<svg width="32px" height="32px" viewBox="0 0 32 32" version="1.1" xmlns="http://www.w3.org/2000/svg" xmlns:xlink="http://www.w3.org/1999/xlink">
    <!-- Generator: Sketch 40.2 (33826) - http://www.bohemiancoding.com/sketch -->
    <title>icons-social-instagram</title>
    <desc>Created with Sketch.</desc>
    <defs></defs>
    <g id="Symbols" stroke="none" stroke-width="1" fill="none" fill-rule="evenodd">
        <g id="icons-social-instagram" fill="#243741">
            <path d="M16.3061224,13.1093125 C14.7442857,13.1093125 13.4744898,14.4061875 13.4744898,15.9999375 C13.4744898,17.5943125 14.744898,18.8905625 16.3061224,18.8905625 C17.8673469,18.8905625 19.1377551,17.5943125 19.1377551,15.9999375 C19.1377551,14.4061875 17.8679592,13.1093125 16.3061224,13.1093125" id="Fill-1"></path>
            <path d="M21.5770612,12.2049375 C21.3737959,12.4118125 21.0933878,12.5305625 20.8062449,12.5305625 C20.5197143,12.5305625 20.2374694,12.4118125 20.0360408,12.2049375 C19.8327755,11.9974375 19.7152245,11.7105625 19.7152245,11.4180625 C19.7152245,11.1243125 19.8321633,10.8368125 20.0360408,10.6299375 C20.2380816,10.4224375 20.5197143,10.3043125 20.8062449,10.3043125 C21.0933878,10.3043125 21.3744082,10.4224375 21.5770612,10.6299375 C21.7803265,10.8368125 21.8966531,11.1243125 21.8966531,11.4180625 C21.8966531,11.7099375 21.7803265,11.9974375 21.5770612,12.2049375 M16.3062449,20.4086875 C13.9246122,20.4086875 11.9874694,18.4311875 11.9874694,15.9999375 C11.9874694,13.5693125 13.9246122,11.5918125 16.3062449,11.5918125 C18.6872653,11.5918125 20.6250204,13.5693125 20.6250204,15.9999375 C20.6250204,18.4311875 18.6872653,20.4086875 16.3062449,20.4086875 M20.0611429,8.9630625 L12.5513469,8.9630625 C10.8205306,8.9630625 9.41297959,10.4005625 9.41297959,12.1668125 L9.41297959,19.8330625 C9.41297959,21.5999375 10.8205306,23.0368125 12.5513469,23.0368125 L20.0611429,23.0368125 C21.7913469,23.0368125 23.198898,21.5999375 23.198898,19.8330625 L23.198898,12.1668125 C23.198898,10.4005625 21.7913469,8.9630625 20.0611429,8.9630625" id="Fill-3"></path>
            <path d="M24.5545093,19.833125 C24.5545093,22.43625 22.4364284,24.555 19.8327327,24.555 L12.1672673,24.555 C9.56357159,24.555 7.44549072,22.436875 7.44549072,19.833125 L7.44549072,12.166875 C7.44549072,9.563125 9.56357159,7.445625 12.1672673,7.445625 L19.8327327,7.445625 C22.4364284,7.445625 24.5545093,9.563125 24.5545093,12.166875 L24.5545093,19.833125 Z M15.9996875,1 C7.71611008,1 1,7.715625 1,16 C1,24.284375 7.71611008,31 15.9996875,31 C24.2838899,31 31,24.284375 31,16 C31,7.715625 24.2838899,1 15.9996875,1 L15.9996875,1 Z" id="Fill-5"></path>
        </g>
    </g>
</svg>