<?xml version="1.0" encoding="UTF-8"?>
<svg width="32px" height="32px" viewBox="0 0 32 32" version="1.1" xmlns="http://www.w3.org/2000/svg" xmlns:xlink="http://www.w3.org/1999/xlink">
    <!-- Generator: Sketch 40.2 (33826) - http://www.bohemiancoding.com/sketch -->
    <title>icons-social-facebook</title>
    <desc>Created with Sketch.</desc>
    <defs></defs>
    <g id="Symbols" stroke="none" stroke-width="1" fill="none" fill-rule="evenodd">
        <g id="icons-social-facebook" fill="#243741">
            <path d="M15.9981119,1 C7.72909901,1 1,7.72985424 1,15.9988672 C1,24.270901 7.72909901,31 15.9981119,31 C24.2701458,31 31,24.270901 31,15.9988672 C31,7.72985424 24.2701458,1 15.9981119,1 L15.9981119,1 Z M19.7304584,16.5267729 L17.2903104,16.5267729 L17.2903104,25.2270221 L13.6735141,25.2270221 L13.6735141,16.5267729 L11.9538554,16.5267729 L11.9538554,13.4529869 L13.6735141,13.4529869 L13.6735141,11.4644664 C13.6735141,10.0423684 14.3494449,7.81519523 17.3227853,7.81519523 L20.001586,7.82652368 L20.001586,10.809682 L18.057624,10.809682 C17.738917,10.809682 17.2903104,10.9690356 17.2903104,11.6472321 L17.2903104,13.4560079 L20.0461446,13.4560079 L19.7304584,16.5267729 Z" id="icon-facebook"></path>
        </g>
    </g>
</svg>