<?xml version="1.0" encoding="UTF-8"?>
<svg width="32px" height="32px" viewBox="0 0 32 32" version="1.1" xmlns="http://www.w3.org/2000/svg" xmlns:xlink="http://www.w3.org/1999/xlink">
    <!-- Generator: Sketch 40.2 (33826) - http://www.bohemiancoding.com/sketch -->
    <title>icons-social-google</title>
    <desc>Created with Sketch.</desc>
    <defs></defs>
    <g id="Symbols" stroke="none" stroke-width="1" fill="none" fill-rule="evenodd">
        <g id="icons-social-google" fill="#243741">
            <path d="M16,1 C7.71556818,1 1,7.71556818 1,16 C1,24.2844318 7.71556818,31 16,31 C24.2844318,31 31,24.2844318 31,16 C31,7.71556818 24.2844318,1 16,1 L16,1 Z M19.7673864,16 C19.7673864,19.7639773 16.7044886,22.8261932 12.9405114,22.8261932 C9.17653409,22.8261932 6.11431818,19.7639773 6.11431818,16 C6.11431818,12.2360227 9.17653409,9.17380682 12.9405114,9.17380682 C14.4592614,9.17380682 15.8980682,9.6625 17.1013068,10.5873864 L15.5165909,12.6488636 C14.7715341,12.0761364 13.8805682,11.7739205 12.9405114,11.7739205 C10.6100568,11.7739205 8.71443182,13.6695455 8.71443182,16 C8.71443182,18.3297727 10.6100568,20.2260795 12.9405114,20.2260795 C14.8173864,20.2260795 16.4121591,18.99625 16.9622159,17.3003977 L12.9405114,17.3003977 L12.9405114,14.6996023 L19.7673864,14.6996023 L19.7673864,16 Z M26.9544318,16.8502273 L24.9988068,16.8502273 L24.9988068,18.8058523 L23.2981818,18.8058523 L23.2981818,16.8502273 L21.3434091,16.8502273 L21.3434091,15.1497727 L23.2981818,15.1497727 L23.2981818,13.1941477 L24.9988068,13.1941477 L24.9988068,15.1497727 L26.9544318,15.1497727 L26.9544318,16.8502273 Z" id="icon-google-plus"></path>
        </g>
    </g>
</svg>