<?xml version="1.0" encoding="UTF-8"?>
<svg width="32px" height="32px" viewBox="0 0 32 32" version="1.1" xmlns="http://www.w3.org/2000/svg" xmlns:xlink="http://www.w3.org/1999/xlink">
    <!-- Generator: Sketch 40.2 (33826) - http://www.bohemiancoding.com/sketch -->
    <title>icons-social-linkedin</title>
    <desc>Created with Sketch.</desc>
    <defs></defs>
    <g id="Symbols" stroke="none" stroke-width="1" fill="none" fill-rule="evenodd">
        <g id="icons-social-linkedin" fill="#243741">
            <path d="M23.854375,22.79875 L20.29875,22.79875 L20.29875,18.07625 C20.29875,16.855 19.811875,16.025625 18.70125,16.025625 C17.85625,16.025625 17.405625,16.58625 17.184375,17.128125 C17.101875,17.32125 17.1375,17.59 17.1375,17.8625 L17.1375,22.79875 L13.92,22.79875 C13.92,22.79875 13.959375,14.501875 13.92,13.71125 L17.1375,13.71125 L17.1375,15.144375 C17.5325,14.528125 18.48125,13.646875 20.10875,13.646875 C22.1275,13.646875 23.854375,14.93875 23.854375,17.728125 L23.854375,22.79875 Z M11.00375,12.92125 L10.98375,12.92125 C9.9525,12.92125 9.28875,12.075 9.28875,11.201875 C9.28875,10.313125 9.9725,9.56 11.02375,9.56 C12.070625,9.56 12.714375,10.351875 12.738125,11.240625 C12.738125,12.11375 12.070625,12.92125 11.00375,12.92125 L11.00375,12.92125 Z M9.630625,22.79875 L12.39625,22.79875 L12.39625,13.71125 L9.630625,13.71125 L9.630625,22.79875 Z M16.001875,1 C7.716875,1 1,7.71625 1,16.001875 C1,24.283125 7.716875,31 16.001875,31 C24.28375,31 31,24.283125 31,16.001875 C31,7.71625 24.28375,1 16.001875,1 L16.001875,1 Z" id="icon-linkedin"></path>
        </g>
    </g>
</svg>