<?xml version="1.0" encoding="UTF-8"?>
<svg width="30px" height="30px" viewBox="0 0 30 30" version="1.1" xmlns="http://www.w3.org/2000/svg" xmlns:xlink="http://www.w3.org/1999/xlink">
    <!-- Generator: Sketch 40 (33762) - http://www.bohemiancoding.com/sketch -->
    <title>icon-account</title>
    <desc>Created with Sketch.</desc>
    <defs>
        <circle id="path-1" cx="15" cy="15" r="13"></circle>
        <mask id="mask-2" maskContentUnits="userSpaceOnUse" maskUnits="objectBoundingBox" x="0" y="0" width="26" height="26" fill="white">
            <use xlink:href="#path-1"></use>
        </mask>
        <mask id="mask-4" maskContentUnits="userSpaceOnUse" maskUnits="objectBoundingBox" x="0" y="0" width="26" height="26" fill="white">
            <use xlink:href="#path-1"></use>
        </mask>
    </defs>
    <g id="Symbols" stroke="none" stroke-width="1" fill="none" fill-rule="evenodd">
        <g id="icon-account">
            <mask id="mask-3" fill="white">
                <use xlink:href="#path-1"></use>
            </mask>
            <g id="Shape" stroke="#243741" mask="url(#mask-2)" stroke-width="3" stroke-linecap="round" stroke-linejoin="round">
                <use mask="url(#mask-4)" xlink:href="#path-1"></use>
            </g>
            <path d="M23.2727273,25.0283182 L23.2727273,24.1484545 C23.2727273,22.8762273 22.5908182,21.7015 21.4864091,21.0704091 L17.9580909,19.0465455" id="Shape" stroke="#243741" stroke-width="2" stroke-linejoin="round" mask="url(#mask-3)"></path>
            <path d="M12.0425,19.0459545 L8.51418182,21.0698182 C7.40918182,21.7015 6.72727273,22.8762273 6.72727273,24.1484545 L6.72727273,25.0283182" id="Shape" stroke="#243741" stroke-width="2" stroke-linejoin="round" mask="url(#mask-3)"></path>
            <path d="M15,20.3181818 L15,20.3181818 C12.3893636,20.3181818 10.2727273,17.6106364 10.2727273,15 L10.2727273,12.6363636 C10.2727273,10.0257273 12.3893636,7.90909091 15,7.90909091 L15,7.90909091 C17.6106364,7.90909091 19.7272727,10.0257273 19.7272727,12.6363636 L19.7272727,15 C19.7272727,17.6106364 17.6106364,20.3181818 15,20.3181818 L15,20.3181818 Z" id="Shape" stroke="#243741" stroke-width="2" stroke-linecap="round" stroke-linejoin="round" mask="url(#mask-3)"></path>
        </g>
    </g>
</svg>