<?xml version="1.0" encoding="UTF-8"?>
<svg width="14px" height="14px" viewBox="0 0 14 14" version="1.1" xmlns="http://www.w3.org/2000/svg" xmlns:xlink="http://www.w3.org/1999/xlink">
    <!-- Generator: Sketch 40.2 (33826) - http://www.bohemiancoding.com/sketch -->
    <title>icon-external</title>
    <desc>Created with Sketch.</desc>
    <defs></defs>
    <g id="Symbols" stroke="none" stroke-width="1" fill="none" fill-rule="evenodd">
        <g id="icon-external" fill="#243741">
            <path d="M6.2173913,1 C6.36141376,1 6.48437449,1.05326651 6.58627717,1.15980114 C6.68817986,1.26633576 6.73913043,1.39488561 6.73913043,1.54545455 C6.73913043,1.69602348 6.68817986,1.82457333 6.58627717,1.93110795 C6.48437449,2.03764258 6.36141376,2.09090909 6.2173913,2.09090909 L2.56521739,2.09090909 C2.42119493,2.09090909 2.29823421,2.1441756 2.19633152,2.25071023 C2.09442884,2.35724485 2.04347826,2.4857947 2.04347826,2.63636364 L2.04347826,11.3636364 C2.04347826,11.5142053 2.09442884,11.6427551 2.19633152,11.7492898 C2.29823421,11.8558244 2.42119493,11.9090909 2.56521739,11.9090909 L11.4347826,11.9090909 C11.5788051,11.9090909 11.7017658,11.8558244 11.8036685,11.7492898 C11.9055712,11.6427551 11.9565217,11.5142053 11.9565217,11.3636364 L11.9565217,7.54545455 C11.9565217,7.39488561 12.0074723,7.26633576 12.109375,7.15980114 C12.2112777,7.05326651 12.3342384,7 12.4782609,7 C12.6222833,7 12.7452441,7.05326651 12.8471467,7.15980114 C12.9490494,7.26633576 13,7.39488561 13,7.54545455 L13,11.3636364 C13,11.8153432 12.8471483,12.2009927 12.5414402,12.5205966 C12.2357322,12.8402005 11.86685,13 11.4347826,13 L2.56521739,13 C2.13315001,13 1.76426783,12.8402005 1.45855978,12.5205966 C1.15285173,12.2009927 1,11.8153432 1,11.3636364 L1,2.63636364 C1,2.18465683 1.15285173,1.79900728 1.45855978,1.47940341 C1.76426783,1.15979954 2.13315001,1 2.56521739,1 L6.2173913,1 Z M9.5,1 L12.5,1 C12.6380215,1 12.7558589,1.04882764 12.8535156,1.14648438 C12.9511724,1.24414111 13,1.36197848 13,1.5 L13,4.5 C13,4.63802152 12.9511724,4.75585889 12.8535156,4.85351562 C12.7558589,4.95117236 12.6380215,5 12.5,5 C12.3619785,5 12.2441411,4.95117236 12.1464844,4.85351562 C12.0488276,4.75585889 12,4.63802152 12,4.5 L12,2.70703125 L7.8515625,6.85546875 C7.75520785,6.9518234 7.63802152,7 7.5,7 C7.35677012,7 7.23763068,6.95247443 7.14257813,6.85742187 C7.04752557,6.76236932 7,6.64322988 7,6.5 C7,6.36197848 7.0481766,6.24479215 7.14453125,6.1484375 L11.2929688,2 L9.5,2 C9.36197848,2 9.24414111,1.95117236 9.14648438,1.85351562 C9.04882764,1.75585889 9,1.63802152 9,1.5 C9,1.36197848 9.04882764,1.24414111 9.14648438,1.14648438 C9.24414111,1.04882764 9.36197848,1 9.5,1 L9.5,1 Z" id=""></path>
        </g>
    </g>
</svg>