<?xml version="1.0" encoding="UTF-8"?>
<svg width="32px" height="32px" viewBox="0 0 32 32" version="1.1" xmlns="http://www.w3.org/2000/svg" xmlns:xlink="http://www.w3.org/1999/xlink">
    <!-- Generator: Sketch 40.2 (33826) - http://www.bohemiancoding.com/sketch -->
    <title>icons-social-youtube</title>
    <desc>Created with Sketch.</desc>
    <defs></defs>
    <g id="Symbols" stroke="none" stroke-width="1" fill="none" fill-rule="evenodd">
        <g id="icons-social-youtube" fill="#243741">
            <polygon id="Fill-1" points="8.8795 17.1065625 10.0695 17.1065625 10.0695 23.5446875 11.1945 23.5446875 11.1945 17.1065625 12.40575 17.1065625 12.40575 16.0528125 8.8795 16.0528125"></polygon>
            <path d="M18.2920625,21.9485 C18.2920625,22.45225 18.1451875,22.701 17.8533125,22.701 C17.6864375,22.701 17.5176875,22.621625 17.3476875,22.45225 L17.3476875,19.050375 C17.5176875,18.884125 17.6864375,18.80475 17.8533125,18.80475 C18.1439375,18.80475 18.2920625,19.06225 18.2920625,19.566 L18.2920625,21.9485 Z M18.3939375,17.8935 C18.0220625,17.8935 17.6745625,18.09725 17.3476875,18.499125 L17.3476875,16.052875 L16.3364375,16.052875 L16.3364375,23.54475 L17.3476875,23.54475 L17.3476875,23.0035 C17.6864375,23.420375 18.0345625,23.621 18.3939375,23.621 C18.7958125,23.621 19.0670625,23.4085 19.2014375,22.992875 C19.2689375,22.756625 19.3039375,22.38475 19.3039375,21.869125 L19.3039375,19.646625 C19.3039375,19.117875 19.2689375,18.749125 19.2014375,18.52475 C19.0670625,18.106625 18.7958125,17.8935 18.3939375,17.8935 L18.3939375,17.8935 Z" id="Fill-2"></path>
            <path d="M14.4499375,22.227375 C14.2249375,22.544875 14.0136875,22.7005 13.8099375,22.7005 C13.6749375,22.7005 13.5986875,22.621125 13.5730625,22.46425 C13.5643125,22.431125 13.5643125,22.308625 13.5643125,22.07175 L13.5643125,17.962375 L12.5524375,17.962375 L12.5524375,22.376125 C12.5524375,22.769875 12.5868125,23.03675 12.6424375,23.206125 C12.7443125,23.487375 12.9693125,23.621125 13.2943125,23.621125 C13.6661875,23.621125 14.0480625,23.396125 14.4499375,22.934875 L14.4499375,23.544875 L15.4624375,23.544875 L15.4624375,17.962375 L14.4499375,17.962375 L14.4499375,22.227375 Z" id="Fill-4"></path>
            <path d="M15.318875,12.805625 C15.647,12.805625 15.806375,12.545 15.806375,12.021875 L15.806375,9.65 C15.806375,9.12875 15.647,8.8675 15.318875,8.8675 C14.9895,8.8675 14.83075,9.12875 14.83075,9.65 L14.83075,12.021875 C14.83075,12.545 14.9895,12.805625 15.318875,12.805625" id="Fill-6"></path>
            <path d="M24.075,24.03625 C23.87,24.92625 23.143125,25.5825 22.26625,25.681875 C20.190625,25.9125 18.09125,25.91375 15.999375,25.9125 C13.90875,25.91375 11.808125,25.9125 9.7325,25.681875 C8.855625,25.5825 8.12875,24.92625 7.92375,24.03625 C7.6325,22.77 7.6325,21.385625 7.6325,20.08125 C7.6325,18.77625 7.635625,17.393125 7.928125,16.125 C8.131875,15.235 8.86,14.57875 9.735625,14.48 C11.810625,14.24875 13.911875,14.2475 16.001875,14.24875 C18.094375,14.2475 20.19375,14.24875 22.269375,14.48 C23.14625,14.57875 23.874375,15.235 24.079375,16.125 C24.370625,17.393125 24.3675,18.77625 24.3675,20.08125 C24.3675,21.385625 24.3675,22.77 24.075,24.03625 L24.075,24.03625 Z M11.075,6.0875 L11.879375,9.059375 L12.653125,6.0875 L13.799375,6.0875 L12.435625,10.590625 L12.435625,13.656875 L11.3025,13.656875 L11.3025,10.590625 C11.199375,10.04875 10.973125,9.2525 10.60875,8.19625 C10.370625,7.49375 10.121875,6.789375 9.881875,6.0875 L11.075,6.0875 Z M13.80875,9.855 C13.80875,9.2525 13.91,8.811875 14.1275,8.525625 C14.410625,8.140625 14.809375,7.9475 15.31875,7.9475 C15.83,7.9475 16.22875,8.140625 16.510625,8.525625 C16.724375,8.810625 16.828125,9.2525 16.828125,9.855 L16.828125,11.83 C16.828125,12.43 16.724375,12.875 16.510625,13.156875 C16.22875,13.54125 15.83,13.735 15.31875,13.735 C14.809375,13.735 14.410625,13.54125 14.1275,13.156875 C13.91,12.875 13.80875,12.43 13.80875,11.83 L13.80875,9.855 Z M17.66875,8.01625 L18.6875,8.01625 L18.6875,12.16875 C18.6875,12.40875 18.6875,12.533125 18.7,12.565625 C18.721875,12.725 18.803125,12.805625 18.939375,12.805625 C19.145,12.805625 19.35875,12.646875 19.585,12.3275 L19.585,8.01625 L20.6075,8.01625 L20.6075,13.656875 L19.585,13.656875 L19.585,13.04125 C19.178125,13.50875 18.79125,13.735 18.418125,13.735 C18.088125,13.735 17.861875,13.6 17.75875,13.315625 C17.703125,13.144375 17.66875,12.875 17.66875,12.47625 L17.66875,8.01625 Z M16.00125,1 C7.715,1 1,7.715 1,16.00125 C1,24.285 7.715,31 16.00125,31 C24.285,31 31,24.285 31,16.00125 C31,7.715 24.285,1 16.00125,1 L16.00125,1 Z" id="Fill-8"></path>
            <path d="M22.110375,20.09475 L21.099125,20.09475 L21.099125,19.57975 C21.099125,19.06225 21.2685,18.80475 21.605375,18.80475 C21.941,18.80475 22.110375,19.06225 22.110375,19.57975 L22.110375,20.09475 Z M21.614125,17.8935 C21.097875,17.8935 20.696,18.0835 20.4035,18.466 C20.18975,18.749125 20.09225,19.185375 20.09225,19.781625 L20.09225,21.73725 C20.09225,22.329125 20.201625,22.76975 20.415375,23.0485 C20.707875,23.431 21.111,23.621 21.63975,23.621 C22.169125,23.621 22.582875,23.421625 22.862875,23.016 C22.986,22.83725 23.065375,22.6335 23.099125,22.410375 C23.1085,22.3085 23.120375,22.08475 23.120375,21.7585 L23.120375,21.611625 L22.08975,21.611625 C22.08975,22.016 22.076,22.241 22.06725,22.296625 C22.0085,22.566 21.86475,22.701 21.614125,22.701 C21.2685,22.701 21.097875,22.4435 21.097875,21.927875 L21.097875,20.93725 L23.120375,20.93725 L23.120375,19.781625 C23.120375,19.185375 23.01975,18.749125 22.80725,18.466 C22.525375,18.0835 22.122875,17.8935 21.614125,17.8935 L21.614125,17.8935 Z" id="Fill-10"></path>
        </g>
    </g>
</svg>