<?xml version="1.0" encoding="UTF-8"?>
<svg width="160px" height="61px" viewBox="0 0 160 61" version="1.1" xmlns="http://www.w3.org/2000/svg" xmlns:xlink="http://www.w3.org/1999/xlink">
    <!-- Generator: Sketch 40 (33762) - http://www.bohemiancoding.com/sketch -->
    <title>sage logo</title>
    <desc>Created with Sketch.</desc>
    <defs></defs>
    <g id="Symbols" stroke="none" stroke-width="1" fill="none" fill-rule="evenodd">
        <g id="sage-logo" fill="#00DC00">
            <g>
                <path d="M11.068,12.8978287 C11.068,9.82184722 15.8274366,8.16750463 20.2167324,8.16750463 C27.2296901,8.16750463 31.851662,10.9780231 33.1958873,11.9122269 L39.0877183,6.00539352 C37.3429296,4.5939213 30.8482817,0.000282407407 20.2167324,0.000282407407 C10.5294085,0.000282407407 1.81447887,5.07853241 1.81447887,13.2220324 C1.81447887,25.7168657 16.8539155,25.7134769 23.1333521,26.3285602 C26.9372958,26.7007731 30.4105352,26.9628472 30.4105352,30.7019213 C30.4105352,34.1777917 25.0989859,36.1117176 20.9863099,36.1117176 C14.2854648,36.1117176 10.2696901,33.9038565 6.34011268,30.3630324 L-0.000169014085,36.7273657 C5.81560563,42.3563102 13.1829296,44.836412 20.4415211,44.836412 C31.6826479,44.836412 39.8995493,39.8632176 39.8995493,29.8569583 C39.8995493,23.224338 35.4527887,19.2751528 26.3446197,18.1342269 C22.4246197,17.6434028 11.068,18.0856528 11.068,12.8978287 Z" id="s"></path>
                <path d="M68.5929014,28.2954148 C68.5929014,36.5993222 62.6903662,36.1525537 57.4182535,36.1525537 C52.0824789,36.1525537 48.6745915,34.7269611 48.6745915,31.0048315 C48.6745915,27.5351741 51.4503662,26.3852111 57.1850141,26.3852111 L68.5929014,26.3852111 L68.5929014,28.2954148 Z M58.7286761,-0.000112962963 C48.9534648,-0.000112962963 42.6165634,4.98946111 41.4374085,5.99652593 L47.3630423,11.9372481 C48.5433239,10.9979611 52.564169,8.21737778 58.8036056,8.21737778 C66.2909296,8.21737778 68.5264225,11.2103315 68.5264225,14.5952667 L68.5264225,18.8110444 L55.1793803,18.8189519 C50.2452958,18.8189519 40.5382535,20.0649333 40.5382535,30.9534333 C40.5382535,38.9512111 45.1134648,44.8377111 56.0362817,44.8377111 C61.519662,44.8377111 65.6655775,43.0557204 68.5264225,39.6205167 L68.5264225,43.9616833 L78.2148732,43.9616833 L78.2148732,15.2397204 C78.2148732,5.1950537 72.0712113,-0.000112962963 58.7286761,-0.000112962963 L58.7286761,-0.000112962963 Z" id="a"></path>
                <path d="M108.125803,22.3940602 C108.125803,25.7411528 108.070592,28.220125 107.801296,29.4819213 C107.205803,32.270412 104.044676,35.9349306 98.3072113,35.9349306 C96.8700282,35.9349306 89.5100282,35.1086065 88.6858028,28.7165972 C88.5196056,27.4367269 88.3934085,25.7411528 88.3934085,22.3940602 C88.3934085,17.4163472 88.5973521,15.8348657 88.852,14.5702454 C89.3590423,12.0630324 92.628338,8.37535648 98.3072113,8.37535648 C105.260451,8.37535648 107.494254,13.1254491 107.821014,14.9610972 C108.047493,16.2313657 108.125803,19.0469676 108.125803,22.3940602 L108.125803,22.3940602 Z M108.125803,0.92149537 L108.125803,5.74218981 C104.826648,1.89806019 100.887493,0.000282407407 95.5089014,0.000282407407 C86.3252394,0.000282407407 81.5962254,5.16381944 79.9950986,10.6622917 C79.400169,12.7052269 79.1950986,16.6075324 79.1950986,22.3748565 C79.1950986,27.808375 79.2452394,32.7505046 81.1297465,36.5505787 C83.7658028,41.8677454 90.1646761,44.8375417 95.5089014,44.8375417 C100.68862,44.8375417 105.083549,42.8239769 108.125803,39.3317269 L108.125803,42.0287176 C108.125803,45.199588 107.041859,47.2809306 105.019324,48.9268009 C102.992282,50.5771898 100.449746,51.5887731 96.9196056,51.5887731 C93.7190423,51.5887731 90.6497465,49.8378472 88.9015775,48.6189769 L82.3905915,55.1465417 C86.6114366,58.5783565 91.6587606,60.9149954 97.1055211,60.9601806 C102.877352,61.007625 107.521859,59.2544398 111.591718,56.0468565 C115.488056,52.9753935 117.944394,47.200162 117.944394,41.0747454 L117.944394,0.92149537 L108.125803,0.92149537 Z" id="g"></path>
                <path d="M128.598986,18.8827194 C128.598986,11.4554046 134.21307,7.86487685 140.267718,7.86487685 C146.320113,7.86487685 151.778704,11.5169694 151.778704,18.8827194 L128.598986,18.8827194 Z M139.196732,-0.000169444444 C126.859268,-0.000169444444 118.783775,8.48560833 118.783775,22.4811546 C118.783775,39.8531639 131.135324,44.8376546 139.956732,44.8376546 C151.130817,44.8376546 157.501521,37.3075435 157.501521,37.3075435 L151.817014,31.5938769 C148.801239,34.3100713 145.304338,35.9350435 140.096451,35.9350435 C133.220394,35.9350435 128.585465,31.9017009 128.585465,26.3851546 L159.227155,26.3851546 C159.227155,26.3851546 164.577014,-0.000169444444 139.196732,-0.000169444444 L139.196732,-0.000169444444 Z" id="e"></path>
            </g>
        </g>
    </g>
</svg>