<?xml version="1.0" encoding="utf-8"?>
<svg version="1.1" xmlns:xlink="http://www.w3.org/1999/xlink" width="12px" height="12px" xmlns="http://www.w3.org/2000/svg">
  <g transform="matrix(1 0 0 1 -352 -339 )">
    <path d="M 358 340  C 360.8 340  363 342.2  363 345  C 363 347.8  360.8 350  358 350  C 355.2 350  353 347.8  353 345  C 353 342.2  355.2 340  358 340  Z " fill-rule="nonzero" fill="#ffffff" stroke="none" />
    <path d="M 358 340  C 360.8 340  363 342.2  363 345  C 363 347.8  360.8 350  358 350  C 355.2 350  353 347.8  353 345  C 353 342.2  355.2 340  358 340  Z " stroke-width="2" stroke="#333333" fill="none" />
  </g>
</svg>