<svg id="Sage_master" data-name="Sage master" xmlns="http://www.w3.org/2000/svg" viewBox="0 0 283.46 107.93"><defs><style>.cls-1{fill:#fff;}</style></defs><title>Sage_logo_bright_white</title><path class="cls-1" d="M310.19,71.58c-21.9,0-36.23,15-36.23,39.8,0,30.76,21.92,39.58,37.58,39.58a43,43,0,0,0,31.14-13.33l-10.09-10.12c-5.35,4.81-11.56,7.69-20.8,7.69-12.21,0-20.43-7.14-20.43-16.91h54.39s9.5-46.71-35.55-46.71M291.38,105c0-13.15,10-19.51,20.71-19.51S332.53,92,332.53,105H291.38Z" transform="translate(-63.12 -71.58)"/><path class="cls-1" d="M109.88,103.69c-7-.87-27.12-0.09-27.12-9.27C82.76,89,91.21,86,99,86a41.13,41.13,0,0,1,23,6.63L132.5,82.22c-3.1-2.5-14.62-10.63-33.5-10.63-17.19,0-32.66,9-32.66,23.41,0,22.12,26.7,22.12,37.84,23.2,6.75,0.66,12.92,1.12,12.92,7.74,0,6.15-9.43,9.58-16.73,9.58-11.89,0-19-3.91-26-10.18L63.12,136.61A51.6,51.6,0,0,0,99.4,151c20,0,34.54-8.8,34.54-26.52,0-11.74-7.89-18.74-24.06-20.75" transform="translate(-63.12 -71.58)"/><path class="cls-1" d="M167.36,71.58A48.84,48.84,0,0,0,136.67,82.2l10.52,10.52a33.08,33.08,0,0,1,20.31-6.59c13.29,0,17.26,5.3,17.26,11.29v7.46H161.06c-8.76,0-26,2.21-26,21.48,0,14.16,8.12,24.58,27.51,24.58,9.73,0,17.09-3.15,22.17-9.24v7.69h17.2V98.57c0-17.78-10.91-27-34.59-27m17.51,50.1c0,14.7-10.48,13.91-19.83,13.91s-15.52-2.52-15.52-9.11c0-6.14,4.93-8.18,15.11-8.18h20.25v3.38Z" transform="translate(-63.12 -71.58)"/><path class="cls-1" d="M255,73.22v8.53c-5.86-6.81-12.85-10.17-22.39-10.17-16.3,0-24.7,9.14-27.54,18.88-1.06,3.62-1.42,10.53-1.42,20.74,0,9.62.09,18.37,3.43,25.1,4.68,9.41,16,14.67,25.52,14.67,9.19,0,17-3.56,22.39-9.75V146c0,5.61-1.92,9.3-5.51,12.21s-8.11,4.71-14.38,4.71c-5.68,0-11.13-3.1-14.23-5.26l-11.56,11.56c7.49,6.08,16.45,10.21,26.12,10.29a39.39,39.39,0,0,0,25.71-8.7c6.92-5.44,11.28-15.66,11.28-26.51V73.22H255Zm0,38c0,5.93-.1,10.31-0.58,12.55-1.06,4.94-6.67,11.43-16.85,11.43-2.55,0-15.62-1.46-17.08-12.78a84.89,84.89,0,0,1-.52-11.19c0-8.81.36-11.61,0.81-13.85,0.9-4.44,6.7-11,16.78-11,12.34,0,16.31,8.41,16.89,11.66a100.13,100.13,0,0,1,.54,13.16" transform="translate(-63.12 -71.58)"/></svg>