<?xml version="1.0" encoding="utf-8"?>
<!-- Generator: Adobe Illustrator 20.1.0, SVG Export Plug-In . SVG Version: 6.00 Build 0)  -->
<svg version="1.1" id="Sage_master" xmlns="http://www.w3.org/2000/svg" xmlns:xlink="http://www.w3.org/1999/xlink" x="0px"
	 y="0px" viewBox="0 0 283.5 107.9" style="enable-background:new 0 0 283.5 107.9;" xml:space="preserve">
<style type="text/css">
	.st0{fill:#00DC06;}
</style>
<title>Sage_logo_bright_green</title>
<path class="st0" d="M247.1,0c-21.9,0-36.2,15-36.2,39.8c0,30.8,21.9,39.6,37.6,39.6c11.8,0,23-4.8,31.1-13.3l-10.1-10.1
	c-5.4,4.8-11.6,7.7-20.8,7.7c-12.2,0-20.4-7.1-20.4-16.9h54.4C282.6,46.7,292.1,0,247.1,0 M228.3,33.4c0-13.2,10-19.5,20.7-19.5
	s20.4,6.5,20.4,19.5H228.3z"/>
<path class="st0" d="M46.8,32.1c-7-0.9-27.1-0.1-27.1-9.3c0-5.4,8.5-8.4,16.2-8.4c8.2-0.1,16.2,2.2,23,6.6l10.5-10.4
	C66.3,8.1,54.8,0,35.9,0C18.7,0,3.2,9,3.2,23.4c0,22.1,26.7,22.1,37.8,23.2c6.8,0.7,12.9,1.1,12.9,7.7c0,6.2-9.4,9.6-16.7,9.6
	c-11.9,0-19-3.9-26-10.2L0,65c9.7,9.4,22.8,14.5,36.3,14.4c20,0,34.5-8.8,34.5-26.5C70.8,41.2,62.9,34.2,46.8,32.1"/>
<path class="st0" d="M104.2,0c-11.1-0.1-22,3.7-30.7,10.6l10.5,10.5c5.9-4.4,13-6.7,20.3-6.6c13.3,0,17.3,5.3,17.3,11.3v7.5H97.9
	c-8.8,0-26,2.2-26,21.5c0,14.2,8.1,24.6,27.5,24.6c9.7,0,17.1-3.1,22.2-9.2v7.7h17.2V27C138.8,9.2,127.9,0,104.2,0 M121.7,50.1
	c0,14.7-10.5,13.9-19.8,13.9s-15.5-2.5-15.5-9.1c0-6.1,4.9-8.2,15.1-8.2h20.2L121.7,50.1L121.7,50.1z"/>
<path class="st0" d="M191.9,1.6v8.5C186,3.4,179,0,169.5,0c-16.3,0-24.7,9.1-27.5,18.9c-1.1,3.6-1.4,10.5-1.4,20.7
	c0,9.6,0.1,18.4,3.4,25.1c4.7,9.4,16,14.7,25.5,14.7c9.2,0,17-3.6,22.4-9.8v4.8c0,5.6-1.9,9.3-5.5,12.2s-8.1,4.7-14.4,4.7
	c-5.7,0-11.1-3.1-14.2-5.3l-11.6,11.6c7.5,6.1,16.4,10.2,26.1,10.3c9.3,0.2,18.4-2.8,25.7-8.7c6.9-5.4,11.3-15.7,11.3-26.5V1.6
	H191.9z M191.9,39.6c0,5.9-0.1,10.3-0.6,12.6c-1.1,4.9-6.7,11.4-16.9,11.4c-2.6,0-15.6-1.5-17.1-12.8c-0.4-3.7-0.6-7.5-0.5-11.2
	c0-8.8,0.4-11.6,0.8-13.8c0.9-4.4,6.7-11,16.8-11c12.3,0,16.3,8.4,16.9,11.7C191.8,30.8,192,35.2,191.9,39.6"/>
</svg>
