<svg xmlns="http://www.w3.org/2000/svg" width="56" height="56" viewBox="0 0 56 56"><defs><style>.cls-1,.cls-2{fill:#8246af;stroke:#fff;stroke-miterlimit:10;}.cls-1{stroke-width:0.5px;}.cls-2{stroke-width:0.25px;}</style></defs><title>Accounting_plum</title><g id="homepage"><g id="Accounting"><path class="cls-1" d="M25.93,35.16H9.47A3.13,3.13,0,0,1,6.36,32V10.28A3.13,3.13,0,0,1,9.47,7.15H39.9A3.14,3.14,0,0,1,43,10.28V26.48a1,1,0,1,0,2.07,0V10.28h0A5.21,5.21,0,0,0,39.9,5.08H9.47a5.2,5.2,0,0,0-5.19,5.21V32a5.2,5.2,0,0,0,5.19,5.21H25.93a1,1,0,0,0,0-2.07Z"/><path class="cls-1" d="M41.35,15.08V9.87a1,1,0,0,0-1-1H9.06a1,1,0,0,0-1,1v5.21a1,1,0,0,0,1,1H40.31A1,1,0,0,0,41.35,15.08Zm-2.07-1H10.09V10.91H39.27Z"/><path class="cls-1" d="M48.29,39h0l-.6-8.19a2.69,2.69,0,0,0-2.13-2.43h0a2.55,2.55,0,0,0-1.74.21A2.81,2.81,0,0,0,42,27.66a2.88,2.88,0,0,0-1.81.41,3,3,0,0,0-2-.91,3,3,0,0,0-1,.13V22.46a2.75,2.75,0,1,0-5.51,0h0v9.66c-.24,0-.47,0-.71,0h0a3.2,3.2,0,0,0-3.16,3.66h0A14.38,14.38,0,0,0,33,45a.49.49,0,0,1,.13.25v.85h0a2.66,2.66,0,0,0,2.66,2.66h7.7a2.65,2.65,0,0,0,2.66-2.64h0v-.83a.85.85,0,0,1,.2-.28l0,0,0,0A8.21,8.21,0,0,0,48.29,39Zm-18.46-3.5h0a1.14,1.14,0,0,1,.25-.91,1.16,1.16,0,0,1,.87-.4h0a5.3,5.3,0,0,1,.7,0V35h0a1,1,0,0,0,.86,1.89,2.09,2.09,0,0,0,1.13-1.29h0a1.8,1.8,0,0,0,.09-.55h0V33.43a1,1,0,0,0,0-.14l0-10.84h0a.69.69,0,0,1,1-.61.72.72,0,0,1,.32.64v8.81a1,1,0,0,0,2.07,0V30a.92.92,0,0,1,.94-.74.9.9,0,0,1,.86.84v1.24a1,1,0,0,0,2.07,0V30.14a.73.73,0,0,1,.77-.42.75.75,0,0,1,.67.71v.93a1,1,0,1,0,2.07,0v-.82a.37.37,0,0,1,.14-.15.47.47,0,0,1,.34-.06c.36.1.58.33.58.48s0,0,0,0,0,0,0,0l.6,8.19a6.25,6.25,0,0,1-1.37,4.52,2.49,2.49,0,0,0-.78,1.7v.85a.56.56,0,0,1-.17.4.59.59,0,0,1-.42.17h-7.7a.59.59,0,0,1-.59-.58h0v-.85a2.51,2.51,0,0,0-.74-1.72h0l0,0,0,0h0A12.32,12.32,0,0,1,29.83,35.47Z"/><path class="cls-2" d="M14.82,19.23a.76.76,0,0,0-.76-.76H10.25a.76.76,0,0,0-.76.76v3.23a.76.76,0,0,0,.76.76h3.81a.76.76,0,0,0,.76-.76Zm-1.53,2.46H11V20h2.29Z"/><path class="cls-2" d="M22.82,19.23a.76.76,0,0,0-.76-.76H18.23a.76.76,0,0,0-.76.76v3.23a.76.76,0,0,0,.76.76h3.83a.76.76,0,0,0,.76-.76ZM21.3,21.69H19V20H21.3Z"/><path class="cls-2" d="M14.06,26.77H10.25a.76.76,0,0,0-.76.76v3.23a.76.76,0,0,0,.76.76h3.81a.76.76,0,0,0,.76-.76V27.53A.76.76,0,0,0,14.06,26.77ZM13.29,30H11V28.3h2.29Z"/><path class="cls-2" d="M22.06,26.77H18.23a.76.76,0,0,0-.76.76v3.23a.76.76,0,0,0,.76.76h3.83a.76.76,0,0,0,.76-.76V27.53A.76.76,0,0,0,22.06,26.77ZM21.3,30H19V28.3H21.3Z"/><path class="cls-2" d="M30.81,19.23a.76.76,0,0,0-.76-.76H26.23a.76.76,0,0,0-.76.76v3.23a.76.76,0,0,0,.76.76H30a.76.76,0,0,0,.76-.76Zm-1.53,2.46H27V20h2.29Z"/><path class="cls-2" d="M30,26.77H26.23a.76.76,0,0,0-.76.76v3.23a.76.76,0,0,0,.76.76H30a.76.76,0,0,0,.76-.76V27.53A.76.76,0,0,0,30,26.77ZM29.28,30H27V28.3h2.29Z"/></g></g></svg>