<svg xmlns="http://www.w3.org/2000/svg" width="56" height="56" viewBox="0 0 56 56"><defs><style>.cls-1{fill:#8246af;}</style></defs><title>Business-management_plum</title><g id="homepage"><g id="Business-management"><polygon class="cls-1" points="33.05 48.77 31.5 48.77 31.5 7.89 5.2 7.89 5.2 48.77 3.65 48.77 3.65 6.08 33.05 6.08 33.05 48.77"/><path class="cls-1" d="M19.51,16.69H17.19a1.55,1.55,0,0,1-1.55-1.55V12.83a1.55,1.55,0,0,1,1.55-1.55h2.32a1.55,1.55,0,0,1,1.55,1.55v2.32A1.55,1.55,0,0,1,19.51,16.69Zm-2.32-3.87v2.32h2.32V12.83Z"/><path class="cls-1" d="M11.78,16.69H9.46a1.55,1.55,0,0,1-1.55-1.55V12.83a1.55,1.55,0,0,1,1.55-1.55h2.32a1.55,1.55,0,0,1,1.55,1.55v2.32A1.55,1.55,0,0,1,11.78,16.69ZM9.46,12.83v2.32h2.32V12.83Z"/><path class="cls-1" d="M27.25,16.69H24.93a1.55,1.55,0,0,1-1.55-1.55V12.83a1.55,1.55,0,0,1,1.55-1.55h2.32a1.55,1.55,0,0,1,1.55,1.55v2.32A1.55,1.55,0,0,1,27.25,16.69Zm-2.32-3.87v2.32h2.32V12.83Z"/><path class="cls-1" d="M19.51,26.43H17.19a1.55,1.55,0,0,1-1.55-1.55V22.56A1.55,1.55,0,0,1,17.19,21h2.32a1.55,1.55,0,0,1,1.55,1.55v2.32A1.55,1.55,0,0,1,19.51,26.43Zm-2.32-3.87v2.32h2.32V22.56Z"/><path class="cls-1" d="M11.78,26.43H9.46a1.55,1.55,0,0,1-1.55-1.55V22.56A1.55,1.55,0,0,1,9.46,21h2.32a1.55,1.55,0,0,1,1.55,1.55v2.32A1.55,1.55,0,0,1,11.78,26.43ZM9.46,22.56v2.32h2.32V22.56Z"/><path class="cls-1" d="M27.25,26.43H24.93a1.55,1.55,0,0,1-1.55-1.55V22.56A1.55,1.55,0,0,1,24.93,21h2.32a1.55,1.55,0,0,1,1.55,1.55v2.32A1.55,1.55,0,0,1,27.25,26.43Zm-2.32-3.87v2.32h2.32V22.56Z"/><path class="cls-1" d="M19.51,36.17H17.19a1.55,1.55,0,0,1-1.55-1.55V32.3a1.55,1.55,0,0,1,1.55-1.55h2.32a1.55,1.55,0,0,1,1.55,1.55v2.32A1.55,1.55,0,0,1,19.51,36.17ZM17.19,32.3v2.32h2.32V32.3Z"/><path class="cls-1" d="M11.78,36.17H9.46a1.55,1.55,0,0,1-1.55-1.55V32.3a1.55,1.55,0,0,1,1.55-1.55h2.32a1.55,1.55,0,0,1,1.55,1.55v2.32A1.55,1.55,0,0,1,11.78,36.17ZM9.46,32.3v2.32h2.32V32.3Z"/><path class="cls-1" d="M27.25,36.17H24.93a1.55,1.55,0,0,1-1.55-1.55V32.3a1.55,1.55,0,0,1,1.55-1.55h2.32A1.55,1.55,0,0,1,28.8,32.3v2.32A1.55,1.55,0,0,1,27.25,36.17ZM24.93,32.3v2.32h2.32V32.3Z"/><path class="cls-1" d="M33.05,49.55H22.22A1.55,1.55,0,0,1,20.67,48V41.81A.77.77,0,0,0,19.9,41H16.81a.77.77,0,0,0-.77.77V48a1.55,1.55,0,0,1-1.55,1.55H3.65a.77.77,0,1,1,0-1.55H14.48V41.81a2.32,2.32,0,0,1,2.32-2.32H19.9a2.32,2.32,0,0,1,2.32,2.32V48H33.05a.77.77,0,1,1,0,1.55Z"/><path class="cls-1" d="M33.05,7.62H3.65a.77.77,0,0,1,0-1.55h29.4a.77.77,0,0,1,0,1.55Z"/><path class="cls-1" d="M48.85,28.81A2.25,2.25,0,0,0,47,26.63h0l-2.6-.34c-.13-.38-.28-.74-.44-1.09l1.59-2.09h0l0,0a2.21,2.21,0,0,0-.23-2.84h0L42.75,17.7h0a2.21,2.21,0,0,0-2.84-.23h0L37.8,19.07c-.35-.16-.71-.31-1.09-.44L36.38,16V16h0a2.25,2.25,0,0,0-1.27-1.6A.9.9,0,1,0,34.36,16a.44.44,0,0,1,.23.32L35,19.42v.15l0,.05v0l0,.06h0l0,.07h0l.1.13,0,0,0,0,0,0,0,0,0,0,0,0,0,0,0,0h0l.06,0h0a11,11,0,0,1,1.86.76h0l.08,0h0l.09,0h0l.2,0h.32l0,0,0,0h0l0,0h0l0,0h0L41,18.94a.42.42,0,0,1,.53,0h0L44,21.52h0a.42.42,0,0,1,0,.53l-1.91,2.51v0l0,0,0,0,0,0,0,0,0,0,0,0v.25s0,0,0,0v.33l0,0v0a11,11,0,0,1,.76,1.86v.06l0,.07h0l0,.07h0l0,.06h0l0,0v0l0,0h0l.06,0h0l0,0,0,0,0,0,0,0,0,0h0l.08,0h.09l3.12.41a.44.44,0,0,1,.35.41V32.4a.44.44,0,0,1-.35.41l-3.12.41h-.16l0,0h0l0,0,0,0,0,0,0,0,0,0,0,0,0,0,0,0,0,0,0,0,0,0,0,0,0,0,0,0,0,0,0,0,0,.05v0a11,11,0,0,1-.76,1.86v0l0,0v0l0,0v.25s0,0,0,0v.25l0,0,0,0,0,0,0,0,0,0,0,0v0l1.91,2.51a.42.42,0,0,1,0,.53l-2.55,2.53h0a.42.42,0,0,1-.53.05l-2.51-1.91h0l0,0,0,0,0,0,0,0,0,0,0,0h-.63l0,0h0a11,11,0,0,1-1.86.76h0l-.05,0,0,0,0,0,0,0,0,0,0,0,0,0,0,0,0,0,0,0,0,0,0,0,0,0,0,0,0,0,0,0,0,0v0l0,0v.16l-.41,3.12a.41.41,0,0,1-.23.29.9.9,0,1,0,.73,1.65,2.2,2.2,0,0,0,1.27-1.59v-.09l.34-2.6c.38-.13.74-.28,1.09-.44l2.09,1.59h0a2.21,2.21,0,0,0,2.83-.25h0L45.3,41h0a2.21,2.21,0,0,0,.23-2.84h0L43.93,36c.16-.35.31-.71.44-1.09l2.6-.34h0a2.25,2.25,0,0,0,1.85-2.18V28.81h0Z"/><path class="cls-1" d="M34.37,35.13a.9.9,0,1,0,.72,1.65,6.74,6.74,0,0,0,0-12.38.9.9,0,1,0-.72,1.65,4.95,4.95,0,0,1,0,9.07Z"/></g></g></svg>