<svg xmlns="http://www.w3.org/2000/svg" width="56" height="56" viewBox="0 0 56 56"><defs><style>.cls-1{fill:#004b87;}</style></defs><title>Chemicals_azul</title><g id="Industries"><g id="Chemicals"><path class="cls-1" d="M26.1,23.28A1.06,1.06,0,1,0,25,22.21,1.07,1.07,0,0,0,26.1,23.28Z"/><path class="cls-1" d="M30.07,32.92a.82.82,0,1,0-.82-.82A.82.82,0,0,0,30.07,32.92Z"/><path class="cls-1" d="M24.72,29.75a1.06,1.06,0,1,0-1.06-1.06A1.07,1.07,0,0,0,24.72,29.75Z"/><path class="cls-1" d="M11.73,43.92a16.92,16.92,0,0,0,5.89,4.93h.07a6.1,6.1,0,0,0,2.69.62h11.2a5.8,5.8,0,0,0,2.77-.66h0A17.74,17.74,0,0,0,40.27,44l1.44-2.56a13.31,13.31,0,0,0,.37-9,13.57,13.57,0,0,0-2-4,16.2,16.2,0,0,0-5-4.44c-.57-.32-1.17-.63-1.79-.9h0a3.72,3.72,0,0,1-2.3-3.45V11.31a3.12,3.12,0,0,0,1.84-2.84,3.08,3.08,0,0,0-3.05-3.05H22.27a3,3,0,0,0-3,3.05,3.12,3.12,0,0,0,1.82,2.83v8.26A3.7,3.7,0,0,1,18.77,23h0a19.21,19.21,0,0,0-3.66,2l0,0h0l-.53.44a14.21,14.21,0,0,0-4.94,8.26,13.11,13.11,0,0,0,.74,7.58M33.18,46.7h0a3.37,3.37,0,0,1-1.58.35H20.39a3.67,3.67,0,0,1-1.63-.38A14,14,0,0,1,13.36,42C10.47,37.4,11.65,31,16.05,27.41l.51-.42a17.3,17.3,0,0,1,3.19-1.76h0a6.14,6.14,0,0,0,3.75-5.68V10.35s0,0,0-.05,0,0,0-.06V10l0-.06,0-.06,0-.06,0-.05,0-.05,0-.05,0-.05,0,0,0,0,0,0,0,0,0,0,0,0,0,0,0,0,0,0-.05,0-.05,0-.06,0-.05,0-.06,0-.06,0-.06,0h-.24a.64.64,0,0,1-.61-.65.6.6,0,0,1,.61-.61h7.39a.62.62,0,0,1,.63.61.66.66,0,0,1-.63.65H25.85a1.22,1.22,0,0,0,0,2.45h2.63v8a6.16,6.16,0,0,0,3.78,5.7h0c.55.24,1.08.51,1.57.79a13.73,13.73,0,0,1,4.25,3.76,11.09,11.09,0,0,1,2.08,7.9H33.39a3.44,3.44,0,0,0-6.65,0H14.23l-.06,0h0l-.05,0h0l0,0,0,0,0,0,0,0,0,0,0,0,0,0,0,0,0,0,0,0,0,0,0,0,0,.05v0l0,.05v.24s0,0,0,.06h0v0s0,0,0,.06v.17l0,.06v0h0a11.75,11.75,0,0,0,5.82,6.28.9.9,0,1,0,.77-1.63,9.92,9.92,0,0,1-4.35-4.1H27.52l.18,0a.9.9,0,0,0,.72-.88A1.67,1.67,0,0,1,30.07,37a1.64,1.64,0,0,1,1.63,1.64s0,0,0,0,0,0,0,.05v.09l0,.08h0a.9.9,0,0,0,.67.61h7.37a10.16,10.16,0,0,1-.44,1.19,1.23,1.23,0,0,0-.2.42C38.08,43.28,36.17,45.06,33.18,46.7Z"/></g></g></svg>