<svg xmlns="http://www.w3.org/2000/svg" width="56" height="56" viewBox="0 0 56 56"><defs><style>.cls-1{fill:#004b87;}</style></defs><title>Construction_azul</title><g id="Industries"><g id="construction"><path class="cls-1" d="M47.57,28.41h0L47.07,24a2.18,2.18,0,0,0,.16-1.88h0L41.32,6.55h0A2.42,2.42,0,0,0,38.71,5a2.36,2.36,0,0,0-2,2.2h0l-.15,2.18h0q0,.16,0,.31L26.17,15.9h0a4.47,4.47,0,0,0-1.8,2h0l-1.51,3.34H21.22a1.86,1.86,0,0,0-1.86,1.86v4.76H10.42V26h0a1.86,1.86,0,0,0-1.86-1.86H7.1a1,1,0,0,0,0,2H8.46V28a3.63,3.63,0,0,0-2.64,3.49v3.57h0s0,.06,0,.09a1.85,1.85,0,0,0,1.85,1.66h5.53V37.9H10.35a4.5,4.5,0,1,0,0,9H30.83a4.5,4.5,0,0,0,0-9h-5.9V36.83h4.21A1.87,1.87,0,0,0,31,35h0V28.39a1.81,1.81,0,0,0-.28-1h0l-2.57-4.08,1.33-2.43a1.2,1.2,0,0,1,.33-.37h0l8.61-6.35,4.77,9.73h0a2.22,2.22,0,0,0,.15.26,8.86,8.86,0,0,1-4.92,3L38,26.54a1,1,0,1,0-1.7,1l2.45,4.16h0a4.51,4.51,0,0,0,3.41,2.17l.48,0a4.51,4.51,0,0,0,3.29-1.42h0l.46-.48h0A4.5,4.5,0,0,0,47.57,28.41ZM39,7a.46.46,0,0,1,.48.27l5.91,15.62h0a.21.21,0,0,1,0,.16l-.12.12,0,0a.23.23,0,0,1-.31-.11h0L39.67,12.31l0-.08-1-2h0a1.31,1.31,0,0,1-.13-.66l.15-2.18h0A.41.41,0,0,1,39,7ZM22.1,31.82a.76.76,0,0,1-.76-.76V28h7.43l.26.4v3.39Zm-.76-5.76V23.22h4.4l.36.57a1,1,0,0,0,.14.22l1.29,2.05ZM9.44,29.83h9.92v1.22a2.74,2.74,0,0,0,2.73,2.73H29v1.07H7.78V31.49A1.66,1.66,0,0,1,9.44,29.83ZM33.33,42.39a2.52,2.52,0,0,1-2.5,2.54H10.35a2.53,2.53,0,1,1,0-5.06H30.82A2.52,2.52,0,0,1,33.33,42.39ZM23,37.9H15.18V36.83H23ZM28.62,19h0a3.14,3.14,0,0,0-.88,1h0l-.89,1.62a1.87,1.87,0,0,0-1.06-.33H25l1.14-2.53h0a2.51,2.51,0,0,1,1-1.14h0l10-5.93.36.74Zm13.76,13a2.53,2.53,0,0,1-1.92-1.21h0l-1-1.75a10.83,10.83,0,0,0,5.63-3.8h.15l.4,3.48h0a2.54,2.54,0,0,1-.64,2l-.44.46h0A2.54,2.54,0,0,1,42.38,31.92Z"/><path class="cls-1" d="M10.34,40.68A1.71,1.71,0,1,0,12,42.39,1.71,1.71,0,0,0,10.34,40.68Zm0,2.26a.55.55,0,1,1,.55-.55A.55.55,0,0,1,10.34,42.94Z"/><path class="cls-1" d="M29.1,42.39a1.71,1.71,0,1,0,1.71-1.71A1.71,1.71,0,0,0,29.1,42.39Zm2.26,0a.55.55,0,1,1-.55-.55A.55.55,0,0,1,31.36,42.39Z"/><path class="cls-1" d="M17.22,40.68a1.71,1.71,0,1,0,1.71,1.71A1.71,1.71,0,0,0,17.22,40.68Zm0,2.26a.55.55,0,1,1,.55-.55A.55.55,0,0,1,17.22,42.94Z"/><path class="cls-1" d="M24,40.68a1.71,1.71,0,1,0,1.71,1.71A1.71,1.71,0,0,0,24,40.68Zm0,2.26a.55.55,0,1,1,.55-.55A.55.55,0,0,1,24,42.94Z"/></g></g></svg>