<svg xmlns="http://www.w3.org/2000/svg" width="56" height="56" viewBox="0 0 56 56"><defs><style>.cls-1{fill:#004b87;}</style></defs><title>Distribution_azul</title><g id="Industries"><g id="Distribution"><path class="cls-1" d="M22.41,39.95l-6.51-3.77a.79.79,0,1,0-.8,1.37l6.51,3.77a.79.79,0,0,0,.8-1.37Z"/><path class="cls-1" d="M46.74,27.58l-4-6.88,4-6.88a1.08,1.08,0,0,0-.39-1.47L30.55,3.18a1.08,1.08,0,0,0-1.47.39L25.71,9.39,22.19,3.31h0l-.05-.08h0l-.06-.08h0L22,3.05h0L21.91,3l0,0-.06,0,0,0-.06,0,0,0-.06,0,0,0-.05,0H21l-.06,0h0l0,0-.05,0h0l-.07,0L6,11.43h0l0,0-.06,0,0,0-.05,0,0,0,0,0,0,0,0,0,0,0,0,0,0,0,0,0,0,0,0,0,0,0,0,0v.2s0,0,0,0,0,0,0,.06,0,0,0,0,0,0,0,.06v.15l0,.06,0,0,0,.06,0,0,0,.06h0l4.15,7.17-4,6.87a1.08,1.08,0,0,0,.39,1.48L9.88,30.6V39a1.08,1.08,0,0,0,.54.93l15.77,9.14a1.07,1.07,0,0,0,.54.15h0a1.07,1.07,0,0,0,.54-.14L42,40.56a1.08,1.08,0,0,0,.54-.93V31.22l3.76-2.17a1.08,1.08,0,0,0,.39-1.48Zm-20,.41L13.11,20.08l12.6-7.29,13.64,7.91ZM11.35,18.6,8,12.76l12.9-7.44,3.37,5.83Zm19.05-13,13.93,8.07-3.22,5.56L27.18,11.15Zm-19.06,16,13.91,8.07L22,35.17,11.57,29.09,11.44,29,8.13,27.09ZM12,31.86l9.86,5.72h0a1.08,1.08,0,0,0,.33.13h0l.14,0h.14l.2,0h0l.12,0h0l.06,0h0l0,0h0l0,0,0,0h0l0,0h0l.05,0h0a1.08,1.08,0,0,0,.23-.28l2.29-3.94V46.29L12,38.39ZM40.43,39,36,41.55V38.78h-.1l-3.67,2.13h0v2.84l-4.41,2.55V33.24l2.29,3.94a1.08,1.08,0,0,0,1.47.39l8.85-5.11Zm.64-9.4-.19.11-9.44,5.45-3.22-5.54,12.9-7.46,3.22,5.56Z"/></g></g></svg>