<svg xmlns="http://www.w3.org/2000/svg" width="56" height="56" viewBox="0 0 56 56"><defs><style>.cls-1{fill:#004b87;}</style></defs><title>Food-beverage_azul</title><g id="Industries"><g id="Food-beverage"><path class="cls-1" d="M21,17.34h0a2,2,0,0,1-.63-1.11h0L18.63,7.34A3.1,3.1,0,0,0,19,4.2a3.06,3.06,0,0,0-2.84-1.75H12.6A3,3,0,0,0,9.73,4.2a3.1,3.1,0,0,0,.38,3.18L8.33,16.22h0a2,2,0,0,1-.65,1.11h0a7.14,7.14,0,0,0-2.42,5.25V47.12a2.16,2.16,0,0,0,2.17,2.14H21.31a2.16,2.16,0,0,0,2.17-2.14V22.59A7.16,7.16,0,0,0,21,17.34ZM21.26,47H7.47v-3H13a3,3,0,0,0,3-3V29.77a3,3,0,0,0-3-3H7.47V22.59A5,5,0,0,1,9.17,19h0a4.23,4.23,0,0,0,1.33-2.32h0l1.85-9.17a1.11,1.11,0,0,0,0-.12s0-.07,0-.1h0A1.52,1.52,0,0,0,11.87,6a.86.86,0,0,1-.13-.91.83.83,0,0,1,.81-.47h3.59a.88.88,0,0,1,.83.46.86.86,0,0,1-.15.93h0a1.7,1.7,0,0,0-.26.38H14.2a.81.81,0,0,0,0,1.63h2.32l1.71,8.58h0A4.21,4.21,0,0,0,19.54,19h0a5,5,0,0,1,1.72,3.61ZM13,28.58a1.2,1.2,0,0,1,1.21,1.18V41.06A1.21,1.21,0,0,1,13,42.26H7.47V28.58Z"/><path class="cls-1" d="M44.9,30.28a8.27,8.27,0,0,0-7.58-1.59,5.26,5.26,0,0,0-.18-2.5,6.19,6.19,0,0,1,9.76-5.1h0a.08.08,0,0,1,0,.05h0a6.08,6.08,0,0,1-3.23,5.69.73.73,0,1,0,.68,1.3,7.54,7.54,0,0,0,4-7.07h0a1.52,1.52,0,0,0-.64-1.17h0a7.65,7.65,0,0,0-11.82,4.29,5.26,5.26,0,0,0-3-1.56.73.73,0,1,0-.21,1.45A3.79,3.79,0,0,1,35.75,29a8.27,8.27,0,0,0-8.39,1.31,7.87,7.87,0,0,0-2.53,4A10.26,10.26,0,0,0,24.7,39h0A27.16,27.16,0,0,0,26,43.43a11.33,11.33,0,0,0,1.23,2.17A11.47,11.47,0,0,0,29.59,48,5.82,5.82,0,0,0,33,49.26h.32a4,4,0,0,0,2.29-1l.22-.18.11-.09,0,0,0,0a.24.24,0,0,1,.33,0h0c.19.16.43.37.7.56a3.69,3.69,0,0,0,1.69.7,4.36,4.36,0,0,0,.54,0A5.68,5.68,0,0,0,42.64,48a10.93,10.93,0,0,0,2.06-2,10.61,10.61,0,0,0,1-1.47,17.73,17.73,0,0,0,1.5-4c.14-.52.26-1,.38-1.53h0a9.57,9.57,0,0,0-.1-4.71A8,8,0,0,0,44.9,30.28Zm-.5,13.56a9.25,9.25,0,0,1-.85,1.26,9.49,9.49,0,0,1-1.79,1.74,4.12,4.12,0,0,1-2.86.92,2.23,2.23,0,0,1-1-.43c-.22-.16-.42-.33-.59-.48h0a1.7,1.7,0,0,0-2.3,0l-.1.08-.22.18a2.55,2.55,0,0,1-1.47.68,4.16,4.16,0,0,1-2.72-1,9.9,9.9,0,0,1-3.1-4,25.09,25.09,0,0,1-1.25-4.15c-.46-2.28-.13-5.4,2.16-7.29a6.81,6.81,0,0,1,7.48-.82h0l.05,0h0l.12,0h.43l0,0h0a6.81,6.81,0,0,1,7.48.82,7.34,7.34,0,0,1,2.17,7.28c-.12.49-.24,1-.37,1.5A16.32,16.32,0,0,1,44.4,43.84Z"/><path class="cls-1" d="M44.73,22.4a.73.73,0,0,0-.9-.51,7,7,0,0,0-4.28,3.42.73.73,0,1,0,1.29.69,5.51,5.51,0,0,1,3.38-2.7A.73.73,0,0,0,44.73,22.4Z"/></g></g></svg>