<svg xmlns="http://www.w3.org/2000/svg" width="56" height="56" viewBox="0 0 56 56"><defs><style>.cls-1{fill:#004b87;}</style></defs><title>Manufacturing_azul</title><g id="Industries"><g id="Manufacturing"><path class="cls-1" d="M20.87,28.89h-6.6a1.5,1.5,0,0,0-1.51,1.49v3.46a1.5,1.5,0,0,0,1.51,1.49h6.6a1.5,1.5,0,0,0,1.51-1.49V30.38A1.5,1.5,0,0,0,20.87,28.89ZM14.48,33.6v-3h6.17v3Z"/><path class="cls-1" d="M37.52,28.89h-6.6a1.5,1.5,0,0,0-1.51,1.49v3.46a1.5,1.5,0,0,0,1.51,1.49h6.6A1.5,1.5,0,0,0,39,33.84V30.38h0A1.5,1.5,0,0,0,37.52,28.89ZM31.13,33.6v-3H37.3v3Z"/><path class="cls-1" d="M47.26,47.24H46.19V25.9a2.1,2.1,0,0,0-1.1-1.83h0l-.49-.27L43.19,6.61a1.05,1.05,0,0,0,0-.11,2.12,2.12,0,0,0-2.09-1.84l-.22,0H37.16l-.21,0A2.12,2.12,0,0,0,34.89,6.3a1,1,0,0,0-.07.3l-.94,11.28,0,0h0a1.66,1.66,0,0,0-1.66,0,1.71,1.71,0,0,0-.85,1.46v3.78L21.08,17.48h0a1.66,1.66,0,0,0-1.66,0A1.71,1.71,0,0,0,18.57,19v4.16L8.33,17.48h0a1.66,1.66,0,0,0-1.66,0A1.71,1.71,0,0,0,5.81,19V47.24H4.74a1,1,0,0,0,0,2.09H47.26a1,1,0,0,0,0-2.09ZM36.88,7a1,1,0,0,0,0-.21H41.1v.05l.18,2.25H36.71Zm-.35,4.19h4.93l.93,11.4L35.89,19ZM7.91,19.64l11.21,6.16h0l.06,0h0l.08,0h0l.08,0h.45l.06,0h0l.08,0h0l.06,0h0l.15-.1h0l.13-.13h0l0-.06v0l0-.07h0a1,1,0,0,0,.08-.19l0-.07v0a1,1,0,0,0,0-.21h0V19.65l11.21,6.16h0l.06,0h0l.08,0h0l.08,0h.45l.06,0h0l.08,0h0l.06,0h0l.15-.1h0l.13-.13h0l0-.06v0l0-.07h0a1,1,0,0,0,.08-.19l0-.07v0a1,1,0,0,0,0-.21h0V20l.79.43.13.07L43,25.31l.16.09.9.49h0V47.24H7.91Z"/><path class="cls-1" d="M20.87,38h-6.6a1.51,1.51,0,0,0-1.51,1.51v3.44a1.51,1.51,0,0,0,1.51,1.51h6.6a1.51,1.51,0,0,0,1.51-1.51V39.5A1.51,1.51,0,0,0,20.87,38Zm-6.39,4.73v-3h6.17v3Z"/><path class="cls-1" d="M37.52,38h-6.6a1.51,1.51,0,0,0-1.51,1.51v3.44a1.51,1.51,0,0,0,1.51,1.51h6.6A1.51,1.51,0,0,0,39,42.94V39.5h0A1.51,1.51,0,0,0,37.52,38Zm-6.39,4.73v-3H37.3v3Z"/></g></g></svg>