<svg xmlns="http://www.w3.org/2000/svg" width="56" height="56" viewBox="0 0 56 56"><defs><style>.cls-1{fill:none;stroke:#004b87;stroke-linecap:round;stroke-linejoin:round;stroke-width:1.5px;}</style></defs><title>Non-profit_azul</title><g id="Industries"><g id="Non-profit"><path class="cls-1" d="M35.09,6.74A5.88,5.88,0,0,0,30.9,5h0a5.89,5.89,0,0,0-4.19,1.74L26,7.44l-.71-.71a6.07,6.07,0,0,0-8.38,0,5.94,5.94,0,0,0,0,8.38l8.44,8.44a.92.92,0,0,0,1.31,0l8.44-8.44a5.93,5.93,0,0,0,0-8.38Z"/><path class="cls-1" d="M16.12,33.1c-4.19-3.06-5.45-4.28-7-8.06-.58-1.42-.83-2.63-.13-3.32,1.12-1.12,2.68,1.38,3,1.85s.46.66.7,1a13.25,13.25,0,0,0,4.49,3.36c7.4,3.67,7,8,6.77,10l0,.34c0,.3,0,6.73,0,10.34H17.6l.4-6.18a3.3,3.3,0,0,0-1.37-3.28l-7.15-5.4a10.52,10.52,0,0,1-2.82-3.87c-2.43-6.83-.85-15.46-.78-15.82a2.56,2.56,0,0,1,.86-1.74.91.91,0,0,1,.73-.14c.35.07.78.35.82,1.15L8.7,19.9"/><path class="cls-1" d="M8.56,13.55a7.28,7.28,0,0,1,1.75,2.61,37.2,37.2,0,0,1,.86,5.94"/><path class="cls-1" d="M35.88,33.1c4.19-3.06,5.45-4.28,7-8.06.58-1.42.83-2.63.13-3.32-1.12-1.12-2.68,1.38-3,1.85s-.46.66-.7,1a13.25,13.25,0,0,1-4.49,3.36c-7.4,3.67-7,8-6.77,10l0,.34c0,.3,0,6.73,0,10.34H34.4L34,42.44a3.3,3.3,0,0,1,1.37-3.28l7.15-5.4a10.52,10.52,0,0,0,2.82-3.87c2.43-6.83.85-15.46.78-15.82a2.56,2.56,0,0,0-.86-1.74.91.91,0,0,0-.73-.14c-.35.07-.78.35-.82,1.15L43.3,19.9"/><path class="cls-1" d="M43.44,13.55a7.28,7.28,0,0,0-1.75,2.61,37.2,37.2,0,0,0-.86,5.94"/></g></g></svg>