<svg xmlns="http://www.w3.org/2000/svg" width="56" height="56" viewBox="0 0 56 56"><defs><style>.cls-1{fill:#8246af;}</style></defs><title>People_plum</title><g id="homepage"><g id="People"><path class="cls-1" d="M23.14,49.32a.92.92,0,0,1-.92-.92V31a.92.92,0,1,1,1.83,0V48.41A.92.92,0,0,1,23.14,49.32Z"/><path class="cls-1" d="M28.64,49.32a.92.92,0,0,1-.92-.92V31a.92.92,0,1,1,1.83,0V48.41A.92.92,0,0,1,28.64,49.32Z"/><path class="cls-1" d="M25.89,15.41a5,5,0,1,1,5-5A5,5,0,0,1,25.89,15.41Zm0-8.25a3.21,3.21,0,1,0,3.21,3.21A3.21,3.21,0,0,0,25.89,7.16Z"/><path class="cls-1" d="M32.31,32.82a.92.92,0,0,1-.92-.92V24.57a5.5,5.5,0,0,0-11,0v7.33a.92.92,0,0,1-1.83,0V24.57a7.33,7.33,0,0,1,14.67,0v7.33A.92.92,0,0,1,32.31,32.82Z"/><path class="cls-1" d="M39.61,46.69a.81.81,0,0,1-.81-.81V30.55a.81.81,0,1,1,1.61,0V45.88A.81.81,0,0,1,39.61,46.69Z"/><path class="cls-1" d="M37.19,16.83a4.44,4.44,0,1,1,4.44-4.44A4.44,4.44,0,0,1,37.19,16.83Zm0-7.26A2.82,2.82,0,1,0,40,12.39,2.83,2.83,0,0,0,37.19,9.57Z"/><path class="cls-1" d="M42.84,32.16a.81.81,0,0,1-.81-.81V24.9a4.85,4.85,0,0,0-4.84-4.84.81.81,0,1,1,0-1.61,6.46,6.46,0,0,1,6.46,6.46v6.46A.81.81,0,0,1,42.84,32.16Z"/><path class="cls-1" d="M12.17,46.69a.81.81,0,0,1-.81-.81V30.55a.81.81,0,0,1,1.61,0V45.88A.81.81,0,0,1,12.17,46.69Z"/><path class="cls-1" d="M14.59,16.83A4.44,4.44,0,1,1,19,12.39,4.44,4.44,0,0,1,14.59,16.83Zm0-7.26a2.82,2.82,0,1,0,2.82,2.82A2.83,2.83,0,0,0,14.59,9.57Z"/><path class="cls-1" d="M8.94,32.16a.81.81,0,0,1-.81-.81V24.9a6.46,6.46,0,0,1,6.46-6.46.81.81,0,1,1,0,1.61A4.85,4.85,0,0,0,9.75,24.9v6.46A.81.81,0,0,1,8.94,32.16Z"/></g></g></svg>