<?xml version="1.0" encoding="UTF-8"?>
<svg width="60px" height="60px" viewBox="0 0 60 60" version="1.1" xmlns="http://www.w3.org/2000/svg" xmlns:xlink="http://www.w3.org/1999/xlink">
    <!-- Generator: Sketch 41.2 (35397) - http://www.bohemiancoding.com/sketch -->
    <title>icon-usa</title>
    <desc>Created with Sketch.</desc>
    <defs></defs>
    <g id="Sprint-2" stroke="none" stroke-width="1" fill="none" fill-rule="evenodd">
        <g id="icon-usa" transform="translate(1.000000, 12.000000)" stroke="#41A940">
            <path d="M56.8196148,4.74201845 C56.8196148,4.74201845 55.6668628,3.2864077 55.6668628,2.37665098 C55.6668628,2.37665098 54.2059492,1.85354087 53.932028,3.69579822 C53.6466933,5.54942754 53.5439728,6.23174508 50.7591064,6.65250756 C50.7591064,6.65250756 49.2981929,6.95955046 48.7389369,8.50613688 C48.7389369,8.50613688 49.7090748,9.90488784 46.5703934,9.80254021 C46.5703934,9.80254021 46.1595115,10.0868392 46.5019131,10.8487604 C46.5019131,10.8487604 44.6643578,12.9298289 43.3632317,13.0094326 C42.0621056,13.0890364 42.2903733,12.7592495 42.6670151,11.9973283 C43.0550702,11.235407 42.6670151,9.98449155 42.3588536,9.6660767 C42.0506922,9.3590338 41.6968772,7.99439873 41.6968772,7.99439873 L40.2930306,7.47128861 L41.3430622,7.06189809 L39.6652943,6.11802549 C39.6652943,6.11802549 38.0902469,6.75485519 37.679365,6.57290385 L36.8119476,6.08390961 L37.0173886,5.44707991 C37.0173886,5.44707991 35.2369002,6.61839169 34.5064435,6.61839169 L33.342278,6.61839169 C33.342278,6.61839169 34.0042544,5.57217146 35.3624475,4.88985392 C35.3624475,4.88985392 31.7329904,4.29851205 30.363384,3.59345059 C30.363384,3.59345059 15.7085952,4.00284112 5.23110607,0.284210526 C5.23110607,0.284210526 5.17403914,2.11509592 4.86587769,1.94451654 C4.55771624,1.77393715 3.03973579,0.773204763 3.03973579,0.773204763 C3.03973579,0.773204763 3.34789723,4.68515866 1.05380647,7.81244738 C1.05380647,7.81244738 1.00815292,10.8373885 0.0950819672,11.246779 L2.00111758,20.116907 C2.00111758,20.116907 5.40230687,22.0387681 5.13979898,23.7786778 L7.65074409,24.2449281 L11.8394571,26.7467591 C11.8394571,26.7467591 14.7384574,27.1561496 15.229233,27.053802 L15.229233,26.6330395 L16.9754812,26.6330395 C16.9754812,26.6330395 19.064131,28.6572482 19.064131,29.7148404 L20.8446193,31.0226157 C20.8446193,31.0226157 21.6207297,28.7368519 23.4582849,30.8179204 C25.2958402,32.8989889 25.4442143,34.7867341 25.7752025,34.832222 C26.0833639,34.8890817 27.9665728,35.4690517 27.9665728,35.4690517 C27.9665728,35.4690517 26.2431513,32.2394153 31.8927779,30.2948103 L34.0841481,30.3516701 L37.8619792,30.7610606 C37.8619792,30.7610606 37.1201091,29.9877674 37.5994713,29.1917303 C37.5994713,29.1917303 41.3773024,28.2023699 42.3132001,29.555633 L43.6713931,28.8846874 C43.6713931,28.8846874 45.349161,29.7603282 45.4518815,29.9309076 C45.554602,30.0901151 45.7143894,31.8072809 45.7143894,31.8072809 C45.7143894,31.8072809 47.8715195,34.9914294 48.4421889,34.9914294 C49.0128582,34.9914294 50.0172363,33.6381663 48.4421889,31.227311 C48.4421889,31.227311 45.6116689,27.8384672 47.3350903,25.1774288 C47.3350903,25.1774288 50.4737717,21.4815421 51.3183624,21.1062674 C51.3183624,21.1062674 52.1172994,20.1623949 51.6265238,19.298126 L51.455323,18.6385523 L50.6906261,17.342149 L50.6221458,16.6484595 C50.6221458,16.6484595 50.6221458,15.8524224 51.1814017,15.8865383 C51.1814017,15.8865383 52.2314333,15.4771477 52.3569806,13.0662924 L53.5553862,12.0541881 C53.5553862,12.0541881 55.1304336,10.5303456 55.3929415,10.2801625 L54.730965,9.51824123 C54.730965,9.51824123 54.3429099,8.44927709 54.7994454,7.641868 L56.8196148,5.86784239 C56.8196148,5.89058631 57.5500716,5.33336032 56.8196148,4.74201845 Z" id="Shape"></path>
        </g>
    </g>
</svg>