<?xml version="1.0" encoding="UTF-8"?>
<svg width="120px" height="120px" viewBox="0 0 120 120" version="1.1" xmlns="http://www.w3.org/2000/svg" xmlns:xlink="http://www.w3.org/1999/xlink">
    <!-- Generator: Sketch 41.2 (35397) - http://www.bohemiancoding.com/sketch -->
    <title>icon-othersw</title>
    <desc>Created with Sketch.</desc>
    <defs></defs>
    <g id="Sprint-2" stroke="none" stroke-width="1" fill="none" fill-rule="evenodd">
        <g id="icon-othersw" transform="translate(1.000000, 1.000000)" stroke="#41A940">
            <path d="M118,59.0001004 C118,91.5848128 91.5850136,118 59.0001004,118 C26.4151872,118 0,91.5848128 0,59.0001004 C0,26.4149864 26.4151872,0 59.0001004,0 C91.5850136,0 118,26.4149864 118,59.0001004 Z" id="path20" opacity="0.099999994" transform="translate(59.000000, 59.000000) scale(1, -1) translate(-59.000000, -59.000000) "></path>
            <path d="M59.0000748,15 C83.3006881,15 103,34.6993119 103,59.0000748 C103,83.3005384 83.3006881,103 59.0000748,103 C34.6994616,103 15,83.3005384 15,59.0000748 C15,34.6993119 34.6994616,15 59.0000748,15" id="path20" opacity="0.329999983" transform="translate(59.000000, 59.000000) scale(1, -1) translate(-59.000000, -59.000000) "></path>
            <path d="M59.0000408,35 C72.2549208,35 83,45.7450792 83,59.0000408 C83,72.2548391 72.2549208,83 59.0000408,83 C45.7451609,83 35,72.2548391 35,59.0000408 C35,45.7450792 45.7451609,35 59.0000408,35" id="path20" transform="translate(59.000000, 59.000000) scale(1, -1) translate(-59.000000, -59.000000) "></path>
        </g>
    </g>
</svg>