<?xml version="1.0" encoding="UTF-8"?>
<svg width="60px" height="60px" viewBox="0 0 60 60" version="1.1" xmlns="http://www.w3.org/2000/svg" xmlns:xlink="http://www.w3.org/1999/xlink">
    <!-- Generator: Sketch 41.2 (35397) - http://www.bohemiancoding.com/sketch -->
    <title>icon-world</title>
    <desc>Created with Sketch.</desc>
    <defs></defs>
    <g id="Sprint-2" stroke="none" stroke-width="1" fill="none" fill-rule="evenodd">
        <g id="icon-world" transform="translate(1.000000, 1.000000)" stroke="#41A940">
            <path d="M12.9096774,5.98709677 C14.5935484,7.29677419 16.6516129,8.41935484 17.9612903,10.4774194 C19.083871,12.3483871 21.1419355,18.3354839 18.7096774,21.3290323 C16.0903226,24.6967742 8.41935484,25.8193548 8.41935484,29 C8.41935484,31.4322581 11.7870968,34.0516129 13.4709677,36.6709677 C16.0903226,40.6 14.9677419,44.5290323 13.4709677,46.9612903 C12.7225806,48.2709677 11.4129032,49.2064516 10.1032258,49.9548387" id="Shape"></path>
            <path d="M51.0774194,11.7870968 C45.6516129,14.4064516 40.9741935,17.7741935 37.9806452,16.8387097 C34.4258065,15.9032258 34.8,12.9096774 32.7419355,9.91612903 C31.2451613,7.67096774 26.3806452,5.98709677 26.3806452,3.55483871 C26.3806452,2.61935484 26.5677419,1.68387097 26.7548387,0.935483871" id="Shape"></path>
            <circle id="Oval" cx="29" cy="29" r="28.0645161"></circle>
            <path d="M46.9612903,31.2451613 C47.1483871,39.1032258 36.1096774,50.1419355 31.6193548,46.7741935 C27.6903226,43.9677419 31.2451613,42.0967742 29.1870968,31.2451613 C28.4387097,27.1290323 33.116129,23.5741935 38.1677419,23.5741935 C43.2193548,23.5741935 46.7741935,27.1290323 46.9612903,31.2451613 Z" id="Shape"></path>
        </g>
    </g>
</svg>