<?xml version="1.0" encoding="UTF-8"?>
<svg width="120px" height="120px" viewBox="0 0 120 120" version="1.1" xmlns="http://www.w3.org/2000/svg" xmlns:xlink="http://www.w3.org/1999/xlink">
    <!-- Generator: Sketch 41.2 (35397) - http://www.bohemiancoding.com/sketch -->
    <title>icon-quickbooks</title>
    <desc>Created with Sketch.</desc>
    <defs></defs>
    <g id="Sprint-2" stroke="none" stroke-width="1" fill="none" fill-rule="evenodd">
        <g id="icon-quickbooks" transform="translate(1.000000, 1.000000)" stroke="#41A940">
            <path d="M58.7997026,117.705608 C26.0017538,117.490897 0.174882051,91.046732 0.524041026,57.7974948 C0.864123077,25.4624536 27.9272718,-0.611896907 60.4722769,0.0188556701 C92.1053538,0.631969072 117.921938,27.2348866 117.664759,59.7134742 C117.41121,91.7462165 90.8491077,117.914237 58.7997026,117.705608 Z" id="Shape"></path>
            <path d="M56.4735897,93.4061237 L48.1996718,93.4061237 L48.1996718,43.6691237 C42.6839282,43.6752062 37.3352,42.8942165 32.5498462,46.1769278 C27.1297128,49.8957526 24.5730462,56.4757732 26.2553026,62.6689485 C28.0059385,69.1096804 33.4157846,73.5693505 39.9911077,73.9841753 C40.9048513,74.0419588 41.8198051,74.0748041 42.8824103,74.1258969 L42.8824103,81.9808041 C35.3534051,83.3858557 26.0368513,78.9803196 21.4536103,71.7665052 C16.6622051,64.2266701 16.0552615,56.2592371 20.0950974,48.3064021 C24.3515692,39.9259691 31.4460923,35.638433 40.8425231,35.4261546 C45.4753846,35.3215361 50.1124821,35.3981753 54.7477641,35.3981753 C55.5931282,35.3981753 56.5456,35.2594948 56.5498359,36.5745258 C56.5207897,36.9595464 56.4663282,37.3451753 56.4663282,37.7314124 C56.4657231,56.2896495 56.469959,74.8484948 56.4735897,93.4061237 Z" id="Shape"></path>
            <path d="M61.7236821,82.2672887 L61.7236821,24.1498557 L69.8426872,24.1498557 L69.8426872,73.9744433 C74.5977846,73.8588763 79.1326154,74.6970412 83.4738051,72.6016289 C89.6485333,69.622433 93.2962462,62.8270928 92.0720718,56.3364845 C90.7129538,49.1342268 84.9128,43.9793299 77.7722872,43.6454021 C76.9432615,43.6070825 76.1106051,43.6399278 75.1490564,43.6399278 L75.1490564,35.6499897 C83.1095179,34.3848351 92.3782667,38.890732 96.8531897,46.3289897 C101.604051,54.2252577 101.907826,62.3940206 97.3457641,70.4155876 C92.9398256,78.1646598 86.0401538,82.0817732 77.1447692,82.250866 C72.0665333,82.3463608 66.9828513,82.2672887 61.7236821,82.2672887 Z" id="Shape"></path>
        </g>
    </g>
</svg>