<?xml version="1.0" encoding="UTF-8"?>
<svg width="120px" height="120px" viewBox="0 0 120 120" version="1.1" xmlns="http://www.w3.org/2000/svg" xmlns:xlink="http://www.w3.org/1999/xlink">
    <!-- Generator: Sketch 41.2 (35397) - http://www.bohemiancoding.com/sketch -->
    <title>icon-trade</title>
    <desc>Created with Sketch.</desc>
    <defs></defs>
    <g id="Sprint-2" stroke="none" stroke-width="1" fill="none" fill-rule="evenodd">
        <g id="icon-trade" transform="translate(1.000000, 1.000000)" stroke="#41A940">
            <path d="M78.5717241,58.2268966 L108.340276,87.9954483 C115.082552,94.7377241 115.082552,105.666966 108.340276,112.409241 L108.340276,112.409241 C101.598,119.151517 90.6687586,119.151517 83.9264828,112.409241 L55.4396552,83.9224138" id="Shape"></path>
            <polyline id="Shape" points="51.212 47.1430345 35.1029655 31.034 35.0582069 21.8625517 17.7935862 4.602 0.533034483 21.8625517 17.7935862 39.1271724 26.9650345 39.171931 42.716 54.9228966"></polyline>
            <path d="M101.724138,28.4827586 L89.5172414,16.2758621 L103.620276,2.17282759 C100.556345,0.78937931 97.1668966,0 93.5862069,0 C80.1016552,0 69.1724138,10.9292414 69.1724138,24.4137931 C69.1724138,26.4075862 69.4368966,28.3403448 69.8885517,30.1957931 L0,93.5862069 L24.4137931,118 L87.8042069,48.1114483 C89.6596552,48.5631034 91.5924138,48.8275862 93.5862069,48.8275862 C107.070759,48.8275862 118,37.8983448 118,24.4137931 C118,20.8331034 117.210621,17.4436552 115.827172,14.3797241 L101.724138,28.4827586 Z" id="Shape"></path>
        </g>
    </g>
</svg>