<?xml version="1.0" encoding="UTF-8"?>
<svg width="120px" height="120px" viewBox="0 0 120 120" version="1.1" xmlns="http://www.w3.org/2000/svg" xmlns:xlink="http://www.w3.org/1999/xlink">
    <!-- Generator: Sketch 41.2 (35397) - http://www.bohemiancoding.com/sketch -->
    <title>icon-transportation</title>
    <desc>Created with Sketch.</desc>
    <defs></defs>
    <g id="Sprint-2" stroke="none" stroke-width="1" fill="none" fill-rule="evenodd">
        <g id="icon-transportation" transform="translate(3.000000, 1.000000)" stroke="#41A940">
            <path d="M47.1724138,13.3225806 L70.7586207,13.3225806" id="Shape"></path>
            <path d="M58.9655172,47.5806452 L58.9655172,93.2580645" id="Shape"></path>
            <path d="M0,100.870968 C0,109.245161 7.07586207,116.096774 15.7241379,116.096774 C21.6206897,116.096774 26.7310345,112.670968 29.4827586,108.103226 C32.2344828,112.670968 37.3448276,116.096774 43.2413793,116.096774 C49.137931,116.096774 54.2482759,112.670968 57,108.103226 C59.7517241,112.670968 64.862069,116.096774 70.7586207,116.096774 C76.6551724,116.096774 81.7655172,112.670968 84.5172414,108.103226 C87.2689655,112.670968 92.3793103,116.096774 98.2758621,116.096774 C106.924138,116.096774 114,109.245161 114,100.870968" id="Shape"></path>
            <polyline id="Shape" points="47.1724138 28.5483871 47.1724138 1.90322581 70.7586207 1.90322581 70.7586207 28.5483871"></polyline>
            <polyline id="Shape" points="23.5862069 67.3741935 23.5862069 28.5483871 94.3448276 28.5483871 94.3448276 67.3741935"></polyline>
            <polyline id="Shape" points="19.6551724 97.0645161 11.7931034 74.2258065 58.9655172 47.5806452 106.137931 74.2258065 98.2758621 97.0645161"></polyline>
        </g>
    </g>
</svg>