<?xml version="1.0" encoding="UTF-8"?>
<svg width="120px" height="120px" viewBox="0 0 120 120" version="1.1" xmlns="http://www.w3.org/2000/svg" xmlns:xlink="http://www.w3.org/1999/xlink">
    <!-- Generator: Sketch 41.2 (35397) - http://www.bohemiancoding.com/sketch -->
    <title>icon-excel</title>
    <desc>Created with Sketch.</desc>
    <defs></defs>
    <g id="Sprint-2" stroke="none" stroke-width="1" fill="none" fill-rule="evenodd">
        <g id="icon-excel" transform="translate(1.000000, 1.000000)" stroke="#41A940">
            <path d="M114.196769,13.6153846 L72.6153846,13.6153846 L72.6153846,27.1581538 L86.3714615,27.1581538 L86.3714615,36.3757692 L72.6153846,36.3757692 L72.6153846,45.3846154 L86.2307692,45.3846154 L86.2307692,54.4615385 L72.6153846,54.4615385 L72.6153846,63.5384615 L86.2307692,63.5384615 L86.2307692,72.6153846 L72.6153846,72.6153846 L72.6153846,81.6923077 L86.2307692,81.6923077 L86.2307692,90.7692308 L72.6153846,90.7692308 L72.6153846,104.384615 L114.196769,104.384615 C116.289,104.384615 118,102.610077 118,100.436154 L118,17.5638462 C118,15.3899231 116.289,13.6153846 114.196769,13.6153846 Z M108.923077,90.7692308 L90.7692308,90.7692308 L90.7692308,81.6923077 L108.923077,81.6923077 L108.923077,90.7692308 Z M108.923077,72.6153846 L90.7692308,72.6153846 L90.7692308,63.5384615 L108.923077,63.5384615 L108.923077,72.6153846 Z M108.923077,54.4615385 L90.7692308,54.4615385 L90.7692308,45.3846154 L108.923077,45.3846154 L108.923077,54.4615385 Z M108.923077,36.3076923 L90.7692308,36.3076923 L90.7692308,27.2307692 L108.923077,27.2307692 L108.923077,36.3076923 Z" id="Shape"></path>
            <path d="M0,13.1116154 L0,104.892923 L68.0769231,118 L68.0769231,0 L0,13.1116154 Z M43.0609231,82.0553846 L35.1413077,67.083 C34.8417692,66.5247692 34.5331538,65.4990769 34.2109231,64.0059231 L34.0883846,64.0059231 C33.9386154,64.7093846 33.5846154,65.7804615 33.0263846,67.2146154 L25.0795385,82.0553846 L12.7394615,82.0553846 L27.3896154,59.0726154 L13.9875385,36.0853077 L26.5863077,36.0853077 L33.158,49.8686154 C33.6708462,50.9578462 34.1292308,52.2513077 34.5376923,53.7444615 L34.6647692,53.7444615 C34.9234615,52.8458462 35.4045385,51.5115385 36.108,49.737 L43.4149231,36.0807692 L54.9516923,36.0807692 L41.1683846,58.8729231 L55.3374615,82.0508462 L43.0609231,82.0553846 L43.0609231,82.0553846 Z" id="Shape"></path>
        </g>
    </g>
</svg>