<?xml version="1.0" encoding="UTF-8"?>
<svg width="120px" height="120px" viewBox="0 0 120 120" version="1.1" xmlns="http://www.w3.org/2000/svg" xmlns:xlink="http://www.w3.org/1999/xlink">
    <!-- Generator: Sketch 41.2 (35397) - http://www.bohemiancoding.com/sketch -->
    <title>icon-xero</title>
    <desc>Created with Sketch.</desc>
    <defs></defs>
    <g id="Sprint-2" stroke="none" stroke-width="1" fill="none" fill-rule="evenodd">
        <g id="icon-xero" transform="translate(1.000000, 1.000000)" stroke="#41A940">
            <path d="M58.9114108,0 C91.4473421,0 117.822621,26.3752792 117.822621,58.9114108 C117.822621,91.4471417 91.4473421,117.822621 58.9114108,117.822621 C26.3754796,117.822621 0,91.4471417 0,58.9114108 C0,26.3752792 26.3754796,0 58.9114108,0" id="path20" transform="translate(58.911311, 58.911311) scale(1, -1) translate(-58.911311, -58.911311) "></path>
            <path d="M28.3001566,58.8252369 L38.3538566,68.9037895 C38.6871627,69.2435092 38.8731568,69.6932621 38.8731568,70.1702727 C38.8731568,71.1643788 38.0650447,71.9716892 37.0709385,71.9716892 C36.5867127,71.9716892 36.1327509,71.7818871 35.7904256,71.4353529 C35.7894235,71.4333487 25.7457448,61.3954822 25.7457448,61.3954822 L15.6561688,71.4503847 C15.3152465,71.7864968 14.8634894,71.9716892 14.3844746,71.9716892 C13.391571,71.9716892 12.5832585,71.1647797 12.5832585,70.1716756 C12.5832585,69.6872493 12.7766682,69.2326863 13.1238037,68.8901606 L23.1761007,58.8392666 L13.1290147,48.7733407 C12.7758665,48.425604 12.5832585,47.9700388 12.5832585,47.4834079 C12.5832585,46.4895021 13.391571,45.6831939 14.3844746,45.6831939 C14.8642911,45.6831939 15.3164491,45.8693884 15.6561688,46.2093085 L25.7301117,56.2696225 L35.7657734,46.2459862 C36.1217275,45.8780066 36.5809003,45.6819913 37.0709385,45.6819913 C38.0640426,45.6819913 38.8721546,46.4895021 38.8721546,47.4834079 C38.8721546,47.963024 38.686361,48.4135785 38.3482447,48.7532983 L28.3001566,58.8252369 Z" id="path22" transform="translate(25.728208, 58.826840) scale(1, -1) translate(-25.728208, -58.826840) "></path>
            <path d="M88.0677814,58.8252369 C88.0677814,57.0202127 89.535491,55.5519019 91.3427198,55.5519019 C93.1457397,55.5519019 94.6140505,57.0202127 94.6140505,58.8252369 C94.6140505,60.6306619 93.1457397,62.0987722 91.3427198,62.0987722 C89.535491,62.0987722 88.0677814,60.6306619 88.0677814,58.8252369" id="path24" transform="translate(91.340916, 58.825337) scale(1, -1) translate(-91.340916, -58.825337) "></path>
            <path d="M81.8594283,58.8244352 C81.8594283,64.0515093 86.1116371,68.3045199 91.3393126,68.3045199 C96.5643825,68.3045199 100.817593,64.0515093 100.817593,58.8244352 C100.817593,53.5985635 96.5643825,49.3473568 91.3393126,49.3473568 C86.1116371,49.3473568 81.8594283,53.5985635 81.8594283,58.8244352 M78.1303278,58.8244352 C78.1303278,51.5422069 84.0558817,45.6174546 91.3393126,45.6174546 C98.622543,45.6174546 104.551103,51.5422069 104.551103,58.8244352 C104.551103,66.1076656 98.622543,72.0340213 91.3393126,72.0340213 C84.0558817,72.0340213 78.1303278,66.1076656 78.1303278,58.8244352" id="path26" transform="translate(91.340716, 58.825738) scale(1, -1) translate(-91.340716, -58.825738) "></path>
            <path d="M77.1927414,71.8099465 L76.6385673,71.8115499 C74.9748425,71.8115499 73.3702429,71.2868383 72.0300035,70.2540502 C71.8534294,71.0621623 71.1310991,71.6702506 70.2706761,71.6702506 C69.2803781,71.6702506 68.486897,70.8767695 68.4844919,69.8844672 C68.4844919,69.8808595 68.4905046,47.637334 68.4905046,47.637334 C68.4931102,46.6468355 69.3010218,45.8417298 70.2919212,45.8417298 C71.2826201,45.8417298 72.0903313,46.6468355 72.0929368,47.6395386 C72.0929368,47.643948 72.0937385,61.3187196 72.0937385,61.3187196 C72.0937385,65.8779789 72.5106217,67.71928 76.4160959,68.2073139 C76.7770607,68.252209 77.1696925,68.2451942 77.1712959,68.2451942 C78.23996,68.2818719 78.9993689,69.0162277 78.9993689,70.0087304 C78.9993689,71.0018344 78.1886513,71.8099465 77.1927414,71.8099465" id="path28" transform="translate(73.741930, 58.826640) scale(1, -1) translate(-73.741930, -58.826640) "></path>
            <path d="M42.6046624,61.0629983 C42.6046624,61.1123027 42.6084705,61.1636114 42.6108756,61.2143189 C43.6566912,65.3484776 47.4008236,68.407759 51.8598707,68.407759 C56.3728319,68.407759 60.1512369,65.2733183 61.1435392,61.0629983 L42.6046624,61.0629983 Z M64.8323544,61.4031189 C64.0561098,65.0783052 62.0440471,68.0971009 58.9801558,70.0358082 C54.5014672,72.8792324 48.5873374,72.721899 44.2613723,69.6455815 C40.7326964,67.1352631 38.695781,63.028763 38.695781,58.7986009 C38.695781,57.7379538 38.8236519,56.6672854 39.0898158,55.6134528 C40.4222387,50.371948 44.9281851,46.4041417 50.3003667,45.7465486 C51.8945441,45.5535396 53.4462316,45.6459354 55.0530358,46.0620169 C56.433761,46.3979286 57.7697915,46.957915 59.0007996,47.7467863 C60.2785065,48.5681264 61.3459681,49.6512211 62.3797583,50.947768 C62.4006025,50.9716185 62.421647,50.9926631 62.4424912,51.0177161 C63.1600114,51.9076015 63.0269294,53.1730825 62.2384589,53.7771624 C61.57345,54.2868422 60.4570849,54.49348 59.5786238,53.3684966 C59.3898238,53.0995267 59.1791775,52.8227403 58.9472862,52.5459539 C58.2488064,51.7741187 57.3821703,51.0263344 56.3437703,50.4463055 C55.0223708,49.74041 53.5165806,49.3369553 51.9157891,49.3279361 C46.6762886,49.3862597 43.8725486,53.0436082 42.8752356,55.654139 C42.7010666,56.1415716 42.5667821,56.647243 42.4731838,57.1679461 C42.4609579,57.2653525 42.4519388,57.3593517 42.4483312,57.4459351 C43.5316263,57.4459351 61.250566,57.4489415 61.250566,57.4489415 C63.828227,57.5030561 65.2155663,59.3225108 64.8323544,61.4031189 L64.8323544,61.4031189 Z" id="path30" transform="translate(51.795548, 58.857716) scale(1, -1) translate(-51.795548, -58.857716) "></path>
        </g>
    </g>
</svg>