<?xml version="1.0" standalone="no"?>
<!DOCTYPE svg PUBLIC "-//W3C//DTD SVG 1.1//EN" "http://www.w3.org/Graphics/SVG/1.1/DTD/svg11.dtd" >
<svg xmlns="http://www.w3.org/2000/svg">
<metadata></metadata>
<defs>
<font id="adelle_sans_sagelight" horiz-adv-x="1554" >
<font-face units-per-em="2048" ascent="1546" descent="-502" />
<missing-glyph horiz-adv-x="471" />
<glyph unicode="&#xfb01;" horiz-adv-x="1132" d="M41 932v115h160v190q0 328 282 328q104 0 174 -33l-6 -111q-76 27 -149 27q-164 0 -164 -191v-210h620v-1047h-137v932h-483v-932h-137v932h-160zM782 1388.5q0 108.5 111 108.5t111 -108.5t-111 -108.5t-111 108.5z" />
<glyph unicode="&#xfb02;" horiz-adv-x="1132" d="M41 932v115h160v190q0 328 282 328q104 0 174 -33l-6 -111q-76 27 -149 27q-164 0 -164 -191v-210h297v-115h-297v-932h-137v932h-160zM821 0v1546h137v-1546h-137z" />
<glyph unicode="&#xfb03;" horiz-adv-x="1753" d="M41 932v115h160v190q0 328 282 328q104 0 174 -33l-6 -111q-76 27 -149 27q-164 0 -164 -191v-210h483v190q0 328 283 328q104 0 174 -33l-6 -111q-76 27 -150 27q-164 0 -164 -191v-210h621v-1047h-137v932h-484v-932h-137v932h-483v-932h-137v932h-160zM1403 1388.5 q0 108.5 110.5 108.5t110.5 -108.5t-110.5 -108.5t-110.5 108.5z" />
<glyph unicode="&#xfb04;" horiz-adv-x="1753" d="M41 932v115h160v190q0 328 282 328q104 0 174 -33l-6 -111q-76 27 -149 27q-164 0 -164 -191v-210h483v190q0 328 283 328q104 0 174 -33l-6 -111q-76 27 -150 27q-164 0 -164 -191v-210h297v-115h-297v-932h-137v932h-483v-932h-137v932h-160zM1442 0v1546h137v-1546 h-137z" />
<glyph horiz-adv-x="0" />
<glyph horiz-adv-x="0" />
<glyph horiz-adv-x="682" />
<glyph unicode="&#xd;" horiz-adv-x="681" />
<glyph unicode=" "  horiz-adv-x="471" />
<glyph unicode="&#x09;" horiz-adv-x="471" />
<glyph unicode="&#xa0;" horiz-adv-x="471" />
<glyph unicode="!" horiz-adv-x="524" d="M145 92q0 117 119 117t119 -117t-119 -117t-119 117zM182 1483h158l-31 -1108h-92z" />
<glyph unicode="&#x22;" horiz-adv-x="737" d="M133 952v531h148v-531h-148zM457 952v531h147v-531h-147z" />
<glyph unicode="#" horiz-adv-x="1243" d="M74 299l26 107h240l51 331h-248l25 109h240l38 266h123l-41 -266h273l39 266h123l-41 -266h247l-22 -109h-242l-47 -331h244l-23 -107h-237l-45 -299h-121l45 299h-277l-45 -299h-120l43 299h-248zM461 406h276l47 331h-272z" />
<glyph unicode="$" horiz-adv-x="1067" d="M76 397l129 29q27 -154 87 -222.5t197 -76.5v551q-86 23 -136 43t-109.5 62t-88 112t-28.5 168q0 174 100.5 272.5t261.5 114.5v172h115v-170q301 -25 348 -356l-131 -23q-23 113 -69.5 176.5t-147.5 79.5v-551q174 -45 267.5 -129t93.5 -256q0 -162 -95.5 -260 t-265.5 -117v-180h-115v178q-178 6 -284.5 93.5t-128.5 289.5zM266 1073q0 -100 48 -162.5t175 -103.5v522q-223 -27 -223 -256zM604 131q219 35 219 260q0 106 -56 161.5t-163 92.5v-514z" />
<glyph unicode="%" horiz-adv-x="1615" d="M102 1126q0 172 88.5 277.5t247.5 105.5q162 0 240 -94t78 -262q0 -176 -87 -281.5t-247 -105.5q-168 0 -244 102.5t-76 257.5zM236 1137q0 -190 98 -244q35 -21 94 -21q195 0 195 273q0 186 -95 235q-41 20 -94 21q-106 0 -152 -78t-46 -186zM283 -35q66 113 198.5 337 t200.5 337q84 139 251 420.5t249 423.5h133q-68 -113 -200 -337t-200 -337q-82 -141 -247.5 -423t-249.5 -421h-135zM860 336q0 172 88 277.5t248 105.5q162 0 239.5 -94.5t77.5 -262.5q0 -176 -86.5 -281.5t-246.5 -105.5q-168 0 -244 102.5t-76 258.5zM993 346 q0 -264 193 -264q195 0 194 272q0 256 -188 256q-106 0 -152.5 -77.5t-46.5 -186.5z" />
<glyph unicode="&#x26;" horiz-adv-x="1394" d="M129 373q0 143 67.5 238.5t200.5 170.5q-59 111 -75 234q-6 41 -7 82q0 137 98.5 233t250.5 96q37 0 75 -6q213 -37 213 -268q0 -125 -83 -210t-310 -191q61 -109 176 -258.5t203 -241.5q111 143 121 436h123q-8 -332 -158 -518q104 -88 197 -88q49 0 100 24l33 -94 q-53 -37 -140 -37q-135 0 -274 113q-145 -113 -369 -113q-195 0 -318.5 111t-123.5 287zM264 385q0 -121 83 -207t237 -86q164 0 270 76q-221 217 -408 528q-135 -78 -170 -202q-12 -49 -12 -109zM451 1106q0 -129 63 -264l84 37q227 98 227 268q0 70 -45 116t-127 46 q-92 0 -147 -52.5t-55 -150.5z" />
<glyph unicode="'" horiz-adv-x="413" d="M133 952v531h148v-531h-148z" />
<glyph unicode="(" horiz-adv-x="612" d="M121 573q0 455 309 910h141q-311 -500 -311 -908q0 -250 73 -452.5t216 -435.5l-137 2q-291 455 -291 884z" />
<glyph unicode=")" horiz-adv-x="612" d="M41 1483h141q309 -455 310 -910q0 -429 -291 -884l-138 -2q143 233 216 436t73 452q0 408 -311 908z" />
<glyph unicode="*" horiz-adv-x="960" d="M115 1255l22 62l277 -68l39 297h61l35 -297l272 70l21 -62l-254 -127l168 -258l-51 -38l-226 213l-221 -218l-51 41l166 258z" />
<glyph unicode="+" horiz-adv-x="1167" d="M201 598v127h311v315h141v-315h312v-127h-312v-330h-141v330h-311z" />
<glyph unicode="," horiz-adv-x="425" d="M45 -240l109 430h161l-161 -446z" />
<glyph unicode="-" horiz-adv-x="649" d="M41 537v137h555v-137h-555z" />
<glyph unicode="." horiz-adv-x="442" d="M102 92q0 117 119 117t119 -117t-119 -117t-119 117z" />
<glyph unicode="/" horiz-adv-x="722" d="M12 -188l576 1734h123l-574 -1734h-125z" />
<glyph unicode="0" horiz-adv-x="1132" d="M92 735q0 170 20.5 299t73 242t151.5 173t245 60q143 0 238 -59t141.5 -172t62.5 -231.5t16 -282.5q0 -180 -19.5 -311t-69.5 -245t-147.5 -173.5t-242.5 -59.5q-117 0 -203 41t-136 106.5t-79.5 168t-40 206t-10.5 238.5zM233 729q0 -145 12.5 -247.5t46.5 -198 t102.5 -144.5t173 -49t172 48t101 145.5t46 205t12.5 261.5q0 121 -6 206.5t-24.5 173t-53.5 140.5t-94 86t-143 33t-146.5 -33t-99.5 -88.5t-59.5 -142.5t-31 -180t-8.5 -216z" />
<glyph unicode="1" horiz-adv-x="821" d="M88 1311q147 12 241.5 52t162.5 120h63v-1483h-133v1278q-49 -29 -154.5 -50.5t-165.5 -21.5z" />
<glyph unicode="2" horiz-adv-x="1054" d="M106 1151q58 358 433 358q178 0 283.5 -89t105.5 -273q0 -160 -77 -296t-247 -339l-325 -393h669v-119h-825v106l358 445q180 221 242.5 332.5t62.5 255.5q0 256 -262 256q-150 0 -211 -69t-84 -200z" />
<glyph unicode="3" horiz-adv-x="1095" d="M90 303l133 25q23 -117 79 -175.5t206 -58.5q133 0 221 80t88 242q0 311 -340 311h-127v119h94q162 0 257.5 83t95.5 216q0 246 -258 246q-135 0 -193.5 -53.5t-91.5 -170.5l-127 29q63 313 428 313q184 0 282.5 -94t98.5 -252q0 -160 -87 -248t-206 -114v-4 q317 -51 318 -381q0 -197 -124 -319t-333 -122q-375 0 -414 328z" />
<glyph unicode="4" horiz-adv-x="1095" d="M41 381v100l651 1002h176v-985h179v-117h-181v-381h-133v381h-692zM186 498h549v850z" />
<glyph unicode="5" horiz-adv-x="1093" d="M70 305l133 33q25 -109 89 -174.5t208 -65.5q135 0 232 95.5t97 291.5q0 168 -80.5 251t-218.5 83q-156 0 -282 -121l-96 45l57 740h680v-119h-565l-45 -524q127 100 290 100q80 0 148.5 -21.5t129 -69.5t96.5 -141.5t36 -220.5q0 -227 -127 -369.5t-354 -142.5 q-166 0 -284 83t-144 247z" />
<glyph unicode="6" horiz-adv-x="1146" d="M137 688q0 109 12.5 212.5t48 217t93 197.5t155 139t222.5 55q295 0 354 -303l-123 -32q-31 125 -91 172t-157 47q-109 0 -187.5 -66.5t-117.5 -176.5t-56.5 -215.5t-19.5 -219.5q59 74 165 130t218 56q195 0 292 -117.5t97 -308.5q0 -233 -119.5 -366.5t-326.5 -133.5 q-135 0 -229.5 56.5t-142.5 162t-67.5 223.5t-19.5 271zM279 586q4 -82 12 -141.5t28.5 -131t54.5 -117.5t92 -77t136 -31q133 0 218 94t85 281q0 158 -66.5 238.5t-191.5 80.5q-106 0 -203 -57t-165 -139z" />
<glyph unicode="7" horiz-adv-x="1034" d="M76 1364v119h917v-103l-618 -1380h-148l619 1364h-770z" />
<glyph unicode="8" horiz-adv-x="1081" d="M86 352q0 150 88 242t240 160q-121 51 -201 150.5t-80 223.5q0 182 123 281.5t315 99.5q190 0 300 -89t110 -249q0 -247 -313 -403q78 -33 125 -60.5t102 -73.5t82 -112.5t27 -154.5q0 -174 -128 -283t-339 -109q-227 0 -339 103.5t-112 273.5zM223 356q0 -121 79 -194.5 t241 -73.5q164 0 244.5 83t80.5 198q0 74 -28.5 130t-89 96t-101.5 58t-117 47q-158 -70 -233.5 -144.5t-75.5 -199.5zM268 1147q0 -119 81 -203t202 -129q295 145 295 354q0 111 -73 171.5t-214 60.5q-135 0 -213 -68.5t-78 -185.5z" />
<glyph unicode="9" horiz-adv-x="1146" d="M109 285l127 32q31 -127 100.5 -178t181.5 -51q104 0 177 52.5t113 148.5t57.5 207.5t21.5 255.5q-59 -72 -166 -129.5t-219 -57.5q-195 0 -292 123t-97 322q0 233 119.5 366t326.5 133q135 0 229.5 -56t142.5 -161.5t67.5 -223.5t19.5 -271q0 -170 -20.5 -303.5 t-74 -257t-159 -192.5t-258.5 -69q-338 1 -397 310zM250 1012q0 -328 268 -328q100 0 195.5 56.5t163.5 140.5q-4 82 -12.5 143t-29 136t-54 123t-92 81t-136.5 33q-135 0 -219 -96.5t-84 -288.5z" />
<glyph unicode=":" horiz-adv-x="442" d="M102 92q0 117 119 117t119 -117t-119 -117t-119 117zM102 899q0 117 119 117t119 -117t-119 -117t-119 117z" />
<glyph unicode=";" horiz-adv-x="425" d="M23 -240l108 430h162l-162 -446zM123 899q0 117 118.5 117t118.5 -117t-118.5 -117t-118.5 117z" />
<glyph unicode="&#x3c;" horiz-adv-x="1167" d="M182 504v160l766 325v-133l-635 -264l635 -252v-139z" />
<glyph unicode="=" horiz-adv-x="1167" d="M207 350v127h756v-127h-756zM207 676v127h756v-127h-756z" />
<glyph unicode="&#x3e;" horiz-adv-x="1167" d="M182 213v127l635 252l-635 258v139l766 -325v-148z" />
<glyph unicode="?" horiz-adv-x="1009" d="M27 1145q12 66 39.5 121t77 106t132 81t189.5 30q184 0 298 -90t114 -295q0 -377 -451 -459v-266h-129v362q203 18 321.5 95t118.5 255q0 156 -74.5 217.5t-205.5 61.5q-123 0 -200 -52t-107 -192zM240 92q0 117 118.5 117t118.5 -117t-118.5 -117t-118.5 117z" />
<glyph unicode="@" horiz-adv-x="1714" d="M102 391q0 348 218.5 560t572.5 212q319 0 519 -168t200 -483q0 -260 -92.5 -388t-251.5 -128q-168 0 -224 115q-94 -127 -251 -127q-303 0 -304 381q0 197 97.5 322.5t257.5 125.5q113 0 192 -74l8 62h113v-512q0 -41 1 -62.5t7 -50.5t18.5 -43t35 -24.5t55.5 -10.5 q90 0 147.5 94.5t57.5 288.5q0 567 -598 568q-293 0 -467 -181.5t-174 -472.5q0 -309 178 -465.5t469 -156.5q278 0 428 143l78 -86q-174 -174 -523 -174q-338 0 -553 190.5t-215 544.5zM627 369q0 -274 180 -275q72 0 131 41t92 109v389q-80 70 -176 69 q-100 0 -163.5 -82.5t-63.5 -250.5z" />
<glyph unicode="A" horiz-adv-x="1388" d="M92 0l504 1483h188l512 -1483h-151l-160 477h-598l-160 -477h-135zM428 598h518l-258 772z" />
<glyph unicode="B" horiz-adv-x="1298" d="M215 0v1483h487q246 0 345.5 -96.5t99.5 -266.5q0 -150 -86 -235.5t-223 -112.5v-4q358 -47 358 -369q0 -215 -142.5 -307t-402.5 -92h-436zM350 121h291q78 0 133 5t110.5 22.5t90.5 48t56.5 83t21.5 123.5q0 78 -27 133.5t-66.5 86t-106.5 48t-129 22.5t-151 5h-223 v-577zM350 817h254q70 0 134.5 12.5t127 43t100.5 90t38 143.5q0 72 -18.5 120t-48.5 75.5t-91.5 41t-120.5 17.5t-162 4h-213v-547z" />
<glyph unicode="C" horiz-adv-x="1415" d="M113 715q0 379 184 586.5t496 207.5q236 0 378 -120.5t160 -362.5l-129 -12q-27 188 -123 282.5t-286 94.5q-254 0 -397.5 -169t-143.5 -491q0 -641 510 -641q186 0 290.5 81t145.5 255l121 -27q-20 -115 -75.5 -198.5t-134.5 -132t-168 -71t-189 -22.5 q-328 0 -483.5 197t-155.5 543z" />
<glyph unicode="D" horiz-adv-x="1492" d="M215 0v1483h430q375 0 555 -187.5t180 -531.5q0 -354 -192.5 -559t-577.5 -205h-395zM352 119h269q301 0 458.5 159.5t157.5 454.5q0 350 -151.5 490.5t-452.5 140.5h-281v-1245z" />
<glyph unicode="E" horiz-adv-x="1171" d="M215 0v1483h838v-119h-701v-551h656v-121h-656v-573h721v-119h-858z" />
<glyph unicode="F" horiz-adv-x="1116" d="M215 0v1483h838v-119h-701v-578h649v-120h-649v-666h-137z" />
<glyph unicode="G" horiz-adv-x="1505" d="M113 725q0 379 183 581.5t501 202.5q498 0 534 -483l-129 -14q-20 203 -122.5 292t-288.5 89q-252 0 -395.5 -173t-143.5 -483q0 -649 518 -649q203 0 317.5 124t114.5 282v153h-444v121h569v-768h-102l-23 209q-39 -96 -167 -165t-287 -69q-322 0 -478.5 201t-156.5 549 z" />
<glyph unicode="H" horiz-adv-x="1486" d="M215 0v1483h137v-660h783v660h137v-1483h-137v702h-783v-702h-137z" />
<glyph unicode="I" horiz-adv-x="567" d="M215 0v1483h137v-1483h-137z" />
<glyph unicode="J" horiz-adv-x="997" d="M61 291l132 22q14 -115 60 -168t171 -53q117 0 179.5 52t62.5 206v1133h137v-1129q0 -209 -99.5 -294t-287.5 -85q-174 0 -260 79t-95 237z" />
<glyph unicode="K" horiz-adv-x="1294" d="M215 0v1483h137v-760l703 760h162l-601 -645l644 -838h-162l-574 739l-172 -184v-555h-137z" />
<glyph unicode="L" horiz-adv-x="1116" d="M215 0v1483h137v-1364h680v-119h-817z" />
<glyph unicode="M" horiz-adv-x="1822" d="M215 0v1483h213l485 -1346l486 1346h209v-1483h-131v1335l-488 -1335h-162l-483 1337v-1337h-129z" />
<glyph unicode="N" horiz-adv-x="1525" d="M215 0v1483h197l770 -1317v1317h129v-1483h-174l-791 1335v-1335h-131z" />
<glyph unicode="O" d="M113 743q0 342 181 554t503 212q313 0 479 -204.5t166 -530.5q0 -371 -175 -585t-499 -214t-489.5 210t-165.5 558zM256 743q0 -307 142 -477t378 -170q238 0 381 169t143 489q0 301 -138 468t-369 167q-238 0 -387.5 -170t-149.5 -476z" />
<glyph unicode="P" horiz-adv-x="1257" d="M215 0v1483h453q264 0 378.5 -120t114.5 -316q0 -481 -561 -482h-250v-565h-135zM350 686h246q78 0 135 7t113.5 29.5t93.5 61.5t58.5 104.5t21.5 153.5q0 193 -109.5 257.5t-373.5 64.5h-185v-678z" />
<glyph unicode="Q" d="M113 743q0 342 181 554t503 212q313 0 479 -204.5t166 -530.5q0 -406 -205 -616l188 -205l-86 -78l-192 205q-158 -105 -379 -105q-324 0 -489.5 210t-165.5 558zM256 743q0 -307 142 -477t378 -170q164 0 283 80l-279 307l90 82l279 -309q151 173 151 494 q0 306 -138 472q-138 167 -369 167q-238 0 -387.5 -170t-149.5 -476z" />
<glyph unicode="R" horiz-adv-x="1296" d="M215 0v1483h479q254 0 364.5 -114t110.5 -284q0 -319 -299 -411l375 -674h-149l-357 639h-389v-639h-135zM350 758h322q174 0 264 73.5t90 251.5q0 162 -97.5 221.5t-287.5 59.5h-291v-606z" />
<glyph unicode="S" horiz-adv-x="1210" d="M72 387l137 21q35 -145 120 -229.5t269 -84.5q70 0 129 13.5t113.5 44t86 88t31.5 137.5q0 90 -45 152.5t-117.5 94t-159.5 56.5t-174 53.5t-160 69.5t-118 121t-45 192q0 178 135.5 285.5t348.5 107.5q426 0 473 -411l-131 -17q-12 63 -31 109.5t-53.5 95.5t-98 74.5 t-153.5 25.5q-180 0 -262 -71.5t-82 -192.5q0 -86 45 -146.5t117.5 -93t159.5 -58t174 -55.5t160 -72t118 -117.5t45 -184.5q0 -213 -143.5 -316.5t-362.5 -103.5q-240 0 -367 102.5t-159 309.5z" />
<glyph unicode="T" horiz-adv-x="1101" d="M31 1364v119h1040v-119h-450v-1364h-138v1364h-452z" />
<glyph unicode="U" horiz-adv-x="1466" d="M205 483v1000h137v-991q0 -211 100 -303.5t293 -92.5q197 0 293 89t96 302v996h138v-1002q0 -252 -138.5 -379t-400.5 -127q-270 0 -394 128t-124 380z" />
<glyph unicode="V" horiz-adv-x="1236" d="M31 1483h151l453 -1362l432 1362h139l-479 -1483h-188z" />
<glyph unicode="W" horiz-adv-x="1757" d="M41 1483h145l271 -1319l352 1319h158l350 -1340l264 1340h135l-311 -1483h-174l-346 1311l-357 -1311h-159z" />
<glyph unicode="X" horiz-adv-x="1257" d="M41 0l491 754l-466 729h153l397 -627l406 627h147l-467 -719l515 -764h-154l-445 662l-425 -662h-152z" />
<glyph unicode="Y" horiz-adv-x="1126" d="M0 1483h152l423 -764l412 764h139l-485 -895v-588h-137v582z" />
<glyph unicode="Z" horiz-adv-x="1200" d="M76 0v98l827 1266h-803v119h973v-103l-827 -1261h862v-119h-1032z" />
<glyph unicode="[" horiz-adv-x="518" d="M139 -293v1776h297v-90l-170 -17v-1558l170 -19v-92h-297z" />
<glyph unicode="\" horiz-adv-x="722" d="M12 1546h123l576 -1734h-125z" />
<glyph unicode="]" horiz-adv-x="518" d="M82 -201l170 19v1558l-170 17v90h297v-1776h-297v92z" />
<glyph unicode="^" horiz-adv-x="1077" d="M61 612l404 748h141l410 -748h-139l-345 621l-337 -621h-134z" />
<glyph unicode="_" horiz-adv-x="1024" d="M0 -264h1024v-107h-1024v107z" />
<glyph unicode="`" horiz-adv-x="1024" d="M285 1534h180l217 -336l-107 -27z" />
<glyph unicode="a" horiz-adv-x="1095" d="M123 258q0 352 508 352q55 0 137 -4v105q0 127 -48 186t-179 59q-119 0 -173.5 -45t-72.5 -143l-129 23q25 143 119 209.5t264 66.5q188 0 272 -82.5t84 -275.5v-541q0 -45 12.5 -63.5t51.5 -18.5q25 0 63 12l8 -88q-55 -28 -120 -28h-5q-127 0 -135 131 q-131 -137 -348 -138q-94 0 -159.5 29t-95.5 76t-42 90t-12 88zM266 279q0 -193 199 -193q86 0 169 41t136 102v267q-49 6 -129 6q-72 0 -122 -6.5t-115.5 -25.5t-101.5 -67.5t-36 -123.5z" />
<glyph unicode="b" horiz-adv-x="1181" d="M184 0v1546h135v-622q172 143 371 143q379 0 379 -518q0 -289 -125 -431.5t-317 -142.5q-156 0 -312 115l-10 -90h-121zM322 217q164 -125 305 -125q303 0 303 463q0 213 -66.5 306t-208.5 93q-92 0 -183 -47t-150 -108v-582z" />
<glyph unicode="c" horiz-adv-x="1097" d="M113 516q0 270 129 410.5t366 140.5q162 0 267.5 -90t113.5 -260l-137 -19q-27 250 -256 250q-143 0 -241.5 -95t-98.5 -318q0 -238 95 -337.5t241 -99.5q236 0 276 232l129 -27q-25 -166 -140 -247t-273 -81q-246 0 -358.5 144.5t-112.5 396.5z" />
<glyph unicode="d" horiz-adv-x="1171" d="M113 510q0 287 123.5 422t318.5 135q172 0 305 -98v577h137v-1546h-116l-13 117q-170 -141 -360 -142q-186 0 -290.5 129t-104.5 406zM252 504q0 -215 69.5 -315.5t219.5 -100.5q88 0 174 45t145 111v598q-142 108 -302 108h-3q-303 0 -303 -446z" />
<glyph unicode="e" horiz-adv-x="1118" d="M113 522q0 272 136 408.5t349 136.5q205 0 304 -122t99 -322q-4 -86 -10 -127h-733q6 -219 95 -308.5t241 -89.5q119 0 178 48.5t86 150.5l129 -25q-33 -150 -141 -223.5t-262 -73.5q-131 0 -226.5 44t-146.5 123t-74.5 172.5t-23.5 207.5zM260 606h598v14 q0 328 -272 328q-131 0 -224.5 -85t-101.5 -257z" />
<glyph unicode="f" horiz-adv-x="636" d="M41 932v115h160v190q0 328 282 328q104 0 174 -33l-6 -111q-76 27 -149 27q-164 0 -164 -191v-210h297v-115h-297v-932h-137v932h-160z" />
<glyph unicode="g" horiz-adv-x="1161" d="M113 510q0 287 123.5 422t318.5 135q152 0 305 -111l10 91h127v-1010q0 -498 -471 -498q-330 0 -397 281l123 41q49 -199 278 -199q158 0 247 75t89 288v92q-170 -141 -358 -142q-186 0 -290.5 129t-104.5 406zM252 504q0 -217 67.5 -316.5t221.5 -99.5q86 0 173 46.5 t146 109.5v585q-154 121 -305 121q-303 0 -303 -446z" />
<glyph unicode="h" horiz-adv-x="1191" d="M184 0v1546h138v-628q200 149 383 149h2q164 0 240.5 -90t76.5 -270v-707h-137v692q0 125 -50.5 189.5t-166.5 64.5q-92 0 -190.5 -48t-157.5 -101v-797h-138z" />
<glyph unicode="i" horiz-adv-x="495" d="M145 1409q0 109 111 109t111 -109t-111 -109t-111 109zM184 0v1047h138v-1047h-138z" />
<glyph unicode="j" horiz-adv-x="489" d="M-123 -424l19 113q78 -29 149 -29q139 0 139 170v1217h138v-1209q-1 -295 -269 -295q-121 0 -176 33zM147 1409q0 109 111 109t111 -109t-111 -109t-111 109z" />
<glyph unicode="k" horiz-adv-x="1060" d="M184 0v1546h138v-1005l491 506h160l-369 -379l395 -668h-149l-344 569l-184 -188v-381h-138z" />
<glyph unicode="l" horiz-adv-x="495" d="M184 0v1546h138v-1546h-138z" />
<glyph unicode="m" horiz-adv-x="1783" d="M184 0v1047h121l8 -132q203 152 373 152q203 0 260 -154q207 154 379 154q162 0 226.5 -88t64.5 -272v-707h-137v692q0 133 -37 193.5t-146 60.5q-80 0 -171 -43t-154 -96q6 -47 6 -100v-707h-137v692q0 133 -37 193.5t-146 60.5q-84 0 -180 -48t-155 -101v-797h-138z " />
<glyph unicode="n" horiz-adv-x="1191" d="M184 0v1047h121l8 -132q203 152 394 152q164 0 240.5 -90t76.5 -270v-707h-137v692q0 125 -50.5 189.5t-166.5 64.5q-92 0 -190.5 -48t-157.5 -101v-797h-138z" />
<glyph unicode="o" horiz-adv-x="1175" d="M113 518q0 258 129 403.5t368 145.5q231 0 342 -139.5t111 -382.5q0 -570 -479 -570q-471 0 -471 543zM254 526q0 -434 340 -434q326 0 326 440q0 225 -80 320.5t-238 95.5q-162 0 -255 -104.5t-93 -317.5z" />
<glyph unicode="p" horiz-adv-x="1181" d="M184 -434v1481h121l8 -127q178 147 377 147q379 0 379 -518q0 -289 -125 -431.5t-317 -142.5q-154 0 -310 115v-524h-133zM322 217q164 -125 305 -125q303 0 303 463q0 213 -66.5 306t-208.5 93q-92 0 -183 -47t-150 -108v-582z" />
<glyph unicode="q" horiz-adv-x="1165" d="M113 510q0 287 123.5 422t318.5 135q156 0 305 -111l10 91h127v-1481h-131v551q-170 -141 -358 -142q-186 0 -290.5 129t-104.5 406zM252 504q0 -215 69.5 -315.5t219.5 -100.5q172 0 319 156v585q-160 121 -305 121q-303 0 -303 -446z" />
<glyph unicode="r" horiz-adv-x="720" d="M184 0v1047h113l12 -146q72 96 156 132q80 34 189 34h12h32v-143q-29 5 -59 5q-69 0 -143 -25q-108 -36 -174 -101v-803h-138z" />
<glyph unicode="s" horiz-adv-x="985" d="M94 293l131 22q25 -109 83.5 -165t197.5 -56q242 0 242 174q0 84 -52.5 118t-185.5 69q-8 2 -64.5 16t-70 18.5t-60.5 20.5t-62 27.5t-46 36t-42 50t-22.5 62.5t-11.5 80q0 145 106.5 223t264.5 78q178 0 262 -81t104 -234l-135 -17q-20 115 -67.5 165t-167.5 50 q-225 0 -226 -170q0 -84 56.5 -119.5t193.5 -70.5q78 -18 115 -29.5t94 -36t85 -54.5t49.5 -80t21.5 -116q0 -137 -100.5 -218t-286.5 -81q-362 0 -406 318z" />
<glyph unicode="t" horiz-adv-x="749" d="M45 932v115h164v301l137 20v-321h293v-115h-293v-658q0 -98 33 -142t129 -44t186 53l31 -100q-96 -66 -237.5 -66t-210 68t-68.5 213v676h-164z" />
<glyph unicode="u" horiz-adv-x="1191" d="M182 340v707h137v-693q0 -127 47.5 -190.5t163.5 -63.5q92 0 190.5 48.5t158.5 101.5v797h137v-1047h-121l-8 131q-202 -151 -391 -151h-2q-164 0 -238 90t-74 270z" />
<glyph unicode="v" horiz-adv-x="1007" d="M20 1047h150l342 -912l338 912h137l-401 -1047h-154z" />
<glyph unicode="w" horiz-adv-x="1509" d="M20 1047h142l278 -908l248 908h150l243 -904l277 904h131l-330 -1047h-166l-235 893l-238 -893h-164z" />
<glyph unicode="x" horiz-adv-x="974" d="M41 0l356 547l-352 500h150l282 -408l295 408h141l-358 -498l379 -549h-152l-305 453l-289 -453h-147z" />
<glyph unicode="y" horiz-adv-x="960" d="M-39 -420l21 107q98 -31 172 -31q80 0 142.5 75t115.5 261l-385 1055h147l307 -885l320 885h139q-197 -524 -422 -1108q-84 -229 -159.5 -312.5t-208.5 -83.5q-100 0 -189 37z" />
<glyph unicode="z" horiz-adv-x="933" d="M66 0v96l630 836h-620v115h782v-99l-633 -833h654v-115h-813z" />
<glyph unicode="{" horiz-adv-x="600" d="M10 535v112h31q166 0 166 189q0 63 -13.5 229t-13.5 221q0 223 264 223h95v-114h-93q-72 -2 -101.5 -30t-29.5 -87q0 -57 12.5 -216t12.5 -231q0 -113 -38 -163t-105 -76q68 -27 105.5 -78t37.5 -164q0 -74 -12.5 -212t-12.5 -189q0 -70 35 -103.5t123 -33.5h66v-109h-93 q-266 0 -266 223q0 70 13.5 215.5t13.5 204.5q0 188 -162 189h-35z" />
<glyph unicode="|" horiz-adv-x="573" d="M225 -293v1839h123v-1839h-123z" />
<glyph unicode="}" horiz-adv-x="600" d="M61 -182h93q72 2 101.5 29.5t29.5 86.5q0 57 -12.5 216t-12.5 231q0 113 38 163t105 77q-68 27 -105.5 78t-37.5 163q0 74 12.5 212t12.5 190q0 70 -35 103.5t-123 33.5h-66v108h93q266 0 266 -223q0 -70 -13.5 -215t-13.5 -205q0 -188 162 -188h35v-113h-31 q-166 0 -166 -188q0 -63 13.5 -229t13.5 -222q0 -223 -264 -223h-95v115z" />
<glyph unicode="~" horiz-adv-x="991" d="M86 598q-14 117 36 175t128 58q68 0 251 -48t224 -48q45 0 64.5 21.5t19.5 91.5l96 -4q14 -117 -36 -173.5t-132 -56.5q-66 0 -251 48.5t-230 48.5q-80 0 -76 -117z" />
<glyph unicode="&#xa1;" horiz-adv-x="524" d="M162 950.5q0 116.5 118.5 116.5t118.5 -116.5t-118.5 -116.5t-118.5 116.5zM205 -440l31 1108h92l34 -1108h-157z" />
<glyph unicode="&#xa2;" horiz-adv-x="1038" d="M133 711q0 223 102.5 352t280.5 154v206h113v-202q137 -10 224 -93.5t95 -230.5l-127 -18q-10 106 -57 158.5t-135 62.5v-770q90 10 138 58t71 149l118 -25q-23 -139 -110.5 -214t-216.5 -89v-209h-113v209q-193 18 -288 152.5t-95 349.5zM276 727q0 -358 240 -395v764 q-240 -41 -240 -369z" />
<glyph unicode="&#xa3;" horiz-adv-x="1122" d="M51 0v123h109q180 166 180 346q0 98 -53 201h-219v114h168q-96 176 -97 312q0 182 127 297.5t322 115.5q190 0 292.5 -88t123.5 -284l-125 -13q-18 141 -81 204t-208 63q-139 0 -226.5 -73t-87.5 -210q0 -121 97 -324h487v-114h-438q45 -102 45 -203q0 -190 -158 -344 h404q113 0 163 52t72 179l127 -26q-23 -172 -112 -250t-252 -78h-660z" />
<glyph unicode="&#xa4;" horiz-adv-x="1167" d="M12 115l195 194q-68 109 -68 269q0 137 72 251l-193 191l103 100l184 -184q119 96 291 96q176 0 289 -90l176 176l94 -96l-182 -184q66 -109 65 -252q0 -156 -80 -277l195 -192l-102 -99l-191 187q-113 -84 -278 -84q-176 0 -287 88q-33 -33 -101.5 -102.5t-87.5 -88.5z M295 578q0 -150 73.5 -242t223.5 -92q139 0 215 94t76 240q0 156 -76 241.5t-221 85.5q-139 0 -215 -90t-76 -237z" />
<glyph unicode="&#xa5;" horiz-adv-x="1048" d="M55 1483h154l330 -604l317 604h141l-331 -615h215v-108h-277v-146h277v-108h-277v-506h-137v506h-277v108h277v146h-277v108h209z" />
<glyph unicode="&#xa6;" horiz-adv-x="573" d="M225 -293v795h123v-795h-123zM225 840v706h123v-706h-123z" />
<glyph unicode="&#xa7;" horiz-adv-x="1105" d="M102 520q0 86 52.5 167t144.5 138q-125 94 -125 267q0 174 119 267t301 93q186 0 292.5 -96t117.5 -271l-138 -18q-31 266 -276 266q-135 0 -205 -62.5t-70 -164.5q0 -106 73 -166.5t177.5 -87.5t209 -57.5t177 -103.5t72.5 -197q0 -86 -53 -168t-144 -140 q125 -90 125 -264t-118.5 -267t-301.5 -93q-186 0 -292.5 96t-116.5 270l137 19q14 -129 81 -197.5t200 -68.5t201.5 64.5t68.5 172.5q0 78 -39 129t-101.5 79t-138 47.5t-151.5 42t-138.5 55t-101.5 95t-39 154.5zM240 530q0 -59 27.5 -100t81.5 -65.5t107.5 -41t132.5 -37 t128 -40.5q170 109 170 237q0 59 -28 100.5t-82 66t-108.5 41t-132 37t-126.5 40.5q-170 -111 -170 -238z" />
<glyph unicode="&#xa8;" horiz-adv-x="1024" d="M199 1368q0 47 29.5 76t78.5 29q47 0 77 -29t30 -76q0 -49 -29 -76.5t-78 -27.5t-78.5 27.5t-29.5 76.5zM606 1368q0 47 30 76t79 29q47 0 76.5 -29t29.5 -76q0 -49 -28.5 -76.5t-77.5 -27.5t-79 27.5t-30 76.5z" />
<glyph unicode="&#xa9;" d="M100 625q0 309 194.5 492t485.5 183q311 0 492.5 -175t181.5 -472q0 -303 -188.5 -490.5t-489.5 -187.5q-326 0 -501 181.5t-175 468.5zM217 627q0 -256 149.5 -403.5t413.5 -147.5q260 0 410.5 151.5t150.5 413.5q0 266 -154.5 412.5t-406.5 146.5q-248 0 -405.5 -153.5 t-157.5 -419.5zM416 645q0 178 98 287.5t274 109.5q283 0 297 -258l-110 -16q-8 92 -52 133t-137 41q-104 0 -172.5 -72.5t-68.5 -228.5q0 -127 60.5 -211t174.5 -84q100 0 146.5 41t66.5 135l103 -16q-14 -100 -67.5 -161.5t-113 -80t-129.5 -18.5q-188 0 -279 108.5 t-91 290.5z" />
<glyph unicode="&#xaa;" horiz-adv-x="757" d="M88 743q0 219 334 228q18 0 46 -1t40 -1v61q0 70 -29.5 103.5t-109.5 33.5q-70 0 -104 -26.5t-44 -85.5l-104 18q31 190 262 191q131 0 189.5 -52.5t58.5 -177.5v-327q0 -29 9 -40.5t34 -11.5q16 0 41 7l6 -76q-39 -20 -94 -21q-96 0 -103 86q-84 -90 -227 -90 q-115 0 -160 57.5t-45 124.5zM211 758q0 -102 119 -103q98 0 180 86v140q-18 2 -74 2q-51 -2 -78.5 -4t-67.5 -13.5t-59.5 -38t-19.5 -69.5z" />
<glyph unicode="&#xab;" horiz-adv-x="868" d="M133 532l182 304h136l-170 -299l168 -326h-136zM440 532l183 304h135l-170 -299l168 -326h-135z" />
<glyph unicode="&#xac;" horiz-adv-x="1167" d="M201 600v135h764v-327h-142v192h-622z" />
<glyph unicode="&#xad;" horiz-adv-x="636" d="M41 537v137h555v-137h-555z" />
<glyph unicode="&#xae;" horiz-adv-x="915" d="M82 969q0 170 107.5 273.5t269.5 103.5q172 0 273.5 -98.5t101.5 -264.5q0 -168 -104.5 -271.5t-272.5 -103.5q-180 0 -277.5 100.5t-97.5 260.5zM164 971q0 -135 79 -212t216 -77t216 79t79 216q0 141 -82 218t-213 77q-129 0 -212 -81t-83 -220zM336 786v392h135 q131 0 131 -111q0 -71 -70 -102l105 -179h-78l-92 156h-57v-156h-74zM410 999h26q90 0 90 66q0 55 -75 55h-41v-121z" />
<glyph unicode="&#xaf;" horiz-adv-x="1024" d="M221 1303v116h580v-116h-580z" />
<glyph unicode="&#xb0;" horiz-adv-x="614" d="M111 1303q0 109 64.5 169t162.5 60q100 0 161.5 -57.5t61.5 -164t-59.5 -166t-164 -59.5t-165.5 58.5t-61 159.5zM219 1303q0 -121 119 -121q115 0 115 129q0 125 -115 125q-119 0 -119 -133z" />
<glyph unicode="&#xb1;" horiz-adv-x="1167" d="M201 0v125h764v-125h-764zM201 598v127h311v315h141v-315h312v-127h-312v-330h-141v330h-311z" />
<glyph unicode="&#xb2;" horiz-adv-x="706" d="M76 1401q35 235 289 235q121 0 189.5 -57t68.5 -170q0 -96 -48.5 -175t-166.5 -214l-175 -191v-2h404v-112h-551v106l215 248q111 129 151 193.5t40 142.5q0 127 -142 127q-80 0 -115.5 -39t-48.5 -113z" />
<glyph unicode="&#xb3;" horiz-adv-x="739" d="M59 915l119 23q12 -68 45 -100.5t115 -32.5q76 0 123 41t47 127q0 164 -189 164h-83v100h59q94 0 147.5 46t53.5 122q0 125 -140 125q-76 0 -109.5 -30t-49.5 -95l-115 22q41 209 287 209q123 0 189.5 -58t66.5 -157q0 -90 -53.5 -144t-127.5 -75v-2q197 -37 197 -231 q0 -121 -83 -195t-220 -74q-252 0 -279 215z" />
<glyph unicode="&#xb4;" horiz-adv-x="1024" d="M350 1198l217 336h181l-291 -363z" />
<glyph unicode="&#xb5;" horiz-adv-x="1224" d="M184 -434v1481h138v-697q0 -207 129 -244q33 -10 84 -10q76 0 171 40t175 110v801h137v-879q0 -47 13 -64.5t50 -17.5q25 0 64 12l8 -88q-57 -29 -125 -28q-133 0 -135 145q-211 -152 -399 -152q-117 0 -177 72v-481h-133z" />
<glyph unicode="&#xb6;" horiz-adv-x="1120" d="M41 981q0 258 157.5 380t405.5 122h314l2 -1755h-138v1640h-182v-1640h-137v786q-195 18 -308.5 142t-113.5 325z" />
<glyph unicode="&#xb7;" horiz-adv-x="360" d="M61 618.5q0 116.5 119 116.5t119 -116.5t-119 -116.5t-119 116.5z" />
<glyph unicode="&#xb8;" horiz-adv-x="1024" d="M281 -416l30 88q55 -35 115 -34q49 0 74.5 27.5t25.5 70.5q0 51 -34.5 75.5t-120.5 26.5l30 223l107 -16l-19 -135q156 -31 156 -176q0 -84 -59.5 -138.5t-147.5 -54.5q-96 0 -157 43z" />
<glyph unicode="&#xb9;" horiz-adv-x="571" d="M68 1511q176 12 260 105h78v-905h-130v741q-29 -16 -95 -28.5t-105 -12.5z" />
<glyph unicode="&#xba;" horiz-adv-x="802" d="M78 911q0 166 87 259.5t251 93.5q158 0 233.5 -90.5t75.5 -245.5q0 -367 -328 -367q-319 0 -319 350zM203 915q-1 -253 200 -253q197 0 197 258q0 244 -190 243q-96 0 -151.5 -62.5t-55.5 -185.5z" />
<glyph unicode="&#xbb;" horiz-adv-x="868" d="M113 211l170 303l-168 322h135l180 -318l-182 -307h-135zM420 211l170 303l-168 322h135l180 -318l-182 -307h-135z" />
<glyph unicode="&#xbc;" horiz-adv-x="1751" d="M111 1372q176 12 260 105h78v-906h-130v742q-29 -16 -95 -28.5t-105 -12.5zM406 -25l729 1508h129l-727 -1508h-131zM958 219v92l396 594h159v-581h109v-105h-109v-219h-127v219h-428zM1081 324h308v462z" />
<glyph unicode="&#xbd;" horiz-adv-x="1751" d="M131 1372q176 12 260 105h78v-906h-129v742q-29 -16 -95.5 -28.5t-105.5 -12.5zM373 -25l729 1508h129l-727 -1508h-131zM1040 686q35 236 289 236q121 0 189.5 -57.5t68.5 -170.5q0 -96 -48 -175t-167 -214l-174 -190v-2h404v-113h-551v106l215 248q111 129 150.5 193.5 t39.5 142.5q0 127 -141 127q-80 0 -116 -39t-48 -112z" />
<glyph unicode="&#xbe;" horiz-adv-x="1751" d="M80 776l119 23q12 -68 44.5 -100.5t114.5 -32.5q76 0 123 41t47 127q0 164 -188 163h-84v101h59q94 0 147.5 46t53.5 122q0 125 -139 125q-76 0 -110 -30t-50 -95l-115 22q41 209 287 209q123 0 189.5 -58.5t66.5 -156.5q0 -90 -53 -144.5t-127 -74.5v-2 q197 -37 197 -232q0 -121 -83 -194.5t-221 -73.5q-251 0 -278 215zM483 -25l729 1508h129l-727 -1508h-131zM1012 219v92l395 594h160v-581h108v-105h-108v-219h-127v219h-428zM1135 324h307v462z" />
<glyph unicode="&#xbf;" horiz-adv-x="935" d="M86 -55q0 377 451 458v267h129v-363q-203 -18 -322 -95t-119 -255q0 -156 75 -217.5t206 -61.5q123 0 199.5 52.5t107.5 191.5l123 -24q-12 -66 -40 -121.5t-77 -106.5t-132 -80.5t-189 -29.5q-184 0 -298 90t-114 295zM485 950.5q0 116.5 119 116.5t119 -116.5 t-119 -116.5t-119 116.5z" />
<glyph unicode="&#xc0;" horiz-adv-x="1388" d="M92 0l504 1483h188l512 -1483h-151l-160 477h-598l-160 -477h-135zM403 1868h183l209 -271l-111 -26zM428 598h518l-258 772z" />
<glyph unicode="&#xc1;" horiz-adv-x="1388" d="M92 0l504 1483h188l512 -1483h-151l-160 477h-598l-160 -477h-135zM428 598h518l-258 772zM602 1597l209 271h182l-280 -297z" />
<glyph unicode="&#xc2;" horiz-adv-x="1388" d="M92 0l504 1483h188l512 -1483h-151l-160 477h-598l-160 -477h-135zM387 1591l246 250h110l246 -250l-121 -16l-184 166l-180 -170zM428 598h518l-258 772z" />
<glyph unicode="&#xc3;" horiz-adv-x="1388" d="M92 0l504 1483h188l512 -1483h-151l-160 477h-598l-160 -477h-135zM369 1593q-14 117 35.5 175.5t127.5 58.5q68 0 169.5 -48t142.5 -48q45 0 64.5 21.5t19.5 90.5l96 -4q14 -117 -36 -173t-132 -56q-66 0 -169 48t-148 48q-80 0 -76 -117zM428 598h518l-258 772z" />
<glyph unicode="&#xc4;" horiz-adv-x="1388" d="M92 0l504 1483h188l512 -1483h-151l-160 477h-598l-160 -477h-135zM377 1706q0 47 29.5 75.5t78.5 28.5q47 0 77 -28.5t30 -75.5q0 -49 -28.5 -76.5t-78 -27.5t-79 27.5t-29.5 76.5zM428 598h518l-258 772zM784 1706q0 47 30 75.5t79 28.5q47 0 76.5 -28.5t29.5 -75.5 q0 -49 -28.5 -76.5t-77.5 -27.5t-79 27.5t-30 76.5z" />
<glyph unicode="&#xc5;" horiz-adv-x="1388" d="M92 0l498 1464q-113 47 -113 176q0 100 60.5 153.5t150.5 53.5q94 0 153.5 -49t59.5 -147q0 -139 -113 -185l508 -1466h-151l-160 477h-598l-160 -477h-135zM428 598h518l-258 772zM582 1645q0 -105 106 -105q51 0 78 29.5t27 81.5q0 102 -105 102q-47 0 -76.5 -28.5 t-29.5 -79.5z" />
<glyph unicode="&#xc6;" horiz-adv-x="2041" d="M92 0l840 1483h991v-115h-700v-571h655v-117h-655v-565h721v-115h-861v676h-469l-383 -676h-139zM680 793h403v575h-82z" />
<glyph unicode="&#xc7;" horiz-adv-x="1415" d="M113 715q0 379 184 586.5t496 207.5q236 0 378 -120.5t160 -362.5l-129 -12q-27 188 -123 282.5t-286 94.5q-254 0 -397.5 -169t-143.5 -491q0 -641 510 -641q186 0 290.5 81t145.5 255l121 -27q-37 -205 -176 -306t-336 -116l-8 -67q156 -31 155 -176q0 -84 -59 -138.5 t-147 -54.5q-97 0 -158 43l31 88q55 -35 114 -34q49 0 75 27.5t26 70.5q0 51 -35 75.5t-121 26.5l18 139q-301 16 -443 211t-142 527z" />
<glyph unicode="&#xc8;" horiz-adv-x="1171" d="M215 0v1483h838v-119h-701v-551h656v-121h-656v-573h721v-119h-858zM418 1868h182l209 -271l-111 -26z" />
<glyph unicode="&#xc9;" horiz-adv-x="1171" d="M215 0v1483h838v-119h-701v-551h656v-121h-656v-573h721v-119h-858zM496 1597l209 271h182l-281 -297z" />
<glyph unicode="&#xca;" horiz-adv-x="1171" d="M215 0v1483h838v-119h-701v-551h656v-121h-656v-573h721v-119h-858zM334 1591l246 250h110l246 -250l-121 -16l-184 166l-180 -170z" />
<glyph unicode="&#xcb;" horiz-adv-x="1171" d="M215 0v1483h838v-119h-701v-551h656v-121h-656v-573h721v-119h-858zM324 1706q0 47 29.5 75.5t78.5 28.5q47 0 77 -28.5t30 -75.5q0 -49 -29 -76.5t-78 -27.5t-78.5 27.5t-29.5 76.5zM731 1706q0 47 30 75.5t79 28.5q47 0 76.5 -28.5t29.5 -75.5q0 -49 -28.5 -76.5 t-77.5 -27.5t-79 27.5t-30 76.5z" />
<glyph unicode="&#xcc;" horiz-adv-x="567" d="M-18 1868h182l209 -271l-111 -26zM215 0v1483h137v-1483h-137z" />
<glyph unicode="&#xcd;" horiz-adv-x="567" d="M207 1597l209 271h182l-281 -297zM215 0v1483h137v-1483h-137z" />
<glyph unicode="&#xce;" horiz-adv-x="567" d="M-18 1591l245 250h111l246 -250l-121 -16l-184 166l-181 -170zM215 0v1483h137v-1483h-137z" />
<glyph unicode="&#xcf;" horiz-adv-x="567" d="M-29 1706q0 47 30 75.5t79 28.5q47 0 76.5 -28.5t29.5 -75.5q0 -49 -28.5 -76.5t-77.5 -27.5t-79 27.5t-30 76.5zM215 0v1483h137v-1483h-137zM379 1706q0 47 29.5 75.5t78.5 28.5q47 0 77 -28.5t30 -75.5q0 -49 -28.5 -76.5t-78 -27.5t-79 27.5t-29.5 76.5z" />
<glyph unicode="&#xd0;" horiz-adv-x="1523" d="M70 700v115h176v668h430q375 0 555 -187.5t180 -531.5q0 -354 -192.5 -559t-577.5 -205h-395v700h-176zM383 119h268q301 0 459 159.5t158 454.5q0 350 -151.5 490.5t-452.5 140.5h-281v-549h481v-115h-481v-581z" />
<glyph unicode="&#xd1;" horiz-adv-x="1525" d="M215 0v1483h197l770 -1317v1317h129v-1483h-174l-791 1335v-1335h-131zM459 1593q-14 117 36 175.5t128 58.5q68 0 169 -48t142 -48q45 0 64.5 21.5t19.5 90.5l96 -4q14 -117 -36 -173t-132 -56q-66 0 -169 48t-148 48q-80 0 -76 -117z" />
<glyph unicode="&#xd2;" d="M113 743q0 342 181 554t503 212q313 0 479 -204.5t166 -530.5q0 -371 -175 -585t-499 -214t-489.5 210t-165.5 558zM256 743q0 -307 142 -477t378 -170q238 0 381 169t143 489q0 301 -138 468t-369 167q-238 0 -387.5 -170t-149.5 -476zM578 1868h182l209 -271l-111 -26z " />
<glyph unicode="&#xd3;" d="M113 743q0 342 181 554t503 212q313 0 479 -204.5t166 -530.5q0 -371 -175 -585t-499 -214t-489.5 210t-165.5 558zM256 743q0 -307 142 -477t378 -170q238 0 381 169t143 489q0 301 -138 468t-369 167q-238 0 -387.5 -170t-149.5 -476zM625 1597l209 271h182l-281 -297z " />
<glyph unicode="&#xd4;" d="M113 743q0 342 181 554t503 212q313 0 479 -204.5t166 -530.5q0 -371 -175 -585t-499 -214t-489.5 210t-165.5 558zM256 743q0 -307 142 -477t378 -170q238 0 381 169t143 489q0 301 -138 468t-369 167q-238 0 -387.5 -170t-149.5 -476zM494 1591l245 250h111l246 -250 l-121 -16l-184 166l-181 -170z" />
<glyph unicode="&#xd5;" d="M113 743q0 342 181 554t503 212q313 0 479 -204.5t166 -530.5q0 -371 -175 -585t-499 -214t-489.5 210t-165.5 558zM256 743q0 -307 142 -477t378 -170q238 0 381 169t143 489q0 301 -138 468t-369 167q-238 0 -387.5 -170t-149.5 -476zM475 1593q-14 117 36 175.5 t128 58.5q68 0 169 -48t142 -48q45 0 64.5 21.5t19.5 90.5l96 -4q14 -117 -36 -173t-131 -56q-66 0 -169.5 48t-148.5 48q-80 0 -76 -117z" />
<glyph unicode="&#xd6;" d="M113 743q0 342 181 554t503 212q313 0 479 -204.5t166 -530.5q0 -371 -175 -585t-499 -214t-489.5 210t-165.5 558zM256 743q0 -307 142 -477t378 -170q238 0 381 169t143 489q0 301 -138 468t-369 167q-238 0 -387.5 -170t-149.5 -476zM483 1706q0 47 30 75.5t79 28.5 q47 0 76.5 -28.5t29.5 -75.5q0 -49 -28.5 -76.5t-77.5 -27.5t-79 27.5t-30 76.5zM891 1706q0 47 29.5 75.5t78.5 28.5q47 0 77 -28.5t30 -75.5q0 -49 -28.5 -76.5t-78 -27.5t-79 27.5t-29.5 76.5z" />
<glyph unicode="&#xd7;" horiz-adv-x="1167" d="M264 432l221 223l-221 226l98 98l220 -223l221 223l98 -98l-221 -226l221 -223l-98 -98l-221 223l-220 -223z" />
<glyph unicode="&#xd8;" d="M113 743q0 342 181 554t503 212q123 0 223 -34l63 149h138l-84 -201q150 -90 227.5 -261t77.5 -388q0 -371 -175 -585t-499 -214q-123 0 -221 31l-64 -151h-139l84 202q-158 90 -236.5 268.5t-78.5 417.5zM256 743q0 -395 225 -559l490 1174q-80 31 -178 31 q-238 0 -387.5 -170.5t-149.5 -475.5zM596 125q86 -29 180 -29q238 0 381 169t143 489q0 379 -217 542z" />
<glyph unicode="&#xd9;" horiz-adv-x="1466" d="M205 483v1000h137v-991q0 -211 100 -303.5t293 -92.5q197 0 293 89t96 302v996h138v-1002q0 -252 -138.5 -379t-400.5 -127q-270 0 -394 128t-124 380zM516 1868h182l209 -271l-110 -26z" />
<glyph unicode="&#xda;" horiz-adv-x="1466" d="M205 483v1000h137v-991q0 -211 100 -303.5t293 -92.5q197 0 293 89t96 302v996h138v-1002q0 -252 -138.5 -379t-400.5 -127q-270 0 -394 128t-124 380zM633 1597l209 271h182l-281 -297z" />
<glyph unicode="&#xdb;" horiz-adv-x="1466" d="M205 483v1000h137v-991q0 -211 100 -303.5t293 -92.5q197 0 293 89t96 302v996h138v-1002q0 -252 -138.5 -379t-400.5 -127q-270 0 -394 128t-124 380zM453 1591l245 250h111l246 -250l-121 -16l-184 166l-181 -170z" />
<glyph unicode="&#xdc;" horiz-adv-x="1466" d="M205 483v1000h137v-991q0 -211 100 -303.5t293 -92.5q197 0 293 89t96 302v996h138v-1002q0 -252 -138.5 -379t-400.5 -127q-270 0 -394 128t-124 380zM434 1706q0 47 30 75.5t79 28.5q47 0 76.5 -28.5t29.5 -75.5q0 -49 -28.5 -76.5t-77.5 -27.5t-79 27.5t-30 76.5z M842 1706q0 47 29.5 75.5t78.5 28.5q47 0 77 -28.5t30 -75.5q0 -49 -29 -76.5t-78 -27.5t-78.5 27.5t-29.5 76.5z" />
<glyph unicode="&#xdd;" horiz-adv-x="1126" d="M0 1483h152l423 -764l412 764h139l-485 -895v-588h-137v582zM406 1597l208 271h183l-281 -297z" />
<glyph unicode="&#xde;" horiz-adv-x="1257" d="M215 0v1483h135v-260h318q264 0 378.5 -118t114.5 -308q0 -471 -561 -471h-250v-326h-135zM350 446h246q201 0 311.5 74t110.5 273q0 186 -109.5 248.5t-373.5 62.5h-185v-658z" />
<glyph unicode="&#xdf;" horiz-adv-x="1345" d="M184 0v1124q0 231 125 339t344 108t330 -94.5t111 -268.5q0 -240 -240 -342v-6q184 -31 286.5 -132t102.5 -300q0 -203 -112.5 -327t-305.5 -124q-154 0 -255 77t-124 239l132 22q25 -106 79 -162.5t172 -56.5q129 0 200 81t71 237q0 365 -418 364h-86v115h31 q170 0 248.5 84t78.5 201q0 276 -303 276q-168 0 -248.5 -76.5t-80.5 -275.5v-1102h-138z" />
<glyph unicode="&#xe0;" horiz-adv-x="1095" d="M123 258q0 352 508 352q55 0 137 -4v105q0 127 -48 186t-179 59q-119 0 -173.5 -45t-72.5 -143l-129 23q25 143 119 209.5t264 66.5q188 0 272 -82.5t84 -275.5v-541q0 -45 12.5 -63.5t51.5 -18.5q25 0 63 12l8 -88q-57 -29 -125 -28q-127 0 -135 131 q-131 -137 -348 -138q-94 0 -159.5 29t-95.5 76t-42 90t-12 88zM266 279q0 -193 199 -193q86 0 169 41t136 102v267q-49 6 -129 6q-72 0 -122 -6.5t-115.5 -25.5t-101.5 -67.5t-36 -123.5zM322 1534h180l217 -336l-107 -27z" />
<glyph unicode="&#xe1;" horiz-adv-x="1095" d="M123 258q0 352 508 352q55 0 137 -4v105q0 127 -48 186t-179 59q-119 0 -173.5 -45t-72.5 -143l-129 23q25 143 119 209.5t264 66.5q188 0 272 -82.5t84 -275.5v-541q0 -45 12.5 -63.5t51.5 -18.5q25 0 63 12l8 -88q-57 -29 -125 -28q-127 0 -135 131 q-131 -137 -348 -138q-94 0 -159.5 29t-95.5 76t-42 90t-12 88zM266 279q0 -193 199 -193q86 0 169 41t136 102v267q-49 6 -129 6q-72 0 -122 -6.5t-115.5 -25.5t-101.5 -67.5t-36 -123.5zM387 1198l217 336h180l-290 -363z" />
<glyph unicode="&#xe2;" horiz-adv-x="1095" d="M123 258q0 352 508 352q55 0 137 -4v105q0 127 -48 186t-179 59q-119 0 -173.5 -45t-72.5 -143l-129 23q25 143 119 209.5t264 66.5q188 0 272 -82.5t84 -275.5v-541q0 -45 12.5 -63.5t51.5 -18.5q25 0 63 12l8 -88q-57 -29 -125 -28q-127 0 -135 131 q-131 -137 -348 -138q-94 0 -159.5 29t-95.5 76t-42 90t-12 88zM248 1196l233 338h137l242 -338l-115 -12l-196 250l-189 -254zM266 279q0 -193 199 -193q86 0 169 41t136 102v267q-49 6 -129 6q-72 0 -122 -6.5t-115.5 -25.5t-101.5 -67.5t-36 -123.5z" />
<glyph unicode="&#xe3;" horiz-adv-x="1095" d="M123 258q0 352 508 352q55 0 137 -4v105q0 127 -48 186t-179 59q-119 0 -173.5 -45t-72.5 -143l-129 23q25 143 119 209.5t264 66.5q188 0 272 -82.5t84 -275.5v-541q0 -45 12.5 -63.5t51.5 -18.5q25 0 63 12l8 -88q-57 -29 -125 -28q-127 0 -135 131 q-131 -137 -348 -138q-94 0 -159.5 29t-95.5 76t-42 90t-12 88zM227 1217q-14 117 36 175t128 58q68 0 169.5 -48t141.5 -48q45 0 64.5 21.5t19.5 90.5l97 -4q14 -117 -36 -173t-132 -56q-66 0 -169.5 48t-148.5 48q-80 0 -75 -117zM266 279q0 -193 199 -193q86 0 169 41 t136 102v267q-49 6 -129 6q-72 0 -122 -6.5t-115.5 -25.5t-101.5 -67.5t-36 -123.5z" />
<glyph unicode="&#xe4;" horiz-adv-x="1095" d="M123 258q0 352 508 352q55 0 137 -4v105q0 127 -48 186t-179 59q-119 0 -173.5 -45t-72.5 -143l-129 23q25 143 119 209.5t264 66.5q188 0 272 -82.5t84 -275.5v-541q0 -45 12.5 -63.5t51.5 -18.5q25 0 63 12l8 -88q-57 -29 -125 -28q-127 0 -135 131 q-131 -137 -348 -138q-94 0 -159.5 29t-95.5 76t-42 90t-12 88zM236 1368q0 47 29.5 76t78.5 29q47 0 77 -29t30 -76q0 -49 -29 -76.5t-78 -27.5t-78.5 27.5t-29.5 76.5zM266 279q0 -193 199 -193q86 0 169 41t136 102v267q-49 6 -129 6q-72 0 -122 -6.5t-115.5 -25.5 t-101.5 -67.5t-36 -123.5zM643 1368q0 47 29.5 76t79.5 29q47 0 76.5 -29t29.5 -76q0 -49 -28.5 -76.5t-78 -27.5t-79 27.5t-29.5 76.5z" />
<glyph unicode="&#xe5;" horiz-adv-x="1095" d="M123 258q0 352 508 352q55 0 137 -4v105q0 127 -48 186t-179 59q-119 0 -173.5 -45t-72.5 -143l-129 23q25 143 119 209.5t264 66.5q188 0 272 -82.5t84 -275.5v-541q0 -45 12.5 -63.5t51.5 -18.5q25 0 63 12l8 -88q-57 -29 -125 -28q-127 0 -135 131 q-131 -137 -348 -138q-94 0 -159.5 29t-95.5 76t-42 90t-12 88zM266 279q0 -193 199 -193q86 0 169 41t136 102v267q-49 6 -129 6q-72 0 -122 -6.5t-115.5 -25.5t-101.5 -67.5t-36 -123.5zM338 1370q0 100 60.5 153.5t150.5 53.5q94 0 153.5 -49.5t59.5 -147.5 q0 -94 -57.5 -148t-155.5 -54q-96 0 -153.5 51t-57.5 141zM442 1374q1 -104 107 -104q51 0 77.5 29.5t26.5 80.5q0 102 -104 103q-47 0 -77 -29t-30 -80z" />
<glyph unicode="&#xe6;" horiz-adv-x="1775" d="M133 258q0 352 504 352q55 0 141 -4v127q0 111 -52 167t-181 56q-115 0 -170.5 -44t-73.5 -140l-125 23q25 143 119 207.5t264 64.5q137 0 210 -45t105 -145q129 190 381 190q205 0 304.5 -121t99.5 -321q0 -57 -10 -129h-734q6 -219 95.5 -308.5t240.5 -89.5 q119 0 178.5 48.5t86.5 150.5l129 -25q-33 -150 -141.5 -223.5t-262.5 -73.5q-258 0 -371 166q-174 -166 -428 -166q-94 0 -159.5 29t-95 76t-42 90t-12.5 88zM276 276q0 -88 42 -139t157 -51q203 0 344 158q-37 106 -41 254q-78 4 -143 4q-74 0 -131.5 -8.5t-112.5 -32 t-85 -69.5t-30 -116zM918 606h598q6 342 -273 342q-131 0 -224 -85t-101 -257z" />
<glyph unicode="&#xe7;" horiz-adv-x="1097" d="M113 516q0 270 129 410.5t366 140.5q162 0 267.5 -90t113.5 -260l-137 -19q-27 250 -256 250q-143 0 -241.5 -95t-98.5 -318q0 -238 95 -337.5t241 -99.5q236 0 276 232l129 -27q-23 -154 -124 -233.5t-246 -92.5l-9 -67q156 -31 156 -176q0 -84 -59.5 -138.5 t-147.5 -54.5q-96 0 -157 43l30 88q55 -35 115 -34q49 0 74.5 27.5t25.5 70.5q0 51 -34.5 75.5t-120.5 26.5l18 142q-406 33 -405 536z" />
<glyph unicode="&#xe8;" horiz-adv-x="1118" d="M113 522q0 272 136 408.5t349 136.5q205 0 304 -122t99 -322q-4 -86 -10 -127h-733q6 -219 95 -308.5t241 -89.5q119 0 178 48.5t86 150.5l129 -25q-33 -150 -141 -223.5t-262 -73.5q-131 0 -226.5 44t-146.5 123t-74.5 172.5t-23.5 207.5zM260 606h598q6 342 -272 342 q-131 0 -224.5 -85t-101.5 -257zM356 1534h181l217 -336l-107 -27z" />
<glyph unicode="&#xe9;" horiz-adv-x="1118" d="M113 522q0 272 136 408.5t349 136.5q205 0 304 -122t99 -322q-4 -86 -10 -127h-733q6 -219 95 -308.5t241 -89.5q119 0 178 48.5t86 150.5l129 -25q-33 -150 -141 -223.5t-262 -73.5q-131 0 -226.5 44t-146.5 123t-74.5 172.5t-23.5 207.5zM260 606h598q6 342 -272 342 q-131 0 -224.5 -85t-101.5 -257zM422 1198l217 336h180l-291 -363z" />
<glyph unicode="&#xea;" horiz-adv-x="1118" d="M113 522q0 272 136 408.5t349 136.5q205 0 304 -122t99 -322q-4 -86 -10 -127h-733q6 -219 95 -308.5t241 -89.5q119 0 178 48.5t86 150.5l129 -25q-33 -150 -141 -223.5t-262 -73.5q-131 0 -226.5 44t-146.5 123t-74.5 172.5t-23.5 207.5zM260 606h598q6 342 -272 342 q-131 0 -224.5 -85t-101.5 -257zM283 1196l233 338h137l242 -338l-115 -12l-196 250l-189 -254z" />
<glyph unicode="&#xeb;" horiz-adv-x="1118" d="M113 522q0 272 136 408.5t349 136.5q205 0 304 -122t99 -322q-4 -86 -10 -127h-733q6 -219 95 -308.5t241 -89.5q119 0 178 48.5t86 150.5l129 -25q-33 -150 -141 -223.5t-262 -73.5q-131 0 -226.5 44t-146.5 123t-74.5 172.5t-23.5 207.5zM260 606h598q6 342 -272 342 q-131 0 -224.5 -85t-101.5 -257zM270 1368q0 47 30 76t79 29q47 0 76.5 -29t29.5 -76q0 -49 -28.5 -76.5t-77.5 -27.5t-79 27.5t-30 76.5zM678 1368q0 47 29.5 76t78.5 29q47 0 77 -29t30 -76q0 -49 -28.5 -76.5t-78 -27.5t-79 27.5t-29.5 76.5z" />
<glyph unicode="&#xec;" horiz-adv-x="495" d="M-61 1534h180l217 -336l-107 -27zM184 0v1047h138v-1047h-138z" />
<glyph unicode="&#xed;" horiz-adv-x="495" d="M182 1198l217 336h181l-291 -363zM184 0v1047h138v-1047h-138z" />
<glyph unicode="&#xee;" horiz-adv-x="495" d="M-49 1196l233 338h138l241 -338l-114 -12l-197 250l-189 -254zM184 0v1047h138v-1047h-138z" />
<glyph unicode="&#xef;" horiz-adv-x="495" d="M-61 1368q0 47 29.5 76t78.5 29q47 0 77 -29t30 -76q0 -49 -29 -76.5t-78 -27.5t-78.5 27.5t-29.5 76.5zM184 0v1047h138v-1047h-138zM346 1368q0 47 30 76t79 29q47 0 76.5 -29t29.5 -76q0 -49 -28.5 -76.5t-77.5 -27.5t-79 27.5t-30 76.5z" />
<glyph unicode="&#xf0;" horiz-adv-x="1171" d="M109 489q0 240 120.5 388.5t339.5 148.5q186 0 310 -94l4 2q-57 219 -189 346l-225 -121l-57 96l186 101q-123 80 -299 100l45 105q225 -25 379 -138l209 113l57 -98l-174 -95q233 -248 234 -706q0 -123 -19.5 -227.5t-68 -209t-148.5 -165t-246 -60.5 q-225 0 -341.5 140.5t-116.5 373.5zM250 504q0 -76 15.5 -144.5t49 -132t100 -101.5t156.5 -38q346 0 347 545q0 70 -7 137q-43 57 -132 96t-191 39q-164 0 -251 -107.5t-87 -293.5z" />
<glyph unicode="&#xf1;" horiz-adv-x="1191" d="M184 0v1047h121l8 -132q203 152 394 152q164 0 240.5 -90t76.5 -270v-707h-137v692q0 125 -50.5 189.5t-166.5 64.5q-92 0 -190.5 -48t-157.5 -101v-797h-138zM270 1217q-14 117 36 175t128 58q68 0 169.5 -48t141.5 -48q45 0 64.5 21.5t19.5 90.5l97 -4 q14 -117 -36 -173t-132 -56q-66 0 -169.5 48t-148.5 48q-80 0 -75 -117z" />
<glyph unicode="&#xf2;" horiz-adv-x="1175" d="M113 518q0 258 129 403.5t368 145.5q231 0 342 -139.5t111 -382.5q0 -570 -479 -570q-471 0 -471 543zM254 526q0 -434 340 -434q326 0 326 440q0 225 -80 320.5t-238 95.5q-162 0 -255 -104.5t-93 -317.5zM381 1534h180l217 -336l-106 -27z" />
<glyph unicode="&#xf3;" horiz-adv-x="1175" d="M113 518q0 258 129 403.5t368 145.5q231 0 342 -139.5t111 -382.5q0 -570 -479 -570q-471 0 -471 543zM254 526q0 -434 340 -434q326 0 326 440q0 225 -80 320.5t-238 95.5q-162 0 -255 -104.5t-93 -317.5zM446 1198l218 336h180l-291 -363z" />
<glyph unicode="&#xf4;" horiz-adv-x="1175" d="M113 518q0 258 129 403.5t368 145.5q231 0 342 -139.5t111 -382.5q0 -570 -479 -570q-471 0 -471 543zM254 526q0 -434 340 -434q326 0 326 440q0 225 -80 320.5t-238 95.5q-162 0 -255 -104.5t-93 -317.5zM307 1196l234 338h137l242 -338l-115 -12l-197 250l-188 -254z " />
<glyph unicode="&#xf5;" horiz-adv-x="1175" d="M113 518q0 258 129 403.5t368 145.5q231 0 342 -139.5t111 -382.5q0 -570 -479 -570q-471 0 -471 543zM254 526q0 -434 340 -434q326 0 326 440q0 225 -80 320.5t-238 95.5q-162 0 -255 -104.5t-93 -317.5zM287 1217q-14 117 36 175t128 58q68 0 169 -48t142 -48 q45 0 64.5 21.5t19.5 90.5l96 -4q14 -117 -36 -173t-132 -56q-66 0 -169 48t-148 48q-80 0 -76 -117z" />
<glyph unicode="&#xf6;" horiz-adv-x="1175" d="M113 518q0 258 129 403.5t368 145.5q231 0 342 -139.5t111 -382.5q0 -570 -479 -570q-471 0 -471 543zM254 526q0 -434 340 -434q326 0 326 440q0 225 -80 320.5t-238 95.5q-162 0 -255 -104.5t-93 -317.5zM295 1368q0 47 29.5 76t78.5 29q47 0 77 -29t30 -76 q0 -49 -28.5 -76.5t-78 -27.5t-79 27.5t-29.5 76.5zM702 1368q0 47 30 76t79 29q47 0 77 -29t30 -76q0 -49 -29 -76.5t-78 -27.5t-79 27.5t-30 76.5z" />
<glyph unicode="&#xf7;" horiz-adv-x="1167" d="M195 598v127h763v-127h-763zM451 350q0 117 118.5 117t118.5 -117t-118.5 -117t-118.5 117zM451 968.5q0 116.5 118.5 116.5t118.5 -116.5t-118.5 -116.5t-118.5 116.5z" />
<glyph unicode="&#xf8;" horiz-adv-x="1175" d="M113 518q0 258 129 403.5t368 145.5q82 0 148 -18l69 151h136l-93 -201q193 -125 193 -454q0 -570 -479 -570q-84 0 -166 21l-64 -143h-137l88 194q-193 125 -192 471zM254 526q0 -248 108 -354l345 764q-47 12 -105 12q-162 0 -255 -104.5t-93 -317.5zM469 109 q59 -17 125 -17q326 0 326 440q0 248 -103 345z" />
<glyph unicode="&#xf9;" horiz-adv-x="1191" d="M182 340v707h137v-693q0 -127 47.5 -190.5t163.5 -63.5q92 0 190.5 48.5t158.5 101.5v797h137v-1047h-121l-8 131q-203 -152 -393 -151q-164 0 -238 90t-74 270zM352 1534h180l218 -336l-107 -27z" />
<glyph unicode="&#xfa;" horiz-adv-x="1191" d="M182 340v707h137v-693q0 -127 47.5 -190.5t163.5 -63.5q92 0 190.5 48.5t158.5 101.5v797h137v-1047h-121l-8 131q-203 -152 -393 -151q-164 0 -238 90t-74 270zM446 1198l218 336h180l-291 -363z" />
<glyph unicode="&#xfb;" horiz-adv-x="1191" d="M182 340v707h137v-693q0 -127 47.5 -190.5t163.5 -63.5q92 0 190.5 48.5t158.5 101.5v797h137v-1047h-121l-8 131q-203 -152 -393 -151q-164 0 -238 90t-74 270zM297 1196l233 338h138l241 -338l-114 -12l-197 250l-188 -254z" />
<glyph unicode="&#xfc;" horiz-adv-x="1191" d="M182 340v707h137v-693q0 -127 47.5 -190.5t163.5 -63.5q92 0 190.5 48.5t158.5 101.5v797h137v-1047h-121l-8 131q-203 -152 -393 -151q-164 0 -238 90t-74 270zM274 1368q0 47 30 76t79 29q47 0 76.5 -29t29.5 -76q0 -49 -28.5 -76.5t-77.5 -27.5t-79 27.5t-30 76.5z M682 1368q0 47 29.5 76t79.5 29q47 0 76.5 -29t29.5 -76q0 -49 -28.5 -76.5t-78 -27.5t-79 27.5t-29.5 76.5z" />
<glyph unicode="&#xfd;" horiz-adv-x="960" d="M-39 -420l21 107q98 -31 172 -31q80 0 142.5 75t115.5 261l-385 1055h147l307 -885l320 885h139q-197 -524 -422 -1108q-84 -229 -159.5 -312.5t-208.5 -83.5q-100 0 -189 37zM346 1198l217 336h180l-290 -363z" />
<glyph unicode="&#xfe;" horiz-adv-x="1181" d="M184 -434v1980h135v-622q172 143 371 143q379 0 379 -518q0 -289 -125 -431.5t-317 -142.5q-154 0 -305 111v-520h-138zM322 217q164 -125 305 -125q303 0 303 463q0 213 -66.5 306t-208.5 93q-92 0 -183 -47t-150 -108v-582z" />
<glyph unicode="&#xff;" horiz-adv-x="960" d="M-39 -420l21 107q98 -31 172 -31q80 0 142.5 75t115.5 261l-385 1055h147l307 -885l320 885h139q-197 -524 -422 -1108q-84 -229 -159.5 -312.5t-208.5 -83.5q-100 0 -189 37zM168 1368q0 47 29.5 76t78.5 29q47 0 77 -29t30 -76q0 -49 -28.5 -76.5t-78 -27.5t-79 27.5 t-29.5 76.5zM575 1368q0 47 30 76t79 29q47 0 77 -29t30 -76q0 -49 -29 -76.5t-78 -27.5t-79 27.5t-30 76.5z" />
<glyph unicode="&#x152;" horiz-adv-x="2246" d="M113 743q0 342 181 554t503 212q346 0 510 -264v238h821v-115h-701v-561h656v-115h-656v-577h721v-115h-841v264q-166 -289 -539 -289q-324 0 -489.5 210t-165.5 558zM256 743q0 -307 142 -477t378 -170q238 0 381 169t143 489q0 301 -138 468t-369 167 q-238 0 -387.5 -170t-149.5 -476z" />
<glyph unicode="&#x153;" horiz-adv-x="1914" d="M113 518q0 258 129 403.5t368 145.5q281 0 383 -223q119 223 402 223q205 0 304 -121t99 -321q0 -57 -10 -129h-733q6 -219 95 -308.5t241 -89.5q119 0 178 48.5t86 150.5l129 -25q-33 -150 -141.5 -223.5t-262.5 -73.5q-295 0 -397 224q-106 -223 -399 -224 q-471 0 -471 543zM254 526q0 -434 340 -434q326 0 326 440q0 225 -80 320.5t-238 95.5q-162 0 -255 -104.5t-93 -317.5zM1057 606h598q6 342 -273 342q-131 0 -224 -85t-101 -257z" />
<glyph unicode="&#x178;" horiz-adv-x="1126" d="M0 1483h152l423 -764l412 764h139l-485 -895v-588h-137v582zM252 1706q0 47 29.5 75.5t78.5 28.5q47 0 77 -28.5t30 -75.5q0 -49 -28.5 -76.5t-78 -27.5t-79 27.5t-29.5 76.5zM659 1706q0 47 30 75.5t79 28.5q47 0 76.5 -28.5t29.5 -75.5q0 -49 -28.5 -76.5t-77.5 -27.5 t-79 27.5t-30 76.5z" />
<glyph unicode="&#x2c6;" horiz-adv-x="1024" d="M209 1196l233 338h138l241 -338l-114 -12l-197 250l-188 -254z" />
<glyph unicode="&#x2dc;" horiz-adv-x="1024" d="M190 1217q-14 117 36 175t128 58q68 0 169.5 -48t142.5 -48q45 0 64.5 21.5t19.5 90.5l96 -4q14 -117 -36 -173t-132 -56q-66 0 -169 48t-149 48q-80 0 -75 -117z" />
<glyph unicode="&#x2000;" horiz-adv-x="934" />
<glyph unicode="&#x2001;" horiz-adv-x="1868" />
<glyph unicode="&#x2002;" horiz-adv-x="934" />
<glyph unicode="&#x2003;" horiz-adv-x="1868" />
<glyph unicode="&#x2004;" horiz-adv-x="622" />
<glyph unicode="&#x2005;" horiz-adv-x="467" />
<glyph unicode="&#x2006;" horiz-adv-x="311" />
<glyph unicode="&#x2007;" horiz-adv-x="311" />
<glyph unicode="&#x2008;" horiz-adv-x="233" />
<glyph unicode="&#x2009;" horiz-adv-x="373" />
<glyph unicode="&#x200a;" horiz-adv-x="103" />
<glyph unicode="&#x2010;" horiz-adv-x="649" d="M41 537v137h555v-137h-555z" />
<glyph unicode="&#x2011;" horiz-adv-x="649" d="M41 537v137h555v-137h-555z" />
<glyph unicode="&#x2012;" horiz-adv-x="649" d="M41 537v137h555v-137h-555z" />
<glyph unicode="&#x2013;" horiz-adv-x="1024" d="M0 522v111h1022v-111h-1022z" />
<glyph unicode="&#x2014;" horiz-adv-x="2048" d="M0 522v111h2046v-111h-2046z" />
<glyph unicode="&#x2018;" horiz-adv-x="362" d="M76 1141l162 446l108 -16l-108 -430h-162z" />
<glyph unicode="&#x2019;" horiz-adv-x="362" d="M68 1153l108 430h162l-162 -446z" />
<glyph unicode="&#x201a;" horiz-adv-x="339" d="M31 -258l108 430h162l-162 -446z" />
<glyph unicode="&#x201c;" horiz-adv-x="655" d="M76 1141l162 446l108 -16l-108 -430h-162zM369 1141l161 446l109 -16l-109 -430h-161z" />
<glyph unicode="&#x201d;" horiz-adv-x="655" d="M57 1153l109 430h162l-162 -446zM350 1153l109 430h162l-162 -446z" />
<glyph unicode="&#x201e;" horiz-adv-x="632" d="M31 -258l108 430h162l-162 -446zM322 -258l108 430h162l-162 -446z" />
<glyph unicode="&#x2022;" horiz-adv-x="747" d="M104 573.5q0 131.5 70 198t199 66.5q131 0 200.5 -66.5t69.5 -198t-69.5 -198t-200.5 -66.5q-129 0 -199 66.5t-70 198z" />
<glyph unicode="&#x2026;" horiz-adv-x="1191" d="M102 92q0 117 119 117t119 -117t-119 -117t-119 117zM477 92q0 117 119 117t119 -117t-119 -117t-119 117zM852 92q0 117 119 117t119 -117t-119 -117t-119 117z" />
<glyph unicode="&#x202f;" horiz-adv-x="373" />
<glyph unicode="&#x2039;" horiz-adv-x="569" d="M133 532l182 304h136l-170 -299l168 -326h-136z" />
<glyph unicode="&#x203a;" horiz-adv-x="569" d="M113 211l170 303l-168 322h135l180 -318l-182 -307h-135z" />
<glyph unicode="&#x205f;" horiz-adv-x="467" />
<glyph unicode="&#x20ac;" horiz-adv-x="1226" d="M35 526l18 107h117q-2 27 -2 82q0 66 2 96h-104l18 107h96q39 317 193.5 454t374.5 137q190 0 305.5 -105.5t132.5 -318.5l-131 -12q-23 172 -91.5 244t-222.5 72q-369 0 -422 -471h488l-21 -107h-475q-2 -31 -2 -90t2 -88h465l-20 -107h-437q27 -217 123.5 -324.5 t278.5 -107.5q143 0 223 66.5t113 218.5l119 -31q-31 -193 -160 -283t-305 -90q-471 0 -533 551h-143z" />
<glyph unicode="&#x2122;" horiz-adv-x="1685" d="M41 1386v97h653v-97h-274v-673h-107v673h-272zM809 713v770h129l246 -619l252 619h116v-770h-98v573l-233 -573h-82l-230 575v-575h-100z" />
<glyph unicode="&#x25fc;" horiz-adv-x="1044" d="M0 0v1044h1044v-1044h-1044z" />
</font>
</defs>
</svg>
