<?xml version="1.0" standalone="no"?>
<!DOCTYPE svg PUBLIC "-//W3C//DTD SVG 1.1//EN" "http://www.w3.org/Graphics/SVG/1.1/DTD/svg11.dtd" >
<svg xmlns="http://www.w3.org/2000/svg">
<metadata></metadata>
<defs>
<font id="adelle_sans_sagethin_italic" horiz-adv-x="1167" >
<font-face units-per-em="2048" ascent="1546" descent="-502" />
<missing-glyph horiz-adv-x="495" />
<glyph unicode="&#xfb01;" horiz-adv-x="1146" d="M86 -434l195 1388h-162l12 86h164l29 220q39 303 305 303q90 0 155 -33l-16 -84q-72 27 -147 27q-168 0 -195 -199l-31 -234h633l-147 -1040h-101l135 954h-534l-195 -1388h-100zM934 1374q0 47 26.5 75t75.5 28q78 0 78 -74q0 -47 -27.5 -75t-74.5 -28q-78 0 -78 74z " />
<glyph unicode="&#xfb02;" horiz-adv-x="1153" d="M86 -434l195 1388h-162l12 86h164l29 220q39 303 305 303q89 0 155 -33l-16 -84q-72 27 -147 27q-168 0 -195 -199l-31 -234h301l-14 -86h-301l-195 -1388h-100zM784 0l217 1546h101l-217 -1546h-101z" />
<glyph unicode="&#xfb03;" horiz-adv-x="1798" d="M86 -434l195 1388h-162l12 86h164l29 220q39 303 305 303q90 0 155 -33l-16 -84q-72 27 -147 27q-168 0 -195 -199l-31 -234h545l29 220q39 303 305 303q90 0 156 -33l-17 -84q-72 27 -147 27q-168 0 -195 -199l-31 -234h633l-147 -1040h-101l136 954h-535l-195 -1388 h-100l195 1388h-545l-195 -1388h-100zM1579 1374q0 47 26.5 75t75.5 28q78 0 78 -74q0 -47 -27.5 -75t-74.5 -28q-78 0 -78 74z" />
<glyph unicode="&#xfb04;" horiz-adv-x="1792" d="M86 -434l195 1388h-162l12 86h164l29 220q39 303 305 303q90 0 155 -33l-16 -84q-72 27 -147 27q-168 0 -195 -199l-31 -234h541l29 220q39 303 305 303q89 0 155 -33l-16 -84q-72 27 -147 27q-168 0 -195 -199l-31 -234h301l-14 -86h-301l-195 -1388h-100l195 1388h-541 l-195 -1388h-100zM1425 0l217 1546h101l-217 -1546h-101z" />
<glyph horiz-adv-x="0" />
<glyph horiz-adv-x="0" />
<glyph horiz-adv-x="682" />
<glyph unicode="&#xd;" horiz-adv-x="681" />
<glyph unicode=" "  horiz-adv-x="495" />
<glyph unicode="&#x09;" horiz-adv-x="495" />
<glyph unicode="&#xa0;" horiz-adv-x="495" />
<glyph unicode="!" horiz-adv-x="507" d="M59 61q0 123 119 123q90 0 90 -86q0 -123 -118 -123q-90 0 -91 86zM170 369l129 1114h121l-176 -1114h-74z" />
<glyph unicode="&#x22;" horiz-adv-x="704" d="M180 952l74 531h98l-73 -531h-99zM487 952l74 531h98l-73 -531h-99z" />
<glyph unicode="#" horiz-adv-x="1243" d="M-12 303l37 78h260l123 389h-267l33 80h260l86 262h88l-84 -262h293l82 262h90l-80 -262h267l-31 -80h-262l-119 -389h262l-31 -78h-258l-94 -303h-90l94 303h-297l-96 -303h-90l92 303h-268zM375 381h297l121 389h-293z" />
<glyph unicode="$" horiz-adv-x="1067" d="M37 393l94 17q16 -154 75.5 -232t209.5 -82l84 617q-74 29 -121 53.5t-98.5 66t-77 101t-25.5 137.5q0 166 120 270.5t304 114.5l25 166h84l-25 -170q297 -37 291 -385l-86 -14q-2 295 -217 317l-80 -594q61 -25 97 -41t85 -48t76 -63.5t46.5 -81.5t19.5 -110 q0 -195 -123 -300t-308 -120l-26 -176h-82l24 176q-354 14 -366 381zM274 1071q0 -100 61.5 -157.5t176.5 -104.5l76 563q-139 -10 -226.5 -85t-87.5 -216zM502 98q145 16 233 98.5t88 223.5q0 100 -62.5 156.5t-178.5 105.5z" />
<glyph unicode="%" horiz-adv-x="1589" d="M129 1079q0 182 102.5 306t276.5 124q281 0 280 -311q0 -186 -95 -309t-283 -123q-141 0 -211 87t-70 226zM174 -37l1112 1520h109l-1110 -1520h-111zM229 1071q0 -94 45.5 -155.5t141.5 -61.5q74 0 128 29.5t80.5 67.5t41 93.5t16.5 85t2 62.5q0 229 -180 229 q-143 0 -209 -106.5t-66 -243.5zM819 289q0 182 102.5 306t276.5 124q281 0 281 -311q0 -186 -95.5 -309.5t-283.5 -123.5q-141 0 -211 87.5t-70 226.5zM920 281q0 -94 45 -156t141 -62q74 0 128 30t80.5 68t41 93t16.5 85t2 62q0 229 -180 230q-143 0 -208.5 -106.5 t-65.5 -243.5z" />
<glyph unicode="&#x26;" horiz-adv-x="1363" d="M109 317q0 162 79.5 276t241.5 202q-41 119 -41 237q0 176 103.5 284.5t267.5 108.5q104 0 176 -59t72 -172q0 -76 -28 -138.5t-64.5 -103.5t-106.5 -81t-124 -63.5t-144 -55.5q45 -119 143 -276t184 -261q145 154 203 463h90q-59 -350 -237 -535q96 -92 192 -92 q55 0 111 27l16 -66q-53 -39 -135 -39q-78 0 -132 29t-114 88q-164 -115 -379 -115q-166 0 -270 94.5t-104 247.5zM205 338q0 -121 70.5 -200t224.5 -79q164 0 307 97q-194 221 -350 563q-252 -133 -252 -381zM487 1038q0 -119 29 -213q217 86 306 161t89 194 q0 78 -43 120.5t-125 42.5q-115 0 -185.5 -76.5t-70.5 -228.5z" />
<glyph unicode="'" horiz-adv-x="397" d="M180 952l74 531h98l-73 -531h-99z" />
<glyph unicode="(" horiz-adv-x="583" d="M117 416q0 514 452 1067h99q-233 -307 -343 -555t-110 -522q0 -342 178 -719l-98 2q-178 373 -178 727z" />
<glyph unicode=")" horiz-adv-x="583" d="M-121 -313q233 307 343 554.5t110 522.5q0 342 -178 719l98 -2q178 -373 178 -727q0 -514 -453 -1067h-98z" />
<glyph unicode="*" horiz-adv-x="954" d="M207 1266l24 45l271 -64l88 299h43l-4 -299l284 66l11 -45l-281 -129l137 -267l-43 -28l-192 209l-262 -213l-35 30l209 271z" />
<glyph unicode="+" horiz-adv-x="1165" d="M197 612l16 97h330l51 323h98l-51 -323h330l-17 -97h-329l-54 -338h-98l53 338h-329z" />
<glyph unicode="," horiz-adv-x="419" d="M-37 -227l156 395h127l-207 -410z" />
<glyph unicode="-" horiz-adv-x="651" d="M29 565l12 94h555l-12 -94h-555z" />
<glyph unicode="." horiz-adv-x="417" d="M35 57q0 117 117 117q86 0 86 -82q0 -117 -117 -117q-86 0 -86 82z" />
<glyph unicode="/" horiz-adv-x="684" d="M-104 -188l819 1734h98l-817 -1734h-100z" />
<glyph unicode="0" horiz-adv-x="1155" d="M109 496q0 78 5 158.5t22.5 184t44 193.5t72.5 180.5t106.5 154t149.5 103t196 39.5q195 0 279.5 -123.5t84.5 -324.5q0 -90 -4 -176t-19.5 -198t-40 -207t-69.5 -191t-104.5 -163t-148.5 -109t-198 -42q-111 0 -186.5 37t-116.5 110t-57 162t-16 212zM205 471 q0 -88 10 -152.5t38 -129t87 -98.5t147 -34q106 0 189.5 50.5t134.5 138.5t86 187t50.5 221t21.5 214.5t6 190.5q0 164 -65.5 265t-211.5 101q-102 0 -184 -46t-133 -127t-88 -175t-55.5 -207.5t-25.5 -208t-7 -190.5z" />
<glyph unicode="1" horiz-adv-x="800" d="M172 1237v74q147 14 238.5 52t171.5 120h41l-209 -1483h-97l187 1311q-59 -35 -161.5 -54.5t-170.5 -19.5z" />
<glyph unicode="2" horiz-adv-x="1042" d="M20 0l11 76l432 461q256 270 330.5 385.5t74.5 261.5q0 240 -258 239q-266 0 -348 -288l-94 18q49 182 171 269t292 87q150 0 245 -75.5t95 -233.5q0 -74 -21.5 -145.5t-46 -123.5t-89 -133t-106.5 -127t-141 -153q-158 -166 -415 -432h679l-12 -86h-799z" />
<glyph unicode="3" horiz-adv-x="1085" d="M55 293l90 18q4 -49 15.5 -83.5t38 -78t83 -66t138.5 -22.5q164 0 278.5 99.5t114.5 298.5q0 287 -330 286h-116l12 89h94q193 0 306.5 102t113.5 262q0 225 -242 225q-143 0 -216 -60t-128 -185l-86 24q47 154 164 230.5t277 76.5q162 0 248.5 -81.5t86.5 -217.5 q0 -96 -34.5 -175t-90 -126t-114 -75.5t-117.5 -38.5l-2 -4q276 -43 276 -332q0 -219 -136 -351.5t-359 -132.5q-346 0 -365 318z" />
<glyph unicode="4" horiz-adv-x="1089" d="M31 391l10 70l809 1022h129l-141 -1008h180l-12 -84h-185l-53 -391h-96l55 391h-696zM160 475h581l125 891z" />
<glyph unicode="5" horiz-adv-x="1105" d="M41 297l92 29q37 -264 291 -265q178 0 305 118t127 374q0 147 -69.5 224t-200.5 77q-172 0 -338 -137l-68 37l160 729h680l-12 -86h-592l-137 -572q135 115 323 115q147 0 250.5 -92t103.5 -301q0 -246 -143 -409t-395 -163q-162 0 -263.5 85t-113.5 237z" />
<glyph unicode="6" horiz-adv-x="1157" d="M133 492q0 106 15.5 226t60.5 265t114.5 259t189.5 190.5t271 76.5q129 0 211 -82t88 -229l-86 -18q-27 244 -235 243q-96 0 -178 -47t-138.5 -121.5t-99.5 -174t-66.5 -192.5t-37.5 -192q70 78 188.5 140.5t233.5 62.5q172 0 259 -99.5t87 -258.5q0 -248 -138.5 -407 t-357.5 -159q-109 0 -185.5 38t-117.5 110t-59.5 161t-18.5 208zM229 477q0 -418 287 -418q168 0 281.5 124t113.5 352q0 133 -64.5 203.5t-182.5 70.5q-113 0 -228 -61.5t-203 -153.5q-4 -74 -4 -117z" />
<glyph unicode="7" horiz-adv-x="1021" d="M102 0l826 1397h-795l12 86h906l-11 -78l-829 -1405h-109z" />
<glyph unicode="8" horiz-adv-x="1075" d="M61 307q0 176 106.5 279.5t293.5 181.5q-250 125 -250 334q0 186 138 296.5t343 110.5q166 0 262.5 -76.5t96.5 -211.5q-1 -275 -400 -455q68 -31 111 -55.5t94 -66.5t76.5 -101.5t25.5 -132.5q0 -193 -141 -314t-362 -121q-195 0 -294.5 94.5t-99.5 237.5zM164 307 q0 -111 73.5 -180.5t227.5 -69.5q197 0 297 106.5t100 235.5q0 70 -27.5 125.5t-82 93t-95.5 58t-104 45.5q-203 -74 -296 -165t-93 -249zM305 1112q0 -113 60.5 -176t197.5 -129q389 178 389 403q0 100 -70.5 157.5t-207.5 57.5q-162 0 -265.5 -87t-103.5 -226z" />
<glyph unicode="9" horiz-adv-x="1157" d="M68 279l86 22q35 -246 262 -246q123 0 221 61.5t159.5 166t98.5 227.5t47 262q-70 -76 -203 -142.5t-250 -66.5q-168 0 -247.5 106.5t-79.5 272.5q0 252 138 409.5t372 157.5q369 0 368 -522q0 -465 -161.5 -738.5t-466.5 -273.5q-145 0 -234.5 76t-109.5 228zM252 950 q0 -303 242 -303q111 0 236.5 65.5t213.5 155.5q2 43 2 144q0 414 -287 413q-168 0 -287.5 -123.5t-119.5 -351.5z" />
<glyph unicode=":" horiz-adv-x="440" d="M35 57q0 117 117 117q86 0 86 -82q0 -117 -117 -117q-86 0 -86 82zM166 887q0 117 117 117q86 0 86 -82q0 -117 -117 -117q-86 0 -86 82z" />
<glyph unicode=";" horiz-adv-x="466" d="M-37 -227l156 395h127l-207 -410zM213 887q0 117 117 117q86 0 86 -82q0 -117 -117 -117q-86 0 -86 82z" />
<glyph unicode="&#x3c;" d="M170 535l18 104l813 336l-16 -103l-700 -288l612 -271l-16 -88z" />
<glyph unicode="=" d="M180 395l15 92h747l-14 -92h-748zM225 686l15 92h747l-14 -92h-748z" />
<glyph unicode="&#x3e;" horiz-adv-x="1165" d="M121 213l16 100l699 271l-611 288l17 91l706 -336l-18 -105z" />
<glyph unicode="?" horiz-adv-x="983" d="M147 1153q87 324 445 324q156 0 259 -85t103 -255q0 -428 -528 -490l-39 -282h-90l51 362q104 6 185 24.5t159 59.5t120 120t42 191q0 137 -77 204t-202 67q-121 0 -207.5 -55.5t-129.5 -204.5zM203 61q0 123 119 123q90 0 90 -86q0 -123 -119 -123q-90 0 -90 86z" />
<glyph unicode="@" horiz-adv-x="1705" d="M94 279q0 412 249 644t652 232q285 0 456 -135t171 -410q0 -96 -21.5 -195.5t-68.5 -195.5t-135 -157.5t-205 -61.5q-76 0 -121 35t-55 80q-49 -55 -130 -93t-165 -38q-133 0 -191.5 77.5t-58.5 200.5q0 231 126 391t298 160q139 0 223 -84l17 72h79l-92 -527 q-14 -76 -14 -116q0 -47 21.5 -71t76.5 -24q47 0 98.5 25t105.5 80t89 164.5t35 257.5q0 264 -147.5 377.5t-415.5 113.5q-354 0 -571.5 -214t-217.5 -584q0 -270 159 -403.5t423 -133.5q295 0 471 160l47 -56q-201 -180 -545 -180q-297 0 -470 158t-173 451zM567 254 q0 -195 168 -195q80 0 162 47t127 121l78 432q-78 78 -199 78q-131 0 -233.5 -129t-102.5 -354z" />
<glyph unicode="A" horiz-adv-x="1249" d="M-10 0l682 1483h147l287 -1483h-105l-94 508h-585l-232 -508h-100zM365 594h524l-152 813h-2z" />
<glyph unicode="B" horiz-adv-x="1224" d="M141 0l199 1483h412q227 0 318 -80t91 -227q0 -176 -98 -275.5t-252 -128.5v-4q297 -45 297 -315q0 -244 -151 -348.5t-425 -104.5h-391zM252 88h266q117 0 198 13.5t151.5 50t105.5 109.5t35 185q0 86 -35 142.5t-104.5 82t-141.5 35t-178 9.5h-215zM346 805h260 q74 0 144.5 16.5t143.5 53t117 113.5t44 183q0 141 -93.5 183.5t-324.5 42.5h-213z" />
<glyph unicode="C" horiz-adv-x="1341" d="M115 573q0 434 213 685t540 251q221 0 344 -130q110 -117 110 -318q0 -23 -1 -47l-90 -8q0 419 -365 419h-2q-289 0 -469 -225t-180 -618q0 -520 440 -521q184 0 295.5 83.5t179.5 267.5l87 -23q-133 -414 -586 -414q-264 0 -390 158t-126 440z" />
<glyph unicode="D" horiz-adv-x="1433" d="M141 0l199 1483h389q313 0 465 -157t152 -439q0 -195 -51.5 -354.5t-152 -279.5t-265 -186.5t-379.5 -66.5h-357zM248 84h266q346 0 539.5 214t193.5 599q0 266 -137 384t-397 118h-287z" />
<glyph unicode="E" horiz-adv-x="1112" d="M141 0l199 1483h776l-10 -84h-680l-80 -602h633l-10 -86h-633l-86 -625h696l-14 -86h-791z" />
<glyph unicode="F" horiz-adv-x="1060" d="M141 0l199 1483h776l-6 -84h-682l-86 -623h631l-8 -90h-633l-94 -686h-97z" />
<glyph unicode="G" horiz-adv-x="1413" d="M115 584q0 436 212 680.5t547 244.5q221 0 340 -119q105 -104 105 -303q0 -27 -2 -55l-88 -12q1 17 1 34q0 192 -86 278q-93 93 -280 93q-291 0 -469 -224t-178 -615q0 -289 116 -408t318 -119q209 0 343 127t155 289l29 203h-457l14 88h545l-104 -766h-74l14 227 q-156 -252 -475 -252q-266 0 -396 161t-130 448z" />
<glyph unicode="H" horiz-adv-x="1413" d="M137 0l201 1483h98l-92 -676h780l93 676h98l-201 -1483h-96l96 721h-782l-96 -721h-99z" />
<glyph unicode="I" horiz-adv-x="528" d="M141 0l199 1483h98l-200 -1483h-97z" />
<glyph unicode="J" horiz-adv-x="956" d="M29 270l86 23q14 -106 63 -169t172 -63q117 0 189 58.5t92 220.5l155 1143h97l-154 -1155q-47 -352 -387 -353q-291 0 -313 295z" />
<glyph unicode="K" horiz-adv-x="1218" d="M137 0l199 1483h96l-106 -783l798 783h123l-674 -656l525 -827h-115l-481 764l-191 -186l-78 -578h-96z" />
<glyph unicode="L" horiz-adv-x="1054" d="M141 0l199 1483h96l-188 -1397h655l-12 -86h-750z" />
<glyph unicode="M" horiz-adv-x="1724" d="M141 0l199 1483h147l308 -1397h2l678 1397h155l-198 -1483h-93l187 1370h-4l-674 -1370h-129l-305 1370h-2l-185 -1370h-86z" />
<glyph unicode="N" horiz-adv-x="1452" d="M137 0l199 1483h151l594 -1370l187 1370h92l-199 -1483h-129l-612 1393l-189 -1393h-94z" />
<glyph unicode="O" horiz-adv-x="1482" d="M111 612q0 399 199.5 648t557.5 249q264 0 398.5 -164.5t134.5 -429.5q0 -444 -198.5 -692t-540.5 -248q-274 0 -412.5 170t-138.5 467zM211 612q0 -117 25.5 -212t78 -172.5t142.5 -121t213 -43.5q272 0 450 211t178 613q0 240 -108.5 387t-337.5 147 q-276 0 -458.5 -205.5t-182.5 -603.5z" />
<glyph unicode="P" horiz-adv-x="1196" d="M141 0l199 1483h365q231 0 345.5 -99.5t114.5 -261.5q0 -536 -594 -536h-2h-252l-81 -586h-95zM330 674h248q229 0 357 98t128 346q0 156 -100.5 218.5t-315.5 62.5h-221z" />
<glyph unicode="Q" horiz-adv-x="1482" d="M111 612q0 399 199.5 648t557.5 249q264 0 398.5 -164.5t134.5 -429.5q0 -358 -131 -590.5t-367 -312.5q160 -201 416 -256l-23 -82q-129 20 -278.5 120t-208.5 196q-65 -15 -147 -15q-274 0 -412.5 170t-138.5 467zM211 612q0 -117 25.5 -212t78 -172.5t142.5 -121 t213 -43.5q272 0 450 211t178 613q0 240 -108.5 387t-337.5 147q-276 0 -458.5 -205.5t-182.5 -603.5z" />
<glyph unicode="R" horiz-adv-x="1226" d="M141 0l199 1483h401q434 0 435 -346q0 -180 -85.5 -291t-269.5 -168l277 -678h-101l-268 657h-405l-88 -657h-95zM336 743h315q190 0 308 94.5t118 290.5q0 156 -89 213.5t-265 57.5h-297z" />
<glyph unicode="S" horiz-adv-x="1120" d="M33 377l92 16q16 -152 93 -238.5t263 -86.5q78 0 146.5 16t132 54t100.5 108.5t37 167.5q0 68 -22.5 117t-69.5 81.5t-90 51t-113 41.5q-195 61 -260 104q-145 94 -145 281q0 193 135 306t354 113q186 0 294 -103q106 -101 105 -304v-8l-96 -13q0 338 -301 338 q-199 0 -295 -88t-96 -233q0 -72 27.5 -124t79 -85t106.5 -54.5t129 -46.5q23 -6 35 -10q154 -49 240.5 -127t86.5 -225q0 -225 -148 -338t-372 -113q-229 0 -331.5 106.5t-116.5 295.5z" />
<glyph unicode="T" horiz-adv-x="1024" d="M139 1399l11 84h962l-12 -84h-434l-187 -1399h-92l188 1399h-436z" />
<glyph unicode="U" horiz-adv-x="1409" d="M197 469l137 1014h96l-135 -1010q-7 -55 -7 -103q0 -140 64 -210q86 -94 275 -94q197 0 312.5 95t143.5 314l136 1008h96l-137 -1012q-66 -496 -551 -496q-438 0 -438 382q0 53 8 112z" />
<glyph unicode="V" horiz-adv-x="1155" d="M141 1483h101l266 -1401h2l618 1401h101l-660 -1483h-137z" />
<glyph unicode="W" horiz-adv-x="1687" d="M182 1483h99l90 -1354h2l524 1354h127l158 -1379h2l446 1379h94l-493 -1483h-125l-160 1370h-2l-538 -1370h-107z" />
<glyph unicode="X" horiz-adv-x="1181" d="M-31 0l570 768l-346 715h104l309 -647l494 647h106l-547 -723l396 -760h-103l-358 688l-512 -688h-113z" />
<glyph unicode="Y" horiz-adv-x="1030" d="M117 1483h102l311 -793h2l515 793h104l-582 -889l-82 -594h-92l80 586z" />
<glyph unicode="Z" horiz-adv-x="1116" d="M4 0l8 68l992 1331h-789l12 84h912l-11 -70l-991 -1327h848l-12 -86h-969z" />
<glyph unicode="[" horiz-adv-x="489" d="M25 -293l247 1776h263l-11 -78h-172l-227 -1620h172l-10 -78h-262z" />
<glyph unicode="\" horiz-adv-x="679" d="M145 1546h88l332 -1734h-90z" />
<glyph unicode="]" horiz-adv-x="489" d="M-76 -293l10 78h172l228 1620h-172l10 78h262l-248 -1776h-262z" />
<glyph unicode="^" horiz-adv-x="1007" d="M45 612l404 748h104l410 -748h-105l-360 648l-353 -648h-100z" />
<glyph unicode="_" horiz-adv-x="1024" d="M14 -297h1024v-74h-1024v74z" />
<glyph unicode="`" horiz-adv-x="1021" d="M461 1536h139l184 -336l-79 -29z" />
<glyph unicode="a" horiz-adv-x="1163" d="M113 387q0 86 13 172t49 179t90 164t144.5 116t202.5 45q178 0 320 -117l20 94h86l-125 -880q-2 -18 -2 -33q-1 -23 5 -37q10 -22 47 -22q33 0 67 10l-10 -76q-31 -10 -72 -10q-125 0 -125 122q0 16 2 33q-182 -172 -385 -172q-152 0 -239.5 99.5t-87.5 312.5zM207 385 q0 -324 250 -324q94 0 177 40t200 151l81 600q-51 49 -139 85t-180 36q-104 0 -184 -57.5t-122 -148.5t-62.5 -188.5t-20.5 -193.5z" />
<glyph unicode="b" horiz-adv-x="1187" d="M121 0l217 1546h98l-94 -655q82 57 122 82.5t124 57.5t162 32q313 0 313 -393q0 -342 -143.5 -518.5t-348.5 -176.5q-176 0 -338 119h-2l-18 -94h-92zM250 201q152 -131 315 -131q109 0 190 53t125 143t64.5 191.5t20.5 216.5q0 299 -226 299q-102 0 -215.5 -59.5 t-193.5 -131.5z" />
<glyph unicode="c" horiz-adv-x="1081" d="M111 424q0 299 152.5 469t387.5 170q180 -1 265 -109q69 -88 69 -221q0 -31 -4 -65l-90 -11q1 15 1 29q0 135 -52 209q-56 82 -199 82q-78 0 -149.5 -28.5t-138 -89t-106.5 -174.5t-40 -267q0 -186 83 -271.5t216 -85.5q256 0 334 248l86 -20q-41 -154 -155.5 -234 t-268.5 -80q-199 0 -295 118t-96 331z" />
<glyph unicode="d" horiz-adv-x="1161" d="M113 367q0 352 146.5 524t354.5 172q174 0 314 -115l84 598h102l-217 -1546h-84l10 127h-4q-178 -152 -366 -152q-158 0 -249 97.5t-91 294.5zM207 373q0 -311 252 -312q76 0 149.5 30t116.5 62t109 89l81 616q-137 119 -303 119q-137 0 -231 -87t-134 -219t-40 -298z " />
<glyph unicode="e" horiz-adv-x="1040" d="M111 436q0 160 55 298t180 233.5t301 95.5q145 0 229.5 -74t84.5 -184q0 -242 -304 -328q-172 -49 -452 -55q2 -59 9 -104.5t26.5 -96.5t51.5 -84t88 -55.5t132 -22.5q125 0 206 67t109 165l86 -17q-43 -152 -156.5 -225.5t-260.5 -73.5q-203 0 -294 126t-91 335z M209 506q307 12 465 63q186 61 186 234q0 84 -58 129t-167 45q-188 0 -297 -131t-129 -340z" />
<glyph unicode="f" horiz-adv-x="593" d="M86 -434l195 1388h-162l12 86h164l29 220q39 303 305 303q89 0 155 -33l-16 -84q-72 27 -147 27q-168 0 -195 -199l-31 -234h301l-14 -86h-301l-195 -1388h-100z" />
<glyph unicode="g" horiz-adv-x="1144" d="M53 -147l92 20q27 -242 287 -242q147 0 242.5 64.5t120.5 232.5l34 238q-162 -168 -385 -168q-152 0 -240.5 97.5t-88.5 303.5q0 92 15 181.5t53 177.5t94.5 155.5t143.5 108.5t195 41q158 0 318 -117l20 94h86l-157 -1134q-51 -362 -441 -363q-362 0 -389 310zM209 395 q0 -311 237 -311q104 0 194.5 41t199.5 151l78 576q-49 49 -137.5 86t-180.5 37q-86 0 -154.5 -38t-111.5 -97.5t-73 -137t-41 -154.5t-11 -153z" />
<glyph unicode="h" horiz-adv-x="1189" d="M121 0l217 1546h100l-98 -661q219 178 414 178q158 0 230 -91q53 -67 53 -183q0 -40 -7 -87l-98 -702h-101l99 702q6 40 6 75q0 195 -188 196q-102 0 -198.5 -48.5t-217.5 -138.5l-111 -786h-100z" />
<glyph unicode="i" horiz-adv-x="477" d="M111 0l147 1040h100l-147 -1040h-100zM264 1374q0 47 26.5 75t76.5 28q77 0 77 -74q0 -47 -27.5 -75t-74.5 -28q-78 0 -78 74z" />
<glyph unicode="j" horiz-adv-x="477" d="M-250 -424l29 86q70 -27 143 -27q70 0 109 40t53 132l174 1233h100l-174 -1224q-20 -145 -81.5 -209t-186.5 -64q-31 0 -87 10.5t-79 22.5zM260 1374q0 47 26.5 75t75.5 28q78 0 78 -74q0 -47 -27.5 -75t-74.5 -28q-78 0 -78 74z" />
<glyph unicode="k" horiz-adv-x="1015" d="M121 0l217 1546h100l-143 -1022l579 516h136l-428 -381l307 -659h-109l-276 590l-228 -195l-55 -395h-100z" />
<glyph unicode="l" horiz-adv-x="477" d="M111 0l217 1546h100l-217 -1546h-100z" />
<glyph unicode="m" horiz-adv-x="1787" d="M121 0l145 1040h92l-20 -147q217 170 403 170q121 0 176.5 -45t67.5 -131q233 176 414 176q160 -1 206 -95q30 -61 30 -155q0 -51 -9 -113l-96 -700h-100l98 694q8 78 10 140v6q0 57 -35 94q-37 39 -121 39q-164 0 -389 -176l-108 -797h-101l99 694q8 78 12 140v11 q0 54 -34 89q-38 39 -124 39q-176 0 -407 -182l-109 -791h-100z" />
<glyph unicode="n" horiz-adv-x="1189" d="M121 0l145 1040h96l-22 -147q217 170 416 170q280 0 280 -273q0 -41 -6 -88l-98 -702h-101l99 702q6 41 6 77q0 196 -193 196q-177 0 -413 -184l-109 -791h-100z" />
<glyph unicode="o" d="M111 418q0 123 30.5 233.5t94 204.5t173 150.5t253.5 56.5q382 0 382 -443q0 -122 -30 -230q-30 -109 -91 -204.5t-169.5 -153t-249.5 -57.5q-199 0 -296 119t-97 324zM209 420q0 -359 305 -359q113 0 198 47.5t134 128t73.5 178t24.5 206.5q0 354 -295 354 q-217 0 -328.5 -159t-111.5 -396z" />
<glyph unicode="p" horiz-adv-x="1187" d="M57 -434l209 1474h94l-22 -151h4q240 174 408 174q313 0 313 -393q0 -344 -145.5 -519.5t-358.5 -175.5q-176 0 -330 123l-73 -532h-99zM248 199q158 -131 307 -131q90 0 161.5 35.5t117 93t75 138.5t42 164t12.5 175q0 158 -52.5 229.5t-160.5 71.5q-102 0 -223 -63.5 t-197 -129.5z" />
<glyph unicode="q" horiz-adv-x="1153" d="M113 362q0 356 145 528.5t360 172.5q168 0 312 -115l12 92h100l-206 -1474h-93l80 561q-193 -152 -374 -152q-156 0 -246 97.5t-90 289.5zM209 379q0 -317 237 -318q199 0 388 181l81 614q-139 121 -292 121q-209 0 -311.5 -171t-102.5 -427z" />
<glyph unicode="r" horiz-adv-x="700" d="M121 0l145 1040h96l-24 -176q102 109 174 154t166 45q29 0 43 -2l-16 -113q-18 2 -35 2q-78 0 -148 -36q-86 -44 -192 -144l-109 -770h-100z" />
<glyph unicode="s" horiz-adv-x="972" d="M80 299l88 14q29 -258 283 -258q117 0 197.5 53.5t80.5 174.5q0 90 -59.5 131t-186.5 75q-59 16 -86.5 25.5t-77 32t-73 47t-43 68t-19.5 98.5q0 147 105 225t252 78q176 0 258 -93q80 -91 80 -228v-7l-88 -8q-2 115 -61.5 186.5t-186.5 71.5q-141 0 -202.5 -62.5 t-61.5 -152.5q0 -39 15 -70.5t31.5 -49t60.5 -37t66.5 -25.5t84.5 -25q68 -18 105.5 -33.5t86.5 -46t72.5 -80t23.5 -116.5q0 -143 -98 -227.5t-270 -84.5q-350 0 -377 324z" />
<glyph unicode="t" horiz-adv-x="737" d="M117 954l10 86h166l41 301l102 15l-43 -316h295l-12 -86h-295l-100 -698q-5 -38 -5 -69q0 -51 15 -81q24 -46 122 -47q1 1 3 1q100 0 202 55l19 -80q-98 -59 -223 -60q-142 1 -198 63q-42 46 -41 134q0 31 5 68l101 714h-164z" />
<glyph unicode="u" horiz-adv-x="1191" d="M160 334l98 706h100l-96 -694q-6 -54 -6 -102q0 -18 1 -34q3 -62 48 -104.5t131 -42.5q195 1 420 189l109 788h100l-147 -1040h-93l19 143h-2q-76 -66 -188.5 -117t-225.5 -51q-275 0 -275 269q0 42 7 90z" />
<glyph unicode="v" horiz-adv-x="970" d="M102 1040h105l209 -938l471 938h102l-530 -1040h-109z" />
<glyph unicode="w" horiz-adv-x="1458" d="M102 1040h99l139 -938l387 938h127l121 -934l401 934h101l-455 -1040h-127l-119 932l-385 -932h-119z" />
<glyph unicode="x" horiz-adv-x="901" d="M-33 0l410 553l-264 487h102l229 -428l334 428h117l-401 -499l284 -541h-108l-244 469l-346 -469h-113z" />
<glyph unicode="y" horiz-adv-x="915" d="M-150 -422l21 82q68 -31 141 -31q70 0 123 60.5t135 226.5l41 84l-205 1040h105l170 -911l446 911h107l-551 -1099q-121 -244 -190.5 -321t-188.5 -77q-80 0 -154 35z" />
<glyph unicode="z" horiz-adv-x="917" d="M6 0l10 70l744 884h-619l15 86h747l-10 -67l-750 -887h650l-13 -86h-774z" />
<glyph unicode="{" horiz-adv-x="581" d="M10 543l15 96h26q139 0 182 113q14 27 21.5 101.5t12.5 192t9 160.5q12 176 66.5 239.5t220.5 63.5h90l-14 -88h-102q-133 0 -154 -121q-8 -53 -31 -413q-6 -109 -32.5 -170.5t-56.5 -82t-93 -44.5q33 -14 54.5 -29.5t41 -57.5t19.5 -102q0 -82 -47.5 -264t-47.5 -231 q0 -115 150 -115h72l-11 -88h-77q-231 0 -232 193q0 74 48 236.5t48 254.5q0 156 -145 156h-33z" />
<glyph unicode="|" horiz-adv-x="573" d="M123 -293l258 1839h88l-258 -1839h-88z" />
<glyph unicode="}" horiz-adv-x="581" d="M-84 -297l14 88h103q133 0 153 121q8 53 31 414q6 109 32.5 170t56.5 81.5t93 45.5q-33 14 -54 29.5t-40.5 57.5t-19.5 101q0 82 47 264t47 232q0 115 -150 114h-71l10 88h78q231 0 231 -192q0 -74 -48 -236.5t-48 -255.5q0 -156 145 -155h33l-14 -97h-27 q-139 0 -182 -112q-14 -27 -21.5 -101.5t-12.5 -192.5t-9 -161q-12 -176 -66.5 -239.5t-220.5 -63.5h-90z" />
<glyph unicode="~" horiz-adv-x="940" d="M92 594q-14 113 35 162t119 49q66 0 246 -49t223 -49q47 0 68.5 23.5t21.5 94.5l80 -4q14 -115 -35 -161t-127 -46q-61 0 -244.5 50.5t-230.5 50.5q-82 0 -80 -123z" />
<glyph unicode="&#xa1;" horiz-adv-x="509" d="M55 -444l176 1114h74l-129 -1114h-121zM207 940q0 123 119 123q90 0 90 -86q0 -123 -119 -123q-90 0 -90 86z" />
<glyph unicode="&#xa2;" horiz-adv-x="1026" d="M121 635q0 266 127 416.5t334 169.5l28 196h82l-28 -196q143 -14 214.5 -113.5t53.5 -251.5l-88 -6q10 262 -191 287l-121 -830q205 18 267 221l78 -20q-37 -133 -130.5 -205t-220.5 -82l-30 -221h-82l30 217q-324 49 -323 418zM219 633q0 -154 62.5 -235t169.5 -91 l120 832q-68 -6 -126 -34t-111 -83t-84 -155.5t-31 -233.5z" />
<glyph unicode="&#xa3;" horiz-adv-x="1126" d="M-25 0l13 86h112q240 195 240 420q0 88 -31 172h-223l14 84h176q-61 143 -61 295q0 203 140.5 327.5t344.5 124.5q186 0 278.5 -89t84.5 -283l-94 -11q2 154 -57.5 226.5t-211.5 72.5q-168 0 -277.5 -93t-109.5 -279q0 -113 62 -291h506l-15 -84h-460q25 -78 24 -168 q0 -244 -215 -424h414q123 0 186.5 58.5t106.5 193.5l84 -23q-47 -170 -138.5 -242.5t-238.5 -72.5h-654z" />
<glyph unicode="&#xa4;" d="M23 102l196 197q-72 113 -72 281q0 139 76 262l-194 192l88 80l186 -186q123 102 299 102q184 0 297 -96l178 178l80 -76l-184 -188q69 -108 69 -260q0 -166 -84 -289l197 -195l-88 -77l-193 188q-117 -90 -286 -90q-180 0 -295 94q4 6 -45 -44t-98.5 -101t-47.5 -47z M258 580q0 -162 88 -261.5t252 -99.5q154 0 243 100.5t89 260.5q0 168 -88 261t-250 93q-156 0 -245 -97.5t-89 -256.5z" />
<glyph unicode="&#xa5;" horiz-adv-x="1021" d="M164 510l14 84h277l24 182h-276l14 84h229l-268 623h105l258 -623l422 623h110l-434 -623h238l-15 -84h-280l-27 -182h281l-13 -84h-280l-70 -510h-98l69 510h-280z" />
<glyph unicode="&#xa6;" horiz-adv-x="573" d="M123 -293l113 795h88l-113 -795h-88zM283 836l98 710h88l-98 -710h-88z" />
<glyph unicode="&#xa7;" horiz-adv-x="1116" d="M47 -72l105 15q0 -289 276 -289q150 0 236 78t86 209q0 94 -68 149t-163 82t-190.5 55.5t-163 98t-67.5 182.5q0 94 59.5 171t196.5 173q-106 78 -106 223q0 178 132 277.5t310 99.5q197 0 284 -98.5t75 -268.5l-99 -14q4 145 -56.5 217t-201.5 72q-162 0 -247 -82 t-85 -205q0 -94 67 -150.5t161 -82t188 -52t161 -90t67 -168.5q0 -109 -63.5 -192.5t-192.5 -173.5q106 -84 106 -221q0 -182 -118 -281.5t-306 -99.5q-203 0 -298 100t-85 266zM205 514q0 -59 27.5 -101t81 -69t105.5 -44t128 -39.5t121 -41.5q225 129 225 309 q0 51 -28.5 88t-82 60.5t-106.5 40t-127 37t-119 41.5q-106 -66 -165.5 -131.5t-59.5 -149.5z" />
<glyph unicode="&#xa8;" horiz-adv-x="1021" d="M387 1352q0 47 29.5 75.5t79.5 28.5q76 0 75 -78q0 -47 -28.5 -74.5t-73.5 -27.5q-82 0 -82 76zM780 1352q0 47 30 75.5t77 28.5q35 0 56.5 -20.5t21.5 -57.5q0 -47 -29 -74.5t-74 -27.5q-82 0 -82 76z" />
<glyph unicode="&#xa9;" horiz-adv-x="1536" d="M100 612q0 305 191.5 485.5t478.5 180.5q309 0 487.5 -172t178.5 -465q0 -297 -185.5 -481.5t-484.5 -184.5q-319 0 -492.5 178.5t-173.5 458.5zM188 614q0 -266 156 -418.5t426 -152.5q268 0 424 157.5t156 428.5q0 276 -160 427.5t-420 151.5q-256 0 -419 -158.5 t-163 -435.5zM406 635q0 178 98 287.5t274 109.5q272 0 287 -258l-92 -12q-8 96 -54.5 143t-142.5 47q-119 0 -194.5 -78.5t-75.5 -242.5q0 -139 66.5 -226.5t197.5 -87.5q104 0 151 44.5t70 146.5l84 -14q-35 -258 -299 -258q-188 0 -279 108.5t-91 290.5z" />
<glyph unicode="&#xaa;" horiz-adv-x="792" d="M123 817q0 176 82 308t254 132q96 0 196 -73l11 61h82l-80 -553q-6 -57 32 -57q20 0 45 8l-10 -63q-23 -8 -59 -9q-98 0 -90 93q-98 -102 -246 -103q-100 0 -158.5 62.5t-58.5 193.5zM211 827q0 -190 145 -190q119 0 232 119l51 350q-78 74 -188 74q-123 0 -181.5 -111 t-58.5 -242z" />
<glyph unicode="&#xab;" horiz-adv-x="860" d="M143 535l226 301h110l-211 -299l121 -326h-110zM434 535l225 301h111l-211 -299l121 -326h-111z" />
<glyph unicode="&#xac;" d="M213 616l16 93h758l-47 -285h-102l30 192h-655z" />
<glyph unicode="&#xad;" horiz-adv-x="636" d="M115 565l12 94h555l-12 -94h-555z" />
<glyph unicode="&#xae;" horiz-adv-x="905" d="M127 973q0 168 106.5 269t266.5 101q172 0 271 -97t99 -259q0 -166 -103 -268.5t-269 -102.5q-178 0 -274.5 99.5t-96.5 257.5zM205 975q0 -137 78.5 -214t216.5 -77q139 0 218 80t79 217q0 141 -82 218t-215 77q-129 0 -212 -81t-83 -220zM379 788v392h133 q127 0 127 -111q0 -69 -68 -102l105 -179h-72l-94 158h-61v-158h-70zM449 999h26q94 0 94 70q0 33 -19.5 45t-60.5 12h-40v-127z" />
<glyph unicode="&#xaf;" horiz-adv-x="1024" d="M387 1327l14 86h568l-15 -86h-567z" />
<glyph unicode="&#xb0;" horiz-adv-x="593" d="M129 1307q0 109 62.5 167t160.5 58q100 0 159.5 -55.5t59.5 -161.5q0 -104 -58 -162.5t-160.5 -58.5t-163 56t-60.5 157zM219 1307q0 -140 133 -140q129 0 129 148q0 143 -129 143q-133 0 -133 -151z" />
<glyph unicode="&#xb1;" horiz-adv-x="1165" d="M123 0l12 88h758l-12 -88h-758zM219 612l14 97h330l51 323h99l-51 -323h329l-14 -97h-330l-53 -338h-98l53 338h-330z" />
<glyph unicode="&#xb2;" horiz-adv-x="704" d="M84 715l10 78l258 258q156 160 205 228.5t49 145.5q0 127 -141 127q-152 0 -205 -161l-80 16q55 225 295 225q102 0 161.5 -50t59.5 -152q0 -96 -52 -175t-177 -200l-266 -258h420l-15 -82h-522z" />
<glyph unicode="&#xb3;" horiz-adv-x="755" d="M111 911l86 15q20 -147 170 -148q84 0 150.5 55.5t66.5 161.5q0 156 -195 156h-78l13 78h57q111 0 180.5 55t69.5 141q0 127 -139 127q-80 0 -124 -33.5t-75 -103.5l-84 19q31 98 109 148t182 50q106 0 164.5 -51t58.5 -141q0 -176 -219 -246v-4q172 -35 172 -199 q0 -129 -87 -210t-224 -81q-115 0 -181.5 54.5t-72.5 156.5z" />
<glyph unicode="&#xb4;" horiz-adv-x="1024" d="M522 1200l266 336h160l-346 -365z" />
<glyph unicode="&#xb5;" horiz-adv-x="1185" d="M57 -434l209 1474h103l-86 -606q-18 -131 -19 -184q0 -184 176 -184q205 0 426 188l109 786h100l-125 -884q-4 -33 -4 -37q0 -51 53 -51q33 0 68 10l-10 -76q-27 -10 -92 -10q-132 -1 -109 153h-4q-219 -168 -426 -168q-72 0 -127 28t-72 69l-71 -508h-99z" />
<glyph unicode="&#xb6;" horiz-adv-x="1126" d="M147 915q0 147 52.5 260t142.5 178.5t200.5 97.5t239.5 32h262l-243 -1755h-94l235 1673h-219l-236 -1673h-94l111 788q-164 18 -260.5 125t-96.5 274z" />
<glyph unicode="&#xb7;" horiz-adv-x="333" d="M68 596q0 127 122 127q95 0 95 -88q0 -61 -34 -94t-91 -33q-92 0 -92 88z" />
<glyph unicode="&#xb8;" horiz-adv-x="1021" d="M229 -389l31 67q55 -45 125 -45q57 0 92 29t35 86q0 92 -152 96l56 197l82 -6l-39 -135q53 -8 98 -43t45 -103q0 -94 -60.5 -144t-144.5 -50q-105 0 -168 51z" />
<glyph unicode="&#xb9;" horiz-adv-x="571" d="M195 1432v75q178 14 270 105h47l-129 -901h-94l110 762q-33 -16 -100.5 -28.5t-103.5 -12.5z" />
<glyph unicode="&#xba;" horiz-adv-x="788" d="M121 850q0 166 95 286.5t273 120.5q131 0 196 -75.5t65 -208.5q0 -170 -92.5 -291t-272.5 -121q-264 0 -264 289zM213 840q0 -197 182 -197q131 0 196.5 95.5t65.5 238.5q0 201 -178 201q-131 0 -198.5 -95.5t-67.5 -242.5z" />
<glyph unicode="&#xbb;" horiz-adv-x="858" d="M68 211l225 313l-125 312h106l136 -318l-228 -307h-114zM358 211l226 313l-125 312h106l135 -318l-227 -307h-115z" />
<glyph unicode="&#xbc;" horiz-adv-x="1681" d="M152 1292v76q178 14 270 105h47l-129 -902h-94l110 762q-33 -16 -100.5 -28.5t-103.5 -12.5zM264 -25l944 1508h99l-942 -1508h-101zM895 227l10 70l490 604h123l-88 -592h112l-10 -82h-113l-33 -227h-94l33 227h-430zM1008 309h331l74 494z" />
<glyph unicode="&#xbd;" horiz-adv-x="1681" d="M172 1292v76q178 14 270 105h47l-129 -902h-94l111 762q-33 -16 -100.5 -28.5t-104.5 -12.5zM211 -25l944 1508h98l-942 -1508h-100zM924 0l10 78l258 258q156 160 205 228.5t49 146.5q0 127 -141 127q-152 0 -205 -162l-80 16q55 225 295 226q102 0 161.5 -50.5 t59.5 -152.5q0 -96 -52 -175t-177 -200l-267 -258h420l-14 -82h-522z" />
<glyph unicode="&#xbe;" horiz-adv-x="1681" d="M16 772l86 14q20 -147 170 -147q84 0 150.5 55.5t66.5 161.5q0 156 -194 156h-78l12 78h58q111 0 180.5 55t69.5 141q0 127 -140 127q-80 0 -124 -33.5t-74 -103.5l-84 18q31 98 109 148.5t182 50.5q106 0 164.5 -51t58.5 -142q0 -176 -219 -245v-4q172 -35 172 -199 q0 -129 -87 -210t-225 -81q-115 0 -181 54.5t-73 156.5zM350 -25l944 1508h99l-942 -1508h-101zM934 227l10 70l490 604h122l-88 -592h113l-10 -82h-113l-33 -227h-94l33 227h-430zM1047 309h331l74 494z" />
<glyph unicode="&#xbf;" horiz-adv-x="897" d="M-35 -98q0 428 529 489l38 283h91l-52 -363q-104 -6 -185 -24.5t-158.5 -59.5t-119.5 -119.5t-42 -191.5q0 -137 76.5 -203.5t201.5 -66.5q121 0 208 55t130 205l90 -21q-86 -323 -444 -323q-156 0 -259.5 85t-103.5 255zM508 940q0 123 119 123q90 0 90 -86 q0 -123 -119 -123q-90 0 -90 86z" />
<glyph unicode="&#xc0;" horiz-adv-x="1249" d="M-10 0l682 1483h147l287 -1483h-105l-94 508h-585l-232 -508h-100zM365 594h524l-152 813h-2zM500 1866h139l172 -267l-76 -28z" />
<glyph unicode="&#xc1;" horiz-adv-x="1249" d="M-10 0l682 1483h147l287 -1483h-105l-94 508h-585l-232 -508h-100zM365 594h524l-152 813h-2zM717 1599l233 267h166l-319 -295z" />
<glyph unicode="&#xc2;" horiz-adv-x="1249" d="M-10 0l682 1483h147l287 -1483h-105l-94 508h-585l-232 -508h-100zM365 594h524l-152 813h-2zM475 1591l285 242h67l220 -242l-95 -16l-170 170l-209 -174z" />
<glyph unicode="&#xc3;" horiz-adv-x="1249" d="M-10 0l682 1483h147l287 -1483h-105l-94 508h-585l-232 -508h-100zM365 594h524l-152 813h-2zM438 1583q25 203 183 203q68 0 150.5 -49t123.5 -49q86 0 106 120l76 -4q-16 -115 -62 -155.5t-122 -40.5q-61 0 -147.5 47t-133.5 47q-78 0 -98 -123z" />
<glyph unicode="&#xc4;" horiz-adv-x="1249" d="M-10 0l682 1483h147l287 -1483h-105l-94 508h-585l-232 -508h-100zM365 594h524l-152 813h-2zM479 1679q0 49 30 78t77 29q35 0 56.5 -20.5t21.5 -57.5q0 -47 -29 -75.5t-74 -28.5q-82 -1 -82 75zM870 1679q0 49 30 78t77 29q78 0 78 -78q0 -49 -29 -76.5t-74 -27.5 q-82 -1 -82 75z" />
<glyph unicode="&#xc5;" horiz-adv-x="1249" d="M-10 0l682 1483q-92 37 -92 153q0 106 67.5 166t161.5 60q82 0 131 -40t49 -120q0 -86 -46 -144.5t-124 -74.5l287 -1483h-105l-94 508h-585l-232 -508h-100zM365 594h524l-152 813h-2zM662 1645q0 -45 26.5 -72t77.5 -27q66 0 101.5 42t35.5 106q0 98 -102 98 q-61 0 -100 -39t-39 -108z" />
<glyph unicode="&#xc6;" horiz-adv-x="1968" d="M-8 0l1073 1483h905l-12 -82h-680l-86 -615h635l-12 -86h-635l-86 -616h698l-14 -84h-791l96 696h-481l-502 -696h-108zM666 784h430l88 617h-82z" />
<glyph unicode="&#xc7;" horiz-adv-x="1341" d="M115 573q0 434 213 685t540 251q221 0 344 -130t109 -365l-90 -8q0 420 -367 419q-289 0 -469 -225t-180 -618q0 -520 440 -521q184 0 296 83t179 268l87 -23q-127 -393 -549 -412l-23 -77q53 -8 98 -43t45 -103q0 -94 -60 -144t-144 -50q-105 0 -168 51l30 67 q57 -45 125 -45q57 0 92 29t35 86q0 92 -151 96l37 133q-240 14 -354.5 171t-114.5 425z" />
<glyph unicode="&#xc8;" horiz-adv-x="1112" d="M141 0l199 1483h776l-10 -84h-680l-80 -602h633l-10 -86h-633l-86 -625h696l-14 -86h-791zM557 1866h139l172 -267l-75 -28z" />
<glyph unicode="&#xc9;" horiz-adv-x="1112" d="M141 0l199 1483h776l-10 -84h-680l-80 -602h633l-10 -86h-633l-86 -625h696l-14 -86h-791zM612 1599l234 267h166l-320 -295z" />
<glyph unicode="&#xca;" horiz-adv-x="1112" d="M141 0l199 1483h776l-10 -84h-680l-80 -602h633l-10 -86h-633l-86 -625h696l-14 -86h-791zM461 1591l284 242h68l219 -242l-94 -16l-170 170l-209 -174z" />
<glyph unicode="&#xcb;" horiz-adv-x="1112" d="M141 0l199 1483h776l-10 -84h-680l-80 -602h633l-10 -86h-633l-86 -625h696l-14 -86h-791zM465 1679q0 49 29.5 78t76.5 29q35 0 56.5 -20.5t21.5 -57.5q0 -47 -28.5 -75.5t-73.5 -28.5q-82 -1 -82 75zM856 1679q0 49 29.5 78t77.5 29q78 0 77 -78q0 -49 -28.5 -76.5 t-73.5 -27.5q-82 -1 -82 75z" />
<glyph unicode="&#xcc;" horiz-adv-x="528" d="M141 0l199 1483h98l-200 -1483h-97zM162 1866h139l172 -267l-76 -28z" />
<glyph unicode="&#xcd;" horiz-adv-x="528" d="M141 0l199 1483h98l-200 -1483h-97zM346 1599l234 267h165l-319 -295z" />
<glyph unicode="&#xce;" horiz-adv-x="528" d="M115 1591l284 242h68l219 -242l-94 -16l-170 170l-209 -174zM141 0l199 1483h98l-200 -1483h-97z" />
<glyph unicode="&#xcf;" horiz-adv-x="528" d="M119 1679q0 49 29.5 78t76.5 29q35 0 56.5 -20.5t21.5 -57.5q0 -47 -28.5 -75.5t-73.5 -28.5q-82 -1 -82 75zM141 0l199 1483h98l-200 -1483h-97zM510 1679q0 49 29.5 78t76.5 29q78 0 78 -78q0 -49 -28.5 -76.5t-73.5 -27.5q-82 -1 -82 75z" />
<glyph unicode="&#xd0;" horiz-adv-x="1454" d="M104 713l13 84h151l92 686h390q313 0 464.5 -157t151.5 -439q0 -195 -51 -354.5t-151.5 -279.5t-265.5 -186.5t-380 -66.5h-356l94 713h-152zM264 84h271q346 0 539.5 214t193.5 599q0 266 -138.5 385t-396.5 119h-291l-82 -604h488l-12 -84h-488z" />
<glyph unicode="&#xd1;" horiz-adv-x="1452" d="M137 0l199 1483h151l594 -1370l187 1370h92l-199 -1483h-129l-612 1393l-189 -1393h-94zM559 1583q24 203 182 203q68 0 151 -49t124 -49q86 0 106 120l76 -4q-16 -115 -62 -155.5t-122 -40.5q-61 0 -147.5 47t-133.5 47q-78 0 -98 -123z" />
<glyph unicode="&#xd2;" horiz-adv-x="1482" d="M111 612q0 399 199.5 648t557.5 249q264 0 398.5 -164.5t134.5 -429.5q0 -444 -198.5 -692t-540.5 -248q-274 0 -412.5 170t-138.5 467zM211 612q0 -117 25.5 -212t78 -172.5t142.5 -121t213 -43.5q272 0 450 211t178 613q0 240 -108.5 387t-337.5 147 q-276 0 -458.5 -205.5t-182.5 -603.5zM688 1866h139l172 -267l-75 -28z" />
<glyph unicode="&#xd3;" horiz-adv-x="1482" d="M111 612q0 399 199.5 648t557.5 249q264 0 398.5 -164.5t134.5 -429.5q0 -444 -198.5 -692t-540.5 -248q-274 0 -412.5 170t-138.5 467zM211 612q0 -117 25.5 -212t78 -172.5t142.5 -121t213 -43.5q272 0 450 211t178 613q0 240 -108.5 387t-337.5 147 q-276 0 -458.5 -205.5t-182.5 -603.5zM743 1599l234 267h166l-320 -295z" />
<glyph unicode="&#xd4;" horiz-adv-x="1482" d="M111 612q0 399 199.5 648t557.5 249q264 0 398.5 -164.5t134.5 -429.5q0 -444 -198.5 -692t-540.5 -248q-274 0 -412.5 170t-138.5 467zM211 612q0 -117 25.5 -212t78 -172.5t142.5 -121t213 -43.5q272 0 450 211t178 613q0 240 -108.5 387t-337.5 147 q-276 0 -458.5 -205.5t-182.5 -603.5zM592 1591l285 242h67l219 -242l-94 -16l-170 170l-209 -174z" />
<glyph unicode="&#xd5;" horiz-adv-x="1482" d="M111 612q0 399 199.5 648t557.5 249q264 0 398.5 -164.5t134.5 -429.5q0 -444 -198.5 -692t-540.5 -248q-274 0 -412.5 170t-138.5 467zM211 612q0 -117 25.5 -212t78 -172.5t142.5 -121t213 -43.5q272 0 450 211t178 613q0 240 -108.5 387t-337.5 147 q-276 0 -458.5 -205.5t-182.5 -603.5zM578 1583q24 203 182 203q68 0 150.5 -49t123.5 -49q86 0 107 120l76 -4q-16 -115 -62.5 -155.5t-122.5 -40.5q-61 0 -147 47t-133 47q-78 0 -99 -123z" />
<glyph unicode="&#xd6;" horiz-adv-x="1482" d="M111 612q0 399 199.5 648t557.5 249q264 0 398.5 -164.5t134.5 -429.5q0 -444 -198.5 -692t-540.5 -248q-274 0 -412.5 170t-138.5 467zM211 612q0 -117 25.5 -212t78 -172.5t142.5 -121t213 -43.5q272 0 450 211t178 613q0 240 -108.5 387t-337.5 147 q-276 0 -458.5 -205.5t-182.5 -603.5zM596 1679q0 49 29.5 78t76.5 29q35 0 56.5 -20.5t21.5 -57.5q0 -47 -28.5 -75.5t-73.5 -28.5q-82 -1 -82 75zM987 1679q0 49 30 78t77 29q78 0 77 -78q0 -49 -28.5 -76.5t-73.5 -27.5q-82 -1 -82 75z" />
<glyph unicode="&#xd7;" d="M240 424l278 242l-194 229l73 61l193 -229l270 234l58 -68l-271 -234l201 -239l-72 -62l-203 240l-278 -242z" />
<glyph unicode="&#xd8;" horiz-adv-x="1482" d="M111 612q0 399 199.5 648t557.5 249q80 0 162 -20l55 131h93l-68 -160q145 -66 218 -209t73 -336q0 -444 -198.5 -692t-540.5 -248q-94 0 -179 23l-65 -154h-92l77 183q-293 139 -292 585zM209 612q0 -375 231 -499l553 1292q-63 18 -141 18q-276 0 -459.5 -207 t-183.5 -604zM518 82q64 -21 152 -21q272 0 451 212t179 614q0 365 -229 487z" />
<glyph unicode="&#xd9;" horiz-adv-x="1409" d="M197 469l137 1014h96l-135 -1010q-29 -219 57 -313t275 -94q197 0 312.5 95t143.5 314l136 1008h96l-137 -1012q-66 -496 -551 -496q-498 0 -430 494zM655 1866h140l172 -267l-76 -28z" />
<glyph unicode="&#xda;" horiz-adv-x="1409" d="M197 469l137 1014h96l-135 -1010q-29 -219 57 -313t275 -94q197 0 312.5 95t143.5 314l136 1008h96l-137 -1012q-66 -496 -551 -496q-498 0 -430 494zM752 1599l233 267h166l-320 -295z" />
<glyph unicode="&#xdb;" horiz-adv-x="1409" d="M197 469l137 1014h96l-135 -1010q-29 -219 57 -313t275 -94q197 0 312.5 95t143.5 314l136 1008h96l-137 -1012q-66 -496 -551 -496q-498 0 -430 494zM559 1591l285 242h67l219 -242l-94 -16l-170 170l-209 -174z" />
<glyph unicode="&#xdc;" horiz-adv-x="1409" d="M197 469l137 1014h96l-135 -1010q-29 -219 57 -313t275 -94q197 0 312.5 95t143.5 314l136 1008h96l-137 -1012q-66 -496 -551 -496q-498 0 -430 494zM563 1679q0 49 30 78t77 29q35 0 56.5 -20.5t21.5 -57.5q0 -47 -29 -75.5t-74 -28.5q-82 -1 -82 75zM954 1679 q0 49 30 78t77 29q78 0 78 -78q0 -49 -29 -76.5t-74 -27.5q-82 -1 -82 75z" />
<glyph unicode="&#xdd;" horiz-adv-x="1030" d="M117 1483h102l311 -793h2l515 793h104l-582 -889l-82 -594h-92l80 586zM578 1599l233 267h166l-320 -295z" />
<glyph unicode="&#xde;" horiz-adv-x="1368" d="M143 0l209 1483h99l-37 -250h286q248 0 363 -98.5t115 -264.5q0 -518 -615 -518h-274l-49 -352h-97zM301 446h264q117 0 200 15.5t156.5 57.5t111.5 126t38 211q0 285 -397 285h-273z" />
<glyph unicode="&#xdf;" horiz-adv-x="1359" d="M68 -434l219 1575q31 219 165 324.5t341 105.5q188 0 285.5 -85t97.5 -231q0 -154 -76 -245.5t-219 -151.5v-6q156 -20 251 -107.5t95 -252.5q0 -246 -123 -381.5t-322 -135.5q-346 0 -366 322l86 16q23 -254 280 -254q152 0 246 113t94 301q0 324 -407 324h-88l14 94h29 q203 0 302 105.5t99 240.5q0 246 -280 246q-180 0 -281.5 -84t-130.5 -291l-217 -1542h-94z" />
<glyph unicode="&#xe0;" horiz-adv-x="1163" d="M113 387q0 86 13 172t49 179t90 164t144.5 116t202.5 45q178 0 320 -117l20 94h86l-125 -880q-6 -47 3.5 -69.5t46.5 -22.5q33 0 67 10l-10 -76q-31 -10 -72 -10q-141 0 -123 155q-182 -172 -385 -172q-152 0 -239.5 99.5t-87.5 312.5zM207 385q0 -324 250 -324 q94 0 177 40t200 151l81 600q-51 49 -139 85t-180 36q-104 0 -184 -57.5t-122 -148.5t-62.5 -188.5t-20.5 -193.5zM471 1536h139l185 -336l-80 -29z" />
<glyph unicode="&#xe1;" horiz-adv-x="1163" d="M113 387q0 86 13 172t49 179t90 164t144.5 116t202.5 45q178 0 320 -117l20 94h86l-125 -880q-6 -47 3.5 -69.5t46.5 -22.5q33 0 67 10l-10 -76q-31 -10 -72 -10q-141 0 -123 155q-182 -172 -385 -172q-152 0 -239.5 99.5t-87.5 312.5zM207 385q0 -324 250 -324 q94 0 177 40t200 151l81 600q-51 49 -139 85t-180 36q-104 0 -184 -57.5t-122 -148.5t-62.5 -188.5t-20.5 -193.5zM571 1200l267 336h159l-346 -365z" />
<glyph unicode="&#xe2;" horiz-adv-x="1163" d="M113 387q0 86 13 172t49 179t90 164t144.5 116t202.5 45q178 0 320 -117l20 94h86l-125 -880q-6 -47 3.5 -69.5t46.5 -22.5q33 0 67 10l-10 -76q-31 -10 -72 -10q-141 0 -123 155q-182 -172 -385 -172q-152 0 -239.5 99.5t-87.5 312.5zM207 385q0 -324 250 -324 q94 0 177 40t200 151l81 600q-51 49 -139 85t-180 36q-104 0 -184 -57.5t-122 -148.5t-62.5 -188.5t-20.5 -193.5zM379 1198l283 338h100l201 -338l-91 -14l-167 266l-236 -270z" />
<glyph unicode="&#xe3;" horiz-adv-x="1163" d="M113 387q0 86 13 172t49 179t90 164t144.5 116t202.5 45q178 0 320 -117l20 94h86l-125 -880q-6 -47 3.5 -69.5t46.5 -22.5q33 0 67 10l-10 -76q-31 -10 -72 -10q-141 0 -123 155q-182 -172 -385 -172q-152 0 -239.5 99.5t-87.5 312.5zM207 385q0 -324 250 -324 q94 0 177 40t200 151l81 600q-51 49 -139 85t-180 36q-104 0 -184 -57.5t-122 -148.5t-62.5 -188.5t-20.5 -193.5zM371 1225q24 202 182 202q68 0 150.5 -49t123.5 -49q86 0 107 121l76 -4q-16 -115 -62.5 -156t-122.5 -41q-61 0 -147 47t-133 47q-78 0 -99 -122z" />
<glyph unicode="&#xe4;" horiz-adv-x="1163" d="M113 387q0 86 13 172t49 179t90 164t144.5 116t202.5 45q178 0 320 -117l20 94h86l-125 -880q-6 -47 3.5 -69.5t46.5 -22.5q33 0 67 10l-10 -76q-31 -10 -72 -10q-141 0 -123 155q-182 -172 -385 -172q-152 0 -239.5 99.5t-87.5 312.5zM207 385q0 -324 250 -324 q94 0 177 40t200 151l81 600q-51 49 -139 85t-180 36q-104 0 -184 -57.5t-122 -148.5t-62.5 -188.5t-20.5 -193.5zM420 1352q0 47 29.5 75.5t78.5 28.5q76 0 76 -78q0 -47 -28.5 -74.5t-73.5 -27.5q-82 0 -82 76zM813 1352q0 47 29.5 75.5t77.5 28.5q35 0 56 -20.5t21 -57.5 q0 -47 -28.5 -74.5t-73.5 -27.5q-82 0 -82 76z" />
<glyph unicode="&#xe5;" horiz-adv-x="1163" d="M113 387q0 86 13 172t49 179t90 164t144.5 116t202.5 45q178 0 320 -117l20 94h86l-125 -880q-6 -47 3.5 -69.5t46.5 -22.5q33 0 67 10l-10 -76q-31 -10 -72 -10q-141 0 -123 155q-182 -172 -385 -172q-152 0 -239.5 99.5t-87.5 312.5zM207 385q0 -324 250 -324 q94 0 177 40t200 151l81 600q-51 49 -139 85t-180 36q-104 0 -184 -57.5t-122 -148.5t-62.5 -188.5t-20.5 -193.5zM500 1343q0 109 68.5 169.5t164.5 60.5q82 0 133.5 -41t51.5 -121q0 -106 -65 -168.5t-173 -62.5q-84 0 -132 43t-48 120zM584 1352q0 -101 106 -101 q66 0 102.5 42t36.5 108q0 100 -104 100q-61 0 -101 -39t-40 -110z" />
<glyph unicode="&#xe6;" horiz-adv-x="1736" d="M113 377q0 90 13 177t49 182t91.5 165t146.5 116t208 46q82 0 167.5 -35t143.5 -82l16 96h99l-15 -84q127 104 309 105q145 0 230.5 -74t85.5 -184q0 -59 -20.5 -109.5t-49 -86.5t-82 -65.5t-93.5 -48t-112.5 -31.5t-108.5 -20.5t-113 -11.5t-95 -5t-82 -3 q4 -365 303 -365q127 0 208 65.5t112 166.5l86 -17q-43 -152 -157 -225.5t-261 -73.5q-248 0 -338 195q-203 -195 -414 -195q-150 0 -238.5 98.5t-88.5 303.5zM207 381q0 -319 242 -320q98 0 180.5 40t199.5 149q-20 80 -20 184q0 238 117 410q-137 131 -328 131 q-104 0 -184 -58.5t-123 -150.5t-63.5 -190.5t-20.5 -194.5zM905 506q109 2 187.5 8t173 25.5t153 49t98 85t39.5 129.5q0 82 -59.5 127t-161.5 45q-193 0 -300 -131t-130 -338z" />
<glyph unicode="&#xe7;" horiz-adv-x="1081" d="M111 424q0 299 152.5 469t387.5 170q180 0 265 -108.5t65 -286.5l-90 -11q6 156 -50.5 238t-199.5 82q-78 0 -149.5 -28.5t-138 -89t-106.5 -174.5t-40 -267q0 -186 83 -271.5t216 -85.5q256 0 334 248l86 -20q-39 -147 -147.5 -226t-254.5 -86l-20 -77q53 -8 98 -43 t45 -103q0 -94 -60.5 -144t-144.5 -50q-105 0 -168 51l31 67q57 -45 125 -45q57 0 92 29t35 86q0 92 -151 96l36 136q-332 33 -331 444z" />
<glyph unicode="&#xe8;" horiz-adv-x="1040" d="M111 436q0 160 55 298t180 233.5t301 95.5q145 0 229.5 -74t84.5 -184q0 -242 -304 -328q-172 -49 -452 -55q2 -59 9 -104.5t26.5 -96.5t51.5 -84t88 -55.5t132 -22.5q125 0 206 67t109 165l86 -17q-43 -152 -156.5 -225.5t-260.5 -73.5q-203 0 -294 126t-91 335z M209 506q307 12 465 63q186 61 186 234q0 84 -58 129t-167 45q-188 0 -297 -131t-129 -340zM442 1536h140l184 -336l-80 -29z" />
<glyph unicode="&#xe9;" horiz-adv-x="1040" d="M111 436q0 160 55 298t180 233.5t301 95.5q145 0 229.5 -74t84.5 -184q0 -242 -304 -328q-172 -49 -452 -55q2 -59 9 -104.5t26.5 -96.5t51.5 -84t88 -55.5t132 -22.5q125 0 206 67t109 165l86 -17q-43 -152 -156.5 -225.5t-260.5 -73.5q-203 0 -294 126t-91 335z M209 506q307 12 465 63q186 61 186 234q0 84 -58 129t-167 45q-188 0 -297 -131t-129 -340zM549 1200l266 336h160l-346 -365z" />
<glyph unicode="&#xea;" horiz-adv-x="1040" d="M111 436q0 160 55 298t180 233.5t301 95.5q145 0 229.5 -74t84.5 -184q0 -242 -304 -328q-172 -49 -452 -55q2 -59 9 -104.5t26.5 -96.5t51.5 -84t88 -55.5t132 -22.5q125 0 206 67t109 165l86 -17q-43 -152 -156.5 -225.5t-260.5 -73.5q-203 0 -294 126t-91 335z M209 506q307 12 465 63q186 61 186 234q0 84 -58 129t-167 45q-188 0 -297 -131t-129 -340zM373 1198l282 338h101l200 -338l-90 -14l-168 266l-235 -270z" />
<glyph unicode="&#xeb;" horiz-adv-x="1040" d="M111 436q0 160 55 298t180 233.5t301 95.5q145 0 229.5 -74t84.5 -184q0 -242 -304 -328q-172 -49 -452 -55q2 -59 9 -104.5t26.5 -96.5t51.5 -84t88 -55.5t132 -22.5q125 0 206 67t109 165l86 -17q-43 -152 -156.5 -225.5t-260.5 -73.5q-203 0 -294 126t-91 335z M209 506q307 12 465 63q186 61 186 234q0 84 -58 129t-167 45q-188 0 -297 -131t-129 -340zM414 1352q0 47 29.5 75.5t78.5 28.5q76 0 76 -78q0 -47 -28.5 -74.5t-73.5 -27.5q-82 0 -82 76zM807 1352q0 47 29.5 75.5t76.5 28.5q35 0 56.5 -20.5t21.5 -57.5 q0 -47 -28.5 -74.5t-73.5 -27.5q-82 0 -82 76z" />
<glyph unicode="&#xec;" horiz-adv-x="477" d="M90 1536h139l185 -336l-80 -29zM111 0l147 1042h100l-147 -1042h-100z" />
<glyph unicode="&#xed;" horiz-adv-x="477" d="M111 0l147 1042h100l-147 -1042h-100zM246 1200l266 336h160l-346 -365z" />
<glyph unicode="&#xee;" horiz-adv-x="477" d="M37 1198l282 338h101l201 -338l-91 -14l-168 266l-235 -270zM111 0l147 1042h100l-147 -1042h-100z" />
<glyph unicode="&#xef;" horiz-adv-x="477" d="M55 1352q0 47 30 75.5t79 28.5q76 0 76 -78q0 -47 -29 -74.5t-74 -27.5q-82 0 -82 76zM111 0l147 1042h100l-147 -1042h-100zM449 1352q0 47 29.5 75.5t76.5 28.5q35 0 56.5 -20.5t21.5 -57.5q0 -47 -29 -74.5t-74 -27.5q-81 0 -81 76z" />
<glyph unicode="&#xf0;" horiz-adv-x="1159" d="M102 416q0 254 141.5 431t383.5 177q86 0 170 -33t141 -82h4q-33 256 -201 408l-299 -143l-24 73l256 125q-123 82 -283 117l58 63q184 -47 311 -139l246 121l22 -78l-203 -98q215 -205 215 -600q0 -106 -12 -205.5t-47 -208t-92.5 -187.5t-154.5 -130.5t-226 -51.5 q-207 0 -306.5 118t-99.5 323zM201 416q0 -92 23.5 -166t93 -131.5t180.5 -57.5q129 0 219 54.5t139 159t70.5 229.5t21.5 289q-43 55 -134 99t-200 44q-188 0 -300.5 -145.5t-112.5 -374.5z" />
<glyph unicode="&#xf1;" horiz-adv-x="1189" d="M121 0l145 1040h96l-22 -147q217 170 416 170q322 0 274 -361l-98 -702h-101l99 702q41 272 -187 273q-177 0 -413 -184l-109 -791h-100zM391 1225q24 202 182 202q68 0 151 -49t124 -49q86 0 106 121l76 -4q-16 -115 -62 -156t-122 -41q-61 0 -147.5 47t-133.5 47 q-78 0 -98 -122z" />
<glyph unicode="&#xf2;" d="M111 418q0 123 30.5 233.5t94 204.5t173 150.5t253.5 56.5q383 0 382 -445q0 -119 -29.5 -228t-91 -204.5t-170 -153t-249.5 -57.5q-199 0 -296 119t-97 324zM209 420q0 -359 305 -359q113 0 198 47.5t134 128t73.5 178t24.5 206.5q0 354 -295 354q-217 0 -328.5 -159 t-111.5 -396zM477 1536h139l185 -336l-80 -29z" />
<glyph unicode="&#xf3;" d="M111 418q0 123 30.5 233.5t94 204.5t173 150.5t253.5 56.5q383 0 382 -445q0 -119 -29.5 -228t-91 -204.5t-170 -153t-249.5 -57.5q-199 0 -296 119t-97 324zM209 420q0 -359 305 -359q113 0 198 47.5t134 128t73.5 178t24.5 206.5q0 354 -295 354q-217 0 -328.5 -159 t-111.5 -396zM563 1200l266 336h160l-346 -365z" />
<glyph unicode="&#xf4;" d="M111 418q0 123 30.5 233.5t94 204.5t173 150.5t253.5 56.5q383 0 382 -445q0 -119 -29.5 -228t-91 -204.5t-170 -153t-249.5 -57.5q-199 0 -296 119t-97 324zM209 420q0 -359 305 -359q113 0 198 47.5t134 128t73.5 178t24.5 206.5q0 354 -295 354q-217 0 -328.5 -159 t-111.5 -396zM385 1198l283 338h100l201 -338l-90 -14l-168 266l-236 -270z" />
<glyph unicode="&#xf5;" d="M111 418q0 123 30.5 233.5t94 204.5t173 150.5t253.5 56.5q383 0 382 -445q0 -119 -29.5 -228t-91 -204.5t-170 -153t-249.5 -57.5q-199 0 -296 119t-97 324zM209 420q0 -359 305 -359q113 0 198 47.5t134 128t73.5 178t24.5 206.5q0 354 -295 354q-217 0 -328.5 -159 t-111.5 -396zM362 1225q25 202 183 202q68 0 150.5 -49t123.5 -49q86 0 107 121l75 -4q-16 -115 -62 -156t-122 -41q-61 0 -147 47t-133 47q-78 0 -99 -122z" />
<glyph unicode="&#xf6;" d="M111 418q0 123 30.5 233.5t94 204.5t173 150.5t253.5 56.5q383 0 382 -445q0 -119 -29.5 -228t-91 -204.5t-170 -153t-249.5 -57.5q-199 0 -296 119t-97 324zM209 420q0 -359 305 -359q113 0 198 47.5t134 128t73.5 178t24.5 206.5q0 354 -295 354q-217 0 -328.5 -159 t-111.5 -396zM403 1352q0 47 30 75.5t79 28.5q76 0 76 -78q0 -47 -29 -74.5t-74 -27.5q-82 0 -82 76zM797 1352q0 47 29.5 75.5t76.5 28.5q35 0 56.5 -20.5t21.5 -57.5q0 -47 -28.5 -74.5t-73.5 -27.5q-82 0 -82 76z" />
<glyph unicode="&#xf7;" horiz-adv-x="1165" d="M197 604l14 92h758l-15 -92h-757zM414 338q0 129 127 129q94 0 94 -90q0 -129 -125 -129q-96 0 -96 90zM498 944q0 129 127 129q96 0 96 -90q0 -131 -127 -131q-96 0 -96 92z" />
<glyph unicode="&#xf8;" d="M111 418q0 123 30.5 233.5t94 204.5t173 150.5t253.5 56.5q51 0 90 -8l55 137h88l-66 -160q215 -86 215 -414q0 -119 -29.5 -228t-91 -204.5t-170 -153t-249.5 -57.5q-37 0 -98 9l-58 -144h-88l68 166q-217 90 -217 412zM209 420q0 -252 153 -328l355 877q-61 6 -68 6 q-217 0 -328.5 -158.5t-111.5 -396.5zM440 68q35 -7 74 -7q113 0 198 47.5t134 128t73.5 178t24.5 206.5q0 248 -149 323z" />
<glyph unicode="&#xf9;" horiz-adv-x="1191" d="M160 334l98 706h100l-96 -694q-8 -74 -5 -136.5t48 -104.5t131 -42q195 1 420 189l109 788h100l-147 -1040h-93l19 143h-2q-76 -66 -188.5 -117t-225.5 -51q-317 0 -268 359zM481 1536h140l184 -336l-80 -29z" />
<glyph unicode="&#xfa;" horiz-adv-x="1191" d="M160 334l98 706h100l-96 -694q-8 -74 -5 -136.5t48 -104.5t131 -42q195 1 420 189l109 788h100l-147 -1040h-93l19 143h-2q-76 -66 -188.5 -117t-225.5 -51q-317 0 -268 359zM584 1200l266 336h160l-346 -365z" />
<glyph unicode="&#xfb;" horiz-adv-x="1191" d="M160 334l98 706h100l-96 -694q-8 -74 -5 -136.5t48 -104.5t131 -42q195 1 420 189l109 788h100l-147 -1040h-93l19 143h-2q-76 -66 -188.5 -117t-225.5 -51q-317 0 -268 359zM389 1198l283 338h100l201 -338l-90 -14l-168 266l-236 -270z" />
<glyph unicode="&#xfc;" horiz-adv-x="1191" d="M160 334l98 706h100l-96 -694q-8 -74 -5 -136.5t48 -104.5t131 -42q195 1 420 189l109 788h100l-147 -1040h-93l19 143h-2q-76 -66 -188.5 -117t-225.5 -51q-317 0 -268 359zM408 1352q0 47 29.5 75.5t78.5 28.5q76 0 76 -78q0 -47 -28.5 -74.5t-74.5 -27.5q-81 0 -81 76 zM801 1352q0 47 29.5 75.5t76.5 28.5q35 0 56.5 -20.5t21.5 -57.5q0 -47 -28.5 -74.5t-73.5 -27.5q-82 0 -82 76z" />
<glyph unicode="&#xfd;" horiz-adv-x="915" d="M-150 -422l21 82q68 -31 141 -31q70 0 123 60.5t135 226.5l41 84l-205 1040h105l170 -911l446 911h107l-551 -1099q-121 -244 -190.5 -321t-188.5 -77q-80 0 -154 35zM467 1200l266 336h160l-346 -365z" />
<glyph unicode="&#xfe;" horiz-adv-x="1187" d="M57 -434l271 1917h94l-84 -594h4q240 174 408 174q313 0 313 -393q0 -344 -145.5 -519.5t-358.5 -175.5q-176 0 -330 123l-73 -532h-99zM248 199q158 -131 307 -131q90 0 161.5 35.5t117 93t75 138.5t42 164t12.5 175q0 158 -52.5 229.5t-160.5 71.5q-102 0 -223 -63.5 t-197 -129.5z" />
<glyph unicode="&#xff;" horiz-adv-x="915" d="M-150 -422l21 82q68 -31 141 -31q70 0 123 60.5t135 226.5l41 84l-205 1040h105l170 -911l446 911h107l-551 -1099q-121 -244 -190.5 -321t-188.5 -77q-80 0 -154 35zM268 1352q0 47 30 75.5t79 28.5q76 0 76 -78q0 -47 -29 -74.5t-74 -27.5q-82 0 -82 76zM662 1352 q0 47 29.5 75.5t76.5 28.5q35 0 56.5 -20.5t21.5 -57.5q0 -47 -29 -74.5t-74 -27.5q-81 0 -81 76z" />
<glyph unicode="&#x152;" horiz-adv-x="2207" d="M111 618q0 397 201.5 644t564.5 247q190 0 318 -97t185 -259l47 330h785l-12 -82h-695l-84 -606h647l-10 -82h-647l-90 -629h711l-13 -84h-796l41 297q-215 -322 -600 -322q-276 0 -414.5 174.5t-138.5 468.5zM209 625q0 -272 121 -418t338 -146q291 0 481 218.5 t190 590.5q0 258 -128 405.5t-341 147.5q-305 0 -483 -214t-178 -584z" />
<glyph unicode="&#x153;" horiz-adv-x="1853" d="M111 418q0 123 30.5 233.5t94 204.5t173 150.5t253.5 56.5q297 0 348 -295q133 295 450 295q145 0 229.5 -74t84.5 -184q0 -242 -304 -328q-172 -49 -452 -55q2 -59 9 -104.5t26.5 -96.5t51.5 -84t88 -55.5t132 -22.5q125 0 206 67t109 165l86 -17 q-43 -152 -156.5 -225.5t-260.5 -73.5q-297 0 -353 297q-127 -297 -452 -297q-199 0 -296 119t-97 324zM209 420q0 -359 305 -359q113 0 198 47.5t134 128t73.5 178t24.5 206.5q0 354 -295 354q-217 0 -328.5 -159t-111.5 -396zM1022 506q307 12 465 63q186 61 186 234 q0 84 -58 129t-167 45q-188 0 -297 -131t-129 -340z" />
<glyph unicode="&#x178;" horiz-adv-x="1030" d="M117 1483h102l311 -793h2l515 793h104l-582 -889l-82 -594h-92l80 586zM373 1679q0 49 29.5 78t76.5 29q35 0 56.5 -20.5t21.5 -57.5q0 -47 -28.5 -75.5t-73.5 -28.5q-82 -1 -82 75zM764 1679q0 49 29.5 78t76.5 29q78 0 78 -78q0 -49 -28.5 -76.5t-73.5 -27.5 q-82 -1 -82 75z" />
<glyph unicode="&#x2c6;" horiz-adv-x="1024" d="M369 1198l282 338h101l200 -338l-90 -14l-168 266l-235 -270z" />
<glyph unicode="&#x2dc;" horiz-adv-x="1021" d="M346 1225q24 202 182 202q68 0 151 -49t124 -49q86 0 106 121l76 -4q-16 -115 -62 -156t-122 -41q-61 0 -147.5 47t-133.5 47q-78 0 -98 -122z" />
<glyph unicode="&#x2000;" horiz-adv-x="933" />
<glyph unicode="&#x2001;" horiz-adv-x="1866" />
<glyph unicode="&#x2002;" horiz-adv-x="933" />
<glyph unicode="&#x2003;" horiz-adv-x="1866" />
<glyph unicode="&#x2004;" horiz-adv-x="622" />
<glyph unicode="&#x2005;" horiz-adv-x="466" />
<glyph unicode="&#x2006;" horiz-adv-x="311" />
<glyph unicode="&#x2007;" horiz-adv-x="311" />
<glyph unicode="&#x2008;" horiz-adv-x="233" />
<glyph unicode="&#x2009;" horiz-adv-x="373" />
<glyph unicode="&#x200a;" horiz-adv-x="103" />
<glyph unicode="&#x2010;" horiz-adv-x="651" d="M29 565l12 94h555l-12 -94h-555z" />
<glyph unicode="&#x2011;" horiz-adv-x="651" d="M29 565l12 94h555l-12 -94h-555z" />
<glyph unicode="&#x2012;" horiz-adv-x="651" d="M29 565l12 94h555l-12 -94h-555z" />
<glyph unicode="&#x2013;" horiz-adv-x="1024" d="M-4 539l14 79h1022l-14 -79h-1022z" />
<glyph unicode="&#x2014;" horiz-adv-x="2048" d="M-4 539l12 79h2046l-12 -79h-2046z" />
<glyph unicode="&#x2018;" horiz-adv-x="358" d="M152 1147l217 426l82 -14l-166 -412h-133z" />
<glyph unicode="&#x2019;" horiz-adv-x="358" d="M156 1145l166 411h133l-217 -426z" />
<glyph unicode="&#x201a;" horiz-adv-x="358" d="M-51 -246l166 412h133l-217 -426z" />
<glyph unicode="&#x201c;" horiz-adv-x="632" d="M152 1147l217 426l82 -14l-166 -412h-133zM426 1147l217 426l82 -14l-166 -412h-133z" />
<glyph unicode="&#x201d;" horiz-adv-x="634" d="M156 1145l166 411h133l-217 -426zM430 1145l166 411h133l-217 -426z" />
<glyph unicode="&#x201e;" horiz-adv-x="630" d="M-51 -246l166 412h133l-217 -426zM221 -246l166 412h133l-217 -426z" />
<glyph unicode="&#x2022;" horiz-adv-x="735" d="M102 528q0 145 79 224t222 79q230 1 230 -210q0 -147 -79 -225.5t-222 -78.5q-229 0 -230 211z" />
<glyph unicode="&#x2026;" horiz-adv-x="1196" d="M35 57q0 117 117 117q86 0 86 -82q0 -117 -117 -117q-86 0 -86 82zM436 57q0 117 117 117q86 0 86 -82q0 -117 -117 -117q-86 0 -86 82zM813 57q0 117 117 117q86 0 86 -82q0 -117 -117 -117q-86 0 -86 82z" />
<glyph unicode="&#x202f;" horiz-adv-x="373" />
<glyph unicode="&#x2039;" horiz-adv-x="569" d="M143 535l226 301h110l-211 -299l121 -326h-110z" />
<glyph unicode="&#x203a;" horiz-adv-x="567" d="M68 211l225 313l-125 312h106l136 -318l-228 -307h-114z" />
<glyph unicode="&#x205f;" horiz-adv-x="466" />
<glyph unicode="&#x20ac;" horiz-adv-x="1320" d="M51 528l23 82h143q4 125 27 240h-127l20 82h125q72 258 238 418.5t418 160.5q385 0 358 -415l-90 -9q4 178 -58.5 260.5t-224.5 82.5q-168 0 -320.5 -127t-224.5 -371h486l-25 -82h-479q-23 -106 -27 -240h445l-25 -82h-420q6 -233 97.5 -351t281.5 -118q164 0 256 89.5 t133 211.5l80 -24q-53 -178 -180 -269.5t-301 -91.5q-442 0 -463 553h-166z" />
<glyph unicode="&#x2122;" horiz-adv-x="1669" d="M102 1399v84h654v-84h-281v-686h-94v686h-279zM874 713v770h115l254 -629l262 629h103v-770h-86v596l-246 -596h-72l-239 598v-598h-91z" />
<glyph unicode="&#x25fc;" horiz-adv-x="1044" d="M0 0v1044h1044v-1044h-1044z" />
</font>
</defs>
</svg>
